<?xml version="1.0" encoding="utf-8"?>
<!-- Generator: Adobe Illustrator 27.6.1, SVG Export Plug-In . SVG Version: 6.00 Build 0)  -->
<svg version="1.1" id="Layer_1" xmlns="http://www.w3.org/2000/svg" xmlns:xlink="http://www.w3.org/1999/xlink" x="0px" y="0px"
	 viewBox="0 0 297.27 87.14" style="enable-background:new 0 0 297.27 87.14;" xml:space="preserve">
<style type="text/css">
	.st0{fill:#494949;}
</style>
<g>
	<g>
		<path class="st0" d="M80.26,32.88c0.11,4.23-0.51,8.13-1.54,11.96c-1,3.72-2.48,7.24-4.34,10.59c-2,3.59-4.42,6.85-7.12,9.91
			c-2.76,3.12-5.86,5.84-9.12,8.36c-4.05,3.12-8.38,5.8-12.9,8.15c-1.13,0.59-2.28,1.15-3.42,1.74c-0.36,0.19-0.7,0.19-1.07,0.01
			c-4.02-1.94-7.92-4.11-11.66-6.57c-3.65-2.4-7.09-5.08-10.29-8.09c-3.49-3.3-6.59-6.93-9.17-11.01c-1.74-2.74-3.19-5.65-4.36-8.69
			c-1.22-3.16-2.11-6.42-2.55-9.78c-0.38-2.94-0.68-5.9-0.38-8.9c0.19-1.93,0.37-3.86,0.74-5.76c0.1-0.5,0.3-0.86,0.77-1.11
			c2.23-1.17,4.45-2.37,6.67-3.56c2.24-1.2,4.47-2.41,6.71-3.61c2.16-1.16,4.31-2.31,6.47-3.46c2.16-1.15,4.32-2.3,6.48-3.45
			c2.54-1.36,5.08-2.73,7.61-4.09c1.03-0.55,2.06-1.1,3.09-1.66c0.23-0.13,0.43-0.17,0.68-0.04c2.37,1.28,4.74,2.56,7.11,3.82
			c2.79,1.49,5.59,2.96,8.37,4.45c2.52,1.35,5.04,2.72,7.56,4.07c3.37,1.8,6.74,3.6,10.12,5.4c1.26,0.67,2.5,1.4,3.8,1.99
			c0.99,0.45,0.97,1.38,1.11,2.17C80.08,28.16,80.4,30.62,80.26,32.88z M38.2,26.37c0.08,2.82,1.1,5.3,2.66,7.58
			c0.24,0.35,0.38,0.37,0.64,0.01c0.83-1.17,1.51-2.43,2-3.79c0.52-1.43,0.83-2.91,0.67-4.46c-0.05-0.51,0.14-0.72,0.63-0.68
			c1.7,0.13,3.4,0.22,5.09,0.41c1.67,0.18,3.34,0.41,4.99,0.72c2.01,0.38,4,0.78,5.97,1.33c1.12,0.31,2.24,0.63,3.34,1.01
			c0.39,0.14,0.6-0.1,0.79-0.37c0.21-0.29,0.07-0.55-0.12-0.78c-0.16-0.19-0.4-0.28-0.63-0.36c-2.31-0.79-4.67-1.39-7.05-1.89
			c-3.17-0.66-6.38-1.07-9.6-1.36c-0.92-0.08-1.83-0.06-2.75-0.12c-0.93-0.06-0.94-0.09-1.2-0.96c-0.45-1.5-1.19-2.86-2.05-4.15
			c-0.22-0.33-0.38-0.39-0.65-0.01c-0.9,1.25-1.59,2.61-2.1,4.06c-0.37,1.04-0.35,1.06-1.44,1.08c-3.23,0.06-6.41,0.5-9.59,1.02
			c-2.68,0.44-5.32,1.06-7.93,1.84c-0.66,0.2-1.32,0.43-1.96,0.7c-0.39,0.16-0.49,0.54-0.31,0.92c0.18,0.36,0.46,0.52,0.89,0.35
			c0.42-0.17,0.85-0.28,1.28-0.42c3.96-1.27,8.03-1.99,12.13-2.54c1.63-0.22,3.28-0.32,4.92-0.46
			C38.21,24.92,38.21,24.93,38.2,26.37z M20.61,55.27c1.59,0,3.19,0.01,4.78,0c1.45-0.01,2.56-1.19,2.58-2.69
			c0.01-0.63-0.24-1.15-0.47-1.7c-1.05-2.51-2.08-5.02-3.14-7.52c-0.44-1.03-0.74-2.05-0.71-3.21c0.07-2.77,0.02-5.54,0.02-8.31
			c0-0.17,0-0.35-0.01-0.52c-0.02-0.29-0.16-0.48-0.45-0.49c-0.27-0.01-0.41,0.19-0.46,0.42c-0.04,0.16-0.03,0.34-0.03,0.52
			c0,3.17,0,6.35,0,9.52c0,0.33,0.07,0.64,0.2,0.95c1.35,3.23,2.69,6.47,4.03,9.7c0.46,1.12-0.34,2.41-1.53,2.42
			c-3.17,0.02-6.33,0.02-9.5,0c-1.21-0.01-2.03-1.31-1.56-2.45c1.25-3.01,2.52-6,3.74-9.01c0.23-0.56,0.53-1.09,0.53-1.74
			c-0.02-3.12-0.01-6.23-0.01-9.35c0-0.43,0.01-0.96-0.55-0.95c-0.53,0.01-0.42,0.54-0.42,0.9c-0.01,2.67-0.02,5.35,0,8.02
			c0.01,1.11-0.11,2.14-0.57,3.19c-1.23,2.78-2.33,5.62-3.54,8.41c-0.89,2.06,0.78,4.03,2.42,3.92
			C17.49,55.19,19.05,55.28,20.61,55.27z M61.93,55.28c1.56,0,3.12-0.1,4.66,0.03c1.8,0.14,3.36-2.17,2.5-3.76
			c-0.19-0.35-0.32-0.74-0.47-1.11c-1.06-2.56-2.13-5.13-3.19-7.69c-0.26-0.63-0.49-1.26-0.49-1.99c0.03-2.96,0.01-5.93,0.01-8.89
			c0-0.21,0-0.43-0.03-0.63c-0.04-0.26-0.2-0.42-0.46-0.41c-0.25,0.01-0.35,0.19-0.38,0.42c-0.02,0.13-0.02,0.27-0.02,0.4
			c0,3.23,0,6.46,0,9.7c0,0.29,0.02,0.58,0.13,0.85c0.83,2,1.66,3.99,2.5,5.99c0.51,1.22,1.04,2.43,1.52,3.66
			c0.49,1.25-0.28,2.5-1.54,2.51c-3.17,0.02-6.33,0.02-9.5,0c-1.1-0.01-1.89-1.12-1.59-2.21c0.12-0.44,0.33-0.86,0.5-1.28
			c1.13-2.74,2.26-5.49,3.42-8.22c0.19-0.45,0.3-0.9,0.29-1.39c-0.01-3.17,0-6.35,0-9.52c0-0.17,0-0.35-0.02-0.52
			c-0.02-0.21-0.11-0.37-0.34-0.39c-0.21-0.02-0.36,0.08-0.45,0.28c-0.11,0.24-0.09,0.49-0.09,0.74c0,3.08,0,6.16,0,9.23
			c0,0.27,0.02,0.54-0.08,0.8c-0.46,1.11-0.92,2.23-1.38,3.34c-0.9,2.18-1.74,4.38-2.72,6.52c-0.62,1.36,0.7,3.64,2.44,3.56
			C58.74,55.22,60.33,55.28,61.93,55.28z M41.79,65.52c0,0.4-0.01,0.81,0,1.21c0,0.17-0.08,0.41,0.08,0.48
			c0.21,0.1,0.31-0.17,0.43-0.29c0.89-0.93,1.76-1.89,2.65-2.82c0.74-0.78,1.3-1.68,1.81-2.63c1.66-3.12,2.04-6.51,1.99-9.99
			c0-0.11,0.04-0.26-0.08-0.31c-0.16-0.07-0.22,0.09-0.31,0.18c-0.8,0.86-1.6,1.73-2.41,2.57c-0.66,0.69-1.23,1.45-1.73,2.26
			C42.47,59.04,41.79,62.18,41.79,65.52z M33.72,51.02c0.05,1.46-0.07,2.85,0.12,4.25c0.31,2.26,0.88,4.43,1.97,6.45
			c1.12,2.09,2.85,3.64,4.39,5.36c0.07,0.08,0.15,0.21,0.28,0.14c0.11-0.06,0.08-0.2,0.08-0.31c-0.01-1.09-0.02-2.19-0.09-3.28
			c-0.14-2.32-0.75-4.5-1.75-6.57c-1.14-2.38-3.08-4.09-4.8-5.98C33.9,51.05,33.85,51.05,33.72,51.02z M33.75,39.21
			c-0.02,1.3-0.03,2.44,0.07,3.59c0.23,2.65,0.87,5.17,2.15,7.51c0.94,1.72,2.36,3.02,3.62,4.45c0.26,0.29,0.58,0.87,0.83,0.75
			c0.34-0.17,0.12-0.76,0.14-1.17c0.08-2.22-0.19-4.4-0.81-6.54C38.73,44.29,36.27,41.84,33.75,39.21z M41.93,44.15
			c0.59-0.47,0.96-0.97,1.38-1.43c1.05-1.14,2.19-2.2,3.02-3.55c1.4-2.29,2.14-4.81,2.41-7.48c0.09-0.91,0.09-1.84,0.1-2.76
			c0-0.3,0.06-0.75-0.18-0.85c-0.26-0.11-0.45,0.32-0.66,0.51c-0.26,0.25-0.5,0.52-0.74,0.78c-1.11,1.17-2.23,2.33-3.06,3.74
			c-1.35,2.3-2.05,4.82-2.26,7.47C41.85,41.73,41.93,42.88,41.93,44.15z M41.91,55.79c2.09-2.27,4.35-4.26,5.5-7.21
			c1.14-2.9,1.5-5.88,1.3-8.94C43.59,43.73,41.38,49.1,41.91,55.79z M33.89,27.66c-0.2,3.66,0.19,7.04,1.7,10.22
			c1.17,2.47,3.15,4.24,4.98,6.16c0.2-3.09-0.06-6.07-1.15-8.96C38.28,32.11,36.06,30.01,33.89,27.66z M61.98,51
			c-1.22,0-2.43,0-3.65,0c-0.96,0-1.1,0.12-1.31,1.1c-0.1,0.48,0.09,0.79,0.58,0.85c0.35,0.04,0.71,0.04,1.07,0.05
			c2.47,0.07,4.94,0.11,7.41-0.03c0.45-0.03,0.9-0.11,0.88-0.73c-0.03-0.7-0.49-1.24-1.04-1.25C64.6,51,63.29,51,61.98,51z M20.6,51
			c-1.2,0-2.4,0-3.6,0c-0.89,0-0.95,0.05-1.26,0.9c-0.22,0.64,0,1.02,0.66,1.06c2.83,0.16,5.65,0.11,8.48,0
			c0.27-0.01,0.53-0.07,0.66-0.36c0.26-0.59-0.34-1.6-0.96-1.6C23.26,51,21.93,51,20.6,51z"/>
		<path class="st0" d="M269.16,56.32c-3.32,0-6.63,0-9.95,0c-4.31-0.01-7.96-1.63-10.94-4.79c-1.83-1.94-3.03-4.27-3.66-6.9
			c-0.61-2.58-0.5-5.19-0.33-7.8c0.19-3.01,1.31-5.67,3.11-8.01c2.29-2.98,5.28-4.82,8.92-5.56c1.11-0.22,2.22-0.31,3.35-0.31
			c6.35,0,12.7,0.02,19.05-0.01c3.28-0.01,6.29,0.83,9,2.75c2.73,1.93,4.61,4.53,5.67,7.73c0.89,2.67,0.93,5.42,0.77,8.2
			c-0.09,1.49-0.32,2.94-0.8,4.34c-1.16,3.38-3.2,6.06-6.15,7.98c-1.7,1.1-3.55,1.82-5.52,2.17c-0.7,0.13-1.41,0.2-2.12,0.2
			C276.1,56.32,272.63,56.32,269.16,56.32z M269.21,28.99c-3.13,0-6.26,0-9.38,0c-0.73,0-1.45,0.04-2.17,0.17
			c-3.54,0.64-6.43,3.35-7.25,6.94c-0.48,2.08-0.45,4.19-0.15,6.29c0.34,2.38,1.47,4.29,3.27,5.79c1.72,1.43,3.73,2.08,5.94,2.09
			c6.41,0.01,12.81,0,19.22,0.01c2.09,0,4.04-0.52,5.76-1.77c1.88-1.36,3.1-3.2,3.62-5.51c0.33-1.48,0.21-2.98,0.22-4.48
			c0-1.18-0.16-2.33-0.57-3.44c-1.31-3.57-4.65-6.03-8.43-6.08C275.92,28.95,272.56,28.99,269.21,28.99z"/>
		<path class="st0" d="M156.18,43.98c-4.55,0-9.11,0-13.66,0c-0.75,0-0.76,0-0.76,0.77c0,1.73,0,3.46,0,5.19
			c0,1.62-0.35,3.12-1.44,4.37c-1.04,1.19-2.33,1.83-3.87,2c-0.37,0.04-0.58-0.1-0.56-0.51c0-0.02,0-0.04,0-0.06
			c0-6.25-0.08-12.51,0.05-18.75c0.06-2.84,1.19-5.41,2.84-7.71c2-2.78,4.62-4.68,7.84-5.69c1.29-0.4,2.63-0.63,3.98-0.63
			c8.38-0.01,16.75,0,25.13,0c0.88,0,0.9,0.02,0.9,0.95c0,8.77,0,17.54,0,26.32c0,3.18-1.99,5.57-5.06,6.06
			c-0.75,0.12-0.9-0.01-0.9-0.8c0-3.54,0-7.08,0-10.62c0-0.88,0-0.88-0.88-0.88C165.25,43.98,160.72,43.98,156.18,43.98z
			 M156.24,37.93c4.55,0,9.11,0,13.66,0c0.75,0,0.77-0.02,0.77-0.76c0-2.46,0-4.93,0-7.39c0-0.79,0-0.79-0.8-0.79
			c-6.13,0-12.26,0.02-18.38-0.01c-2.11-0.01-4.04,0.46-5.77,1.73c-2.15,1.59-3.51,3.69-3.85,6.43c-0.1,0.79-0.08,0.8,0.71,0.8
			C147.13,37.93,151.68,37.93,156.24,37.93z"/>
		<path class="st0" d="M113.71,43.98c-4.55,0-9.11,0-13.66,0c-0.79,0-0.79,0-0.79,0.79c0,1.87,0,3.73,0,5.6
			c-0.01,3.08-2.17,5.56-5.15,5.93c-0.58,0.07-0.71-0.04-0.71-0.63c0-6.1-0.05-12.2,0.03-18.29c0.04-3.06,1.17-5.82,2.98-8.25
			c2.36-3.16,5.43-5.17,9.28-5.89c0.96-0.18,1.92-0.28,2.9-0.28c8.19,0,16.38,0,24.57,0c0.97,0,0.97,0,0.97,0.99
			c0,8.79-0.01,17.58,0.01,26.37c0.01,3.18-2.27,5.63-5.16,5.98c-0.65,0.08-0.81-0.05-0.81-0.73c0-3.58,0-7.16,0-10.73
			c0-0.85,0-0.85-0.85-0.85C122.77,43.98,118.24,43.98,113.71,43.98z M113.7,37.93c4.57,0,9.14,0,13.71,0
			c0.74,0,0.75-0.01,0.75-0.78c0-2.44,0-4.88,0-7.33c0-0.83,0-0.84-0.8-0.84c-6.39,0-12.77-0.01-19.16,0.01
			c-1.66,0.01-3.2,0.52-4.61,1.44c-2.37,1.56-3.77,3.78-4.27,6.62c-0.13,0.74-0.02,0.88,0.73,0.88
			C104.6,37.93,109.15,37.93,113.7,37.93z"/>
		<path class="st0" d="M197.98,22.95c6.17,0,12.33,0,18.5,0c0.15,0,0.3-0.01,0.45,0c0.14,0.01,0.34-0.04,0.4,0.13
			c0.07,0.21-0.13,0.3-0.27,0.39c-2.16,1.35-3.98,3.07-5.36,5.24c-0.11,0.18-0.27,0.26-0.47,0.26c-0.22,0-0.45,0.01-0.67,0.01
			c-8.43,0-16.87,0-25.3,0c-0.86,0-0.86,0-0.86,0.89c0,2.42,0,4.85,0,7.27c0,0.78,0,0.78,0.75,0.78c7.66,0,15.33,0.01,22.99-0.01
			c0.54,0,0.68,0.18,0.66,0.69c-0.11,2.93-2.53,5.34-5.13,5.36c-6.13,0.05-12.26,0.02-18.38,0.02c-0.88,0-0.89,0-0.89,0.92
			c0,1.83-0.07,3.66,0.02,5.48c0.1,2.19-1.7,4.83-3.83,5.52c-0.45,0.14-0.88,0.31-1.35,0.38c-0.64,0.1-0.78-0.02-0.8-0.66
			c0-0.13,0-0.27,0-0.4c0-10.39,0-20.78,0-31.17c0-0.17,0-0.35,0-0.52c0-0.37,0.17-0.58,0.55-0.57c0.19,0,0.37,0,0.56,0
			C185.68,22.95,191.83,22.95,197.98,22.95z"/>
		<path class="st0" d="M237.55,56.32c-3.84,0-7.68-0.02-11.52,0c-4.55,0.02-8.38-1.67-11.44-5.09c-2.19-2.45-3.48-5.35-3.78-8.69
			c-0.24-2.65-0.3-5.32,0.35-7.91c0.9-3.62,2.87-6.56,5.83-8.77c1.99-1.48,4.23-2.37,6.65-2.76c0.64-0.1,1.3-0.14,1.96-0.14
			c8.13-0.01,16.26-0.01,24.4,0c0.25,0,0.63-0.13,0.72,0.14c0.1,0.34-0.32,0.4-0.54,0.55c-1.91,1.26-3.57,2.8-4.84,4.74
			c-0.29,0.45-0.63,0.61-1.16,0.61c-6.11-0.02-12.22-0.05-18.32,0c-3.64,0.03-6.36,1.78-8.13,5.05c-0.74,1.35-1.09,2.82-1.07,4.37
			c0.02,1.31-0.09,2.61,0.11,3.92c0.31,2.05,1.21,3.77,2.62,5.23c1.91,1.97,4.27,2.73,6.93,2.72c5.94-0.02,11.88,0,17.82-0.02
			c0.58,0,0.91,0.21,1.23,0.69c1.26,1.9,2.86,3.45,4.76,4.66c0.23,0.15,0.64,0.26,0.58,0.53c-0.07,0.33-0.48,0.17-0.74,0.17
			C245.84,56.32,241.7,56.32,237.55,56.32z"/>
		<path class="st0" d="M162.55,66.08c0-0.85,0-1.69,0-2.54c0-0.74,0.38-1.01,1.03-0.7c0.22,0.1,0.34,0.12,0.55,0.01
			c0.59-0.32,1.21-0.29,1.77,0.05c0.27,0.16,0.44,0.16,0.71,0.01c1.23-0.72,2.57,0.04,2.6,1.49c0.03,1.48,0,2.96,0.02,4.44
			c0.01,0.6-0.35,0.62-0.78,0.63c-0.42,0-0.73-0.06-0.73-0.62c0.02-1.23,0.01-2.46,0-3.69c0-0.44,0.02-1.06-0.5-1.08
			c-0.56-0.02-0.57,0.61-0.58,1.07c-0.01,1.19,0,2.39-0.01,3.58c0,0.62-0.14,0.71-0.79,0.74c-0.55,0.02-0.73-0.22-0.71-0.76
			c0.02-1.1,0.02-2.19,0-3.29c-0.01-0.34-0.07-0.69-0.13-1.03c-0.04-0.2-0.15-0.37-0.38-0.36c-0.2,0.01-0.36,0.14-0.41,0.34
			c-0.05,0.22-0.07,0.46-0.07,0.68c-0.01,1.21,0,2.42-0.01,3.64c-0.01,0.65-0.15,0.78-0.83,0.77c-0.64-0.01-0.74-0.11-0.74-0.78
			C162.55,67.81,162.55,66.95,162.55,66.08z"/>
		<path class="st0" d="M262.98,65.08c-0.05,0.73,0.09,1.67-0.09,2.61c-0.22,1.17-0.91,1.73-2.05,1.81
			c-2.39,0.17-2.84-1.18-2.82-2.89c0.02-1.54-0.14-3.08,0.1-4.61c0.18-1.19,0.87-1.77,2.05-1.8c0.09,0,0.19,0,0.28,0
			c1.71-0.01,2.47,0.72,2.54,2.49C263.01,63.41,262.98,64.14,262.98,65.08z M259.61,64.86c0.01,0,0.01,0,0.02,0
			c0,0.77-0.04,1.54,0.01,2.3c0.05,0.78,0.58,1.14,1.22,0.88c0.5-0.2,0.51-0.68,0.52-1.11c0.02-1.38,0.01-2.76,0-4.14
			c0-0.23-0.05-0.46-0.11-0.68c-0.09-0.39-0.37-0.56-0.74-0.57c-0.38-0.01-0.65,0.17-0.79,0.52c-0.11,0.27-0.13,0.56-0.13,0.85
			C259.61,63.55,259.61,64.2,259.61,64.86z"/>
		<path class="st0" d="M97.18,69.46c-0.78,0-0.84-0.06-0.98-0.85c-0.06-0.32,0.03-0.81-0.31-0.92c-0.55-0.17-1.15-0.12-1.72-0.01
			c-0.12,0.02-0.15,0.16-0.18,0.27c-0.06,0.22-0.12,0.44-0.18,0.67c-0.2,0.8-0.66,1.05-1.44,0.82c-0.36-0.11-0.33-0.36-0.26-0.64
			c0.32-1.22,0.64-2.45,0.96-3.67c0.39-1.46,0.81-2.92,1.18-4.39c0.13-0.53,0.48-0.49,0.86-0.51c0.39-0.02,0.62,0.12,0.72,0.54
			c0.68,2.67,1.39,5.34,2.08,8.02C98.05,69.36,97.94,69.46,97.18,69.46z M95.12,63.32c-0.06-0.01-0.11-0.02-0.17-0.03
			c-0.17,0.82-0.37,1.63-0.48,2.45c-0.07,0.49,0.36,0.37,0.64,0.39c0.31,0.02,0.62-0.06,0.51-0.47
			C95.4,64.89,95.28,64.1,95.12,63.32z"/>
		<path class="st0" d="M161.27,69.46c-0.77,0-0.81-0.04-0.97-0.8c-0.07-0.34,0.03-0.85-0.34-0.97c-0.53-0.18-1.12-0.16-1.66,0
			c-0.37,0.11-0.3,0.59-0.39,0.9c-0.25,0.83-0.6,1.06-1.43,0.85c-0.4-0.1-0.36-0.37-0.28-0.67c0.33-1.26,0.65-2.53,0.99-3.79
			c0.38-1.43,0.8-2.84,1.16-4.27c0.13-0.51,0.47-0.46,0.82-0.47c0.38-0.02,0.63,0.08,0.74,0.52c0.51,2.03,1.04,4.05,1.57,6.07
			c0.15,0.59,0.32,1.19,0.46,1.78C162.13,69.4,162.08,69.46,161.27,69.46z M159.14,63.31c-0.32,0.8-0.52,1.62-0.58,2.45
			c-0.04,0.59,0.52,0.32,0.81,0.4c0.32,0.09,0.41-0.16,0.34-0.41C159.48,64.95,159.39,64.11,159.14,63.31z"/>
		<path class="st0" d="M220.03,64.85c0,1.27,0,2.54,0,3.8c0,0.72-0.33,0.98-0.99,0.74c-0.27-0.1-0.46-0.06-0.73,0
			c-1.17,0.27-1.98,0.09-2.32-1.12c-0.4-1.47-0.38-2.97-0.02-4.44c0.23-0.94,0.97-1.35,1.97-1.14c0.42,0.09,0.54-0.01,0.51-0.43
			c-0.02-0.44-0.01-0.88,0-1.33c0.02-0.62,0.15-0.7,0.88-0.71c0.5-0.01,0.71,0.18,0.7,0.71C220.01,62.24,220.03,63.55,220.03,64.85z
			 M218.41,66.09C218.41,66.09,218.41,66.09,218.41,66.09c0-0.48,0.03-0.96-0.01-1.44c-0.03-0.32-0.21-0.63-0.56-0.6
			c-0.3,0.02-0.48,0.3-0.48,0.62c-0.01,0.92-0.01,1.84,0,2.77c0.01,0.34,0.18,0.61,0.54,0.61c0.35,0.01,0.49-0.28,0.51-0.58
			C218.43,67.02,218.41,66.55,218.41,66.09z"/>
		<path class="st0" d="M223.39,64.66c0.02-0.77-0.04-1.69,0.09-2.61c0.16-1.12,0.84-1.79,1.95-1.85c0.85-0.04,1.65,0.04,2.2,0.85
			c0.33,0.48,0.39,1.03,0.45,1.58c0.02,0.14-0.04,0.26-0.18,0.33c-0.46,0.27-1.17-0.01-1.32-0.52c-0.05-0.17-0.11-0.33-0.17-0.49
			c-0.1-0.28-0.29-0.43-0.59-0.43c-0.31,0-0.51,0.14-0.62,0.41c-0.08,0.19-0.15,0.4-0.16,0.61c-0.06,1.61-0.13,3.22,0.03,4.84
			c0.05,0.49,0.29,0.72,0.77,0.71c0.5-0.02,0.73-0.32,0.79-0.8c0.1-0.76,0.5-1.01,1.22-0.78c0.23,0.07,0.34,0.22,0.32,0.47
			c-0.08,0.96-0.33,1.87-1.26,2.29c-0.87,0.4-1.79,0.41-2.62-0.17c-0.8-0.56-0.85-1.45-0.9-2.31
			C223.37,66.13,223.39,65.47,223.39,64.66z"/>
		<path class="st0" d="M234.53,66.03c0-0.81,0-1.62,0-2.42c0-0.83,0.4-1.1,1.15-0.74c0.19,0.09,0.28,0.07,0.44-0.01
			c1.31-0.63,2.57,0.09,2.65,1.59c0.08,1.5,0.03,3,0.03,4.5c0,0.56-0.4,0.5-0.76,0.51c-0.42,0.01-0.81-0.02-0.81-0.61
			c0-1.21,0-2.42-0.01-3.64c0-0.23,0-0.47-0.05-0.69c-0.06-0.26-0.22-0.48-0.49-0.49c-0.27-0.01-0.45,0.2-0.5,0.47
			c-0.04,0.22-0.06,0.46-0.07,0.69c-0.01,1.17,0,2.35-0.01,3.52c0,0.67-0.09,0.75-0.76,0.75c-0.69,0-0.81-0.11-0.82-0.78
			C234.52,67.8,234.53,66.92,234.53,66.03z"/>
		<path class="st0" d="M125.57,67.04c0,0.6,0,1.19,0,1.79c0,0.44-0.22,0.7-0.62,0.62c-0.68-0.14-1.33,0.08-1.99,0.05
			c-0.91-0.04-1.34-0.35-1.57-1.25c-0.18-0.71-0.12-1.41,0.16-2.09c0.15-0.36,0.41-0.6,0.79-0.67c0.35-0.07,0.7-0.1,1.05-0.15
			c0.23-0.03,0.52,0.04,0.58-0.31c0.05-0.33,0.04-0.67-0.23-0.91c-0.31-0.27-0.55-0.14-0.71,0.2c-0.23,0.51-0.77,0.74-1.29,0.55
			c-0.2-0.07-0.22-0.23-0.24-0.41c-0.05-0.77,0.44-1.48,1.17-1.69c1.4-0.4,2.54,0.15,2.75,1.36c0.08,0.47,0.11,0.95,0.13,1.43
			C125.59,66.04,125.57,66.54,125.57,67.04C125.57,67.04,125.57,67.04,125.57,67.04z M124,67.47c-0.01-0.5,0.07-0.89-0.47-0.88
			c-0.43,0.01-0.73,0.33-0.73,0.83c0,0.43,0.19,0.81,0.62,0.8C123.94,68.21,124.02,67.76,124,67.47z"/>
		<path class="st0" d="M284.57,66.71c0,0.8-0.01,1.43,0,2.07c0.01,0.45-0.2,0.77-0.63,0.66c-0.68-0.18-1.32,0.09-1.99,0.06
			c-0.93-0.04-1.43-0.43-1.62-1.35c-0.1-0.47-0.1-0.96,0.01-1.43c0.2-0.88,0.6-1.23,1.47-1.32c0.19-0.02,0.37-0.04,0.56-0.06
			c0.21-0.03,0.49,0.05,0.56-0.25c0.07-0.3,0.09-0.62-0.12-0.89c-0.27-0.36-0.64-0.28-0.87,0.19c-0.22,0.44-0.85,0.67-1.29,0.47
			c-0.11-0.05-0.21-0.14-0.19-0.26c0.07-0.43,0.06-0.91,0.35-1.25c0.63-0.73,1.45-0.81,2.32-0.61c0.78,0.17,1.13,0.76,1.3,1.5
			C284.65,65.1,284.54,65.99,284.57,66.71z M282.97,67.33C282.97,67.33,282.98,67.33,282.97,67.33c0.01-0.06,0.01-0.11,0.01-0.17
			c-0.01-0.22,0.03-0.49-0.27-0.55c-0.28-0.05-0.6-0.06-0.74,0.25c-0.16,0.37-0.2,0.79,0.04,1.15c0.12,0.19,0.33,0.32,0.58,0.18
			c0.21-0.11,0.38-0.25,0.38-0.52C282.97,67.56,282.97,67.44,282.97,67.33z"/>
		<path class="st0" d="M192.7,66.12c0-0.85,0-1.69,0-2.54c0-0.76,0.26-0.99,0.97-0.77c0.32,0.1,0.55,0.06,0.85-0.05
			c1.17-0.43,2.22,0.22,2.37,1.49c0.18,1.55,0.06,3.11,0.07,4.67c0,0.6-0.48,0.53-0.87,0.54c-0.4,0.01-0.7-0.1-0.69-0.61
			c0.01-1.25,0-2.5,0-3.75c0-0.44,0.04-1.04-0.52-1.05c-0.57-0.01-0.58,0.6-0.59,1.06c-0.01,1.19,0,2.39-0.01,3.58
			c-0.01,0.64-0.14,0.76-0.77,0.76c-0.65,0-0.79-0.12-0.79-0.75C192.69,67.85,192.7,66.98,192.7,66.12z"/>
		<path class="st0" d="M191.58,66.99c0,0.62,0,1.23,0,1.85c0,0.4-0.19,0.69-0.57,0.6c-0.7-0.16-1.36,0.08-2.05,0.06
			c-1.01-0.04-1.52-0.52-1.58-1.55c-0.01-0.12-0.01-0.23-0.01-0.35c-0.02-1.73,0.29-2.09,1.95-2.26c0.66-0.07,0.88-0.51,0.54-1.08
			c-0.11-0.18-0.24-0.29-0.45-0.28c-0.2,0.02-0.29,0.16-0.36,0.32c-0.24,0.52-0.75,0.74-1.28,0.56c-0.2-0.07-0.24-0.22-0.25-0.4
			c-0.01-0.38,0.09-0.72,0.29-1.04c0.44-0.67,1.39-0.95,2.39-0.7c0.75,0.19,1.17,0.71,1.28,1.56
			C191.59,65.18,191.59,66.09,191.58,66.99z M190,67.31c-0.01-0.34,0.07-0.74-0.47-0.71c-0.52,0.02-0.64,0.39-0.66,0.83
			c-0.02,0.45,0.27,0.87,0.6,0.82C189.99,68.15,190.01,67.73,190,67.31z"/>
		<path class="st0" d="M108.57,66.13c0.01-0.74-0.03-1.37,0.11-2c0.21-0.94,0.83-1.45,1.87-1.48c1.19-0.04,1.88,0.38,2.12,1.36
			c0.32,1.28,0.34,2.6,0.06,3.87c-0.31,1.36-0.74,1.62-2.12,1.61c-1.18,0-1.73-0.49-1.96-1.69
			C108.53,67.21,108.61,66.62,108.57,66.13z M110.17,66.06C110.17,66.06,110.17,66.06,110.17,66.06c0,0.52-0.01,1.04,0,1.55
			c0.01,0.31,0.16,0.52,0.47,0.53c0.32,0.01,0.57-0.15,0.59-0.49c0.07-1.05,0.09-2.11-0.01-3.16c-0.03-0.3-0.22-0.54-0.56-0.53
			c-0.36,0.01-0.48,0.28-0.49,0.59C110.16,65.06,110.17,65.56,110.17,66.06z"/>
		<path class="st0" d="M210.55,66.12c0.03-0.61-0.04-1.23,0.09-1.84c0.24-1.09,0.86-1.63,1.92-1.64c1.23-0.01,1.91,0.48,2.13,1.6
			c0.1,0.51,0.17,1.02,0.14,1.55c-0.03,0.67-0.12,0.78-0.76,0.79c-0.49,0.01-0.97,0-1.46,0c-0.3,0-0.62,0.01-0.56,0.43
			c0.05,0.41-0.07,0.96,0.49,1.11c0.37,0.1,0.63-0.1,0.72-0.53c0.09-0.41,0.53-0.55,1.11-0.42c0.44,0.1,0.34,0.43,0.29,0.73
			c-0.18,1.04-0.7,1.51-1.63,1.58c-1.62,0.12-2.08-0.54-2.36-1.42C210.48,67.43,210.58,66.77,210.55,66.12z M212.66,65.29
			c0.61,0,0.68-0.04,0.67-0.38c-0.02-0.6-0.28-0.98-0.68-0.94c-0.57,0.05-0.51,0.54-0.56,0.91
			C212.01,65.39,212.42,65.26,212.66,65.29z"/>
		<path class="st0" d="M145.91,66.11c-0.01-0.67-0.04-1.35,0.11-2.01c0.21-0.93,0.85-1.43,1.9-1.45c1.18-0.03,1.83,0.39,2.06,1.36
			c0.34,1.41,0.32,2.82-0.01,4.22c-0.16,0.7-0.81,1.24-1.51,1.25c-0.48,0.01-0.98,0.1-1.44-0.11c-0.81-0.37-1.04-1.11-1.1-1.93
			C145.88,67,145.91,66.55,145.91,66.11z M147.5,66.07C147.5,66.07,147.49,66.07,147.5,66.07c-0.01,0.48-0.01,0.96-0.01,1.44
			c0,0.31,0.09,0.59,0.44,0.63c0.37,0.04,0.58-0.19,0.61-0.53c0.1-1.03,0.12-2.07-0.02-3.1c-0.04-0.3-0.18-0.56-0.54-0.54
			c-0.36,0.02-0.47,0.3-0.48,0.6C147.49,65.07,147.5,65.57,147.5,66.07z"/>
		<path class="st0" d="M170.33,66.05c-0.06-0.6,0.02-1.18,0.1-1.75c0.15-1.02,0.83-1.63,1.84-1.66c1.26-0.04,1.9,0.43,2.15,1.54
			c0.14,0.61,0.18,1.21,0.16,1.83c-0.01,0.38-0.18,0.56-0.56,0.56c-0.54-0.01-1.09,0.01-1.63,0c-0.31,0-0.51,0.11-0.5,0.46
			c0.02,0.41-0.11,0.9,0.41,1.08c0.35,0.13,0.57-0.12,0.7-0.42c0.12-0.26,0.14-0.53,0.53-0.56c0.86-0.06,1.01,0.08,0.86,0.95
			c-0.15,0.84-0.71,1.34-1.55,1.38c-0.19,0.01-0.37,0.01-0.56,0c-1.06-0.01-1.72-0.59-1.86-1.68
			C170.35,67.22,170.27,66.63,170.33,66.05z M172.42,65.29c0.39-0.01,0.71-0.03,0.68-0.51c-0.02-0.48-0.3-0.85-0.67-0.82
			c-0.49,0.04-0.5,0.42-0.53,0.79C171.86,65.2,172.09,65.33,172.42,65.29z"/>
		<path class="st0" d="M233.4,66.09c-0.01,0.67,0.08,1.34-0.08,2.01c-0.23,0.9-0.78,1.36-1.69,1.39c-0.22,0.01-0.45,0.01-0.67,0
			c-0.83-0.02-1.39-0.44-1.6-1.26c-0.34-1.38-0.36-2.78-0.03-4.16c0.25-1.03,0.9-1.44,2.08-1.42c1.08,0.02,1.67,0.48,1.91,1.5
			c0.03,0.13,0.07,0.26,0.08,0.39C233.41,65.06,233.4,65.57,233.4,66.09z M231.93,66.02c-0.02-0.46,0.05-0.99-0.11-1.52
			c-0.09-0.29-0.19-0.56-0.55-0.53c-0.33,0.03-0.5,0.28-0.52,0.58c-0.08,1.03-0.08,2.07,0,3.1c0.02,0.29,0.22,0.5,0.52,0.51
			c0.3,0.01,0.47-0.16,0.55-0.46C231.96,67.17,231.93,66.63,231.93,66.02z"/>
		<path class="st0" d="M137.27,66.12c-0.06,0.65,0.09,1.31-0.12,1.94c-0.35,1.07-0.83,1.42-1.95,1.43c-1.43,0-1.99-0.51-2.14-1.98
			c-0.02-0.15-0.06-0.3-0.06-0.46c-0.04-0.96-0.04-1.92,0.1-2.87c0.13-0.88,0.81-1.47,1.72-1.54c1.2-0.09,1.9,0.32,2.24,1.19
			C137.36,64.59,137.21,65.36,137.27,66.12z M135.76,66.12C135.76,66.12,135.76,66.12,135.76,66.12c0.01-0.44,0.04-0.89,0-1.32
			c-0.04-0.39-0.17-0.81-0.64-0.8c-0.46,0.01-0.53,0.42-0.54,0.8c-0.01,0.86-0.01,1.73,0,2.59c0,0.37,0.07,0.74,0.5,0.77
			c0.44,0.03,0.63-0.33,0.67-0.71C135.79,67.01,135.76,66.56,135.76,66.12z"/>
		<path class="st0" d="M251.61,66.12c-0.02,0.71,0.06,1.42-0.17,2.12c-0.26,0.79-0.8,1.23-1.63,1.25c-0.21,0.01-0.41,0-0.62,0
			c-0.96-0.02-1.62-0.62-1.75-1.6c-0.16-1.21-0.16-2.41,0-3.62c0.12-0.93,0.77-1.53,1.71-1.61c1.22-0.1,1.94,0.3,2.27,1.24
			C251.68,64.63,251.59,65.38,251.61,66.12z M248.92,66.11C248.92,66.11,248.92,66.11,248.92,66.11c0,0.44-0.01,0.88,0,1.33
			c0.01,0.35,0.1,0.67,0.5,0.72c0.4,0.04,0.61-0.29,0.64-0.6c0.11-0.99,0.14-1.99-0.02-2.98c-0.04-0.28-0.17-0.63-0.57-0.59
			c-0.43,0.04-0.53,0.39-0.55,0.75C248.91,65.19,248.92,65.65,248.92,66.11z"/>
		<path class="st0" d="M200.44,64.81c0-1.29,0.02-2.57-0.01-3.86c-0.01-0.56,0.2-0.74,0.72-0.72c0.93,0.03,1.87,0.02,2.81,0
			c0.49-0.01,0.66,0.2,0.66,0.69c0,0.5-0.15,0.76-0.68,0.73c-0.47-0.03-0.94,0.01-1.4-0.01c-0.36-0.01-0.5,0.16-0.49,0.52
			c0.01,0.5,0.01,1,0,1.5c-0.01,0.34,0.13,0.49,0.47,0.48c0.34-0.01,0.67,0.02,1.01,0c0.5-0.03,0.65,0.2,0.66,0.68
			c0.01,0.51-0.16,0.75-0.68,0.72c-0.32-0.02-0.64,0.01-0.95,0c-0.36-0.01-0.51,0.15-0.5,0.52c0.01,0.88,0.01,1.77,0,2.65
			c0,0.66-0.11,0.75-0.83,0.75c-0.68,0-0.77-0.08-0.77-0.73C200.44,67.42,200.44,66.11,200.44,64.81z"/>
		<path class="st0" d="M138.4,66.07c0-0.85,0-1.69,0-2.54c0-0.73,0.39-1.01,1.05-0.69c0.25,0.12,0.38,0.09,0.59-0.02
			c1.17-0.58,2.45,0.13,2.5,1.45c0.07,1.55,0.03,3.11,0.03,4.67c0,0.6-0.44,0.5-0.8,0.52c-0.4,0.02-0.7-0.07-0.69-0.59
			c0.01-1.19,0-2.38,0-3.58c0-0.29-0.01-0.58-0.12-0.85c-0.08-0.21-0.19-0.4-0.42-0.42c-0.23-0.02-0.36,0.17-0.45,0.37
			c-0.13,0.3-0.21,0.61-0.21,0.95c0.01,1.11,0.01,2.23,0,3.34c0,0.71-0.06,0.77-0.72,0.77c-0.68,0-0.77-0.08-0.77-0.8
			C138.39,67.8,138.4,66.93,138.4,66.07z"/>
		<path class="st0" d="M205.38,66.06c0.02-0.69-0.08-1.38,0.11-2.07c0.25-0.91,0.9-1.36,1.97-1.35c1.04,0.01,1.67,0.45,1.91,1.35
			c0.19,0.72,0.11,1.45,0.11,2.18c0,0.34-0.24,0.4-0.51,0.4c-0.56,0-1.12,0.01-1.69,0c-0.31,0-0.51,0.1-0.49,0.46
			c0.03,0.44,0.04,0.93,0.56,1.08c0.37,0.11,0.53-0.15,0.63-0.49c0.13-0.45,0.53-0.61,1.13-0.46c0.47,0.12,0.35,0.48,0.31,0.79
			c-0.15,0.98-0.75,1.51-1.74,1.52c-0.39,0-0.79,0.06-1.17-0.09c-0.78-0.32-1.08-0.98-1.13-1.77
			C205.35,67.1,205.38,66.58,205.38,66.06z M207.41,65.29c0.4,0.06,0.61-0.1,0.59-0.53c-0.03-0.4-0.07-0.81-0.58-0.79
			c-0.59,0.03-0.53,0.55-0.57,0.94C206.78,65.38,207.16,65.26,207.41,65.29z"/>
		<path class="st0" d="M290.55,69.49c-1.24,0.13-2.14-0.75-2.08-1.85c0.02-0.34,0.1-0.59,0.46-0.57c0.36,0.01,0.85-0.2,0.95,0.41
			c0.08,0.5,0.33,0.71,0.8,0.66c0.28-0.03,0.49-0.18,0.56-0.48c0.07-0.29-0.01-0.53-0.24-0.72c-0.26-0.22-0.58-0.25-0.89-0.33
			c-1.38-0.36-1.67-1.36-1.48-2.55c0.15-0.95,0.87-1.44,1.96-1.4c1.01,0.03,1.72,0.58,1.82,1.45c0.03,0.28,0.15,0.7-0.28,0.75
			c-0.38,0.04-0.89,0.27-1.12-0.33c-0.01-0.02-0.01-0.04-0.02-0.05c-0.09-0.27-0.21-0.52-0.54-0.48c-0.21,0.03-0.34,0.18-0.36,0.38
			c-0.04,0.3-0.09,0.62,0.24,0.82c0.26,0.15,0.54,0.26,0.83,0.34c1.2,0.29,1.64,1.01,1.48,2.41c-0.11,0.99-0.79,1.55-1.89,1.56
			C290.7,69.49,290.62,69.49,290.55,69.49z"/>
		<path class="st0" d="M105.61,69.49c-1.36,0.12-2.04-0.82-2.09-1.74c-0.02-0.32-0.03-0.66,0.4-0.68c0.39-0.01,0.86-0.18,1.04,0.4
			c0.02,0.07,0.03,0.15,0.05,0.22c0.11,0.34,0.37,0.48,0.7,0.46c0.3-0.02,0.54-0.17,0.59-0.51c0.06-0.36-0.02-0.65-0.38-0.8
			c-0.47-0.2-0.97-0.26-1.42-0.54c-0.62-0.38-1-1.33-0.83-2.16c0.18-0.88,0.74-1.42,1.57-1.48c0.67-0.05,1.31,0.01,1.82,0.55
			c0.28,0.29,0.43,0.63,0.42,1.03c-0.01,0.24,0.06,0.57-0.27,0.6c-0.36,0.03-0.8,0.24-1.05-0.26c-0.03-0.07-0.06-0.14-0.1-0.2
			c-0.12-0.2-0.23-0.41-0.5-0.4c-0.22,0.01-0.34,0.16-0.4,0.35c-0.07,0.27-0.09,0.54,0.13,0.75c0.24,0.23,0.54,0.36,0.86,0.41
			c1.41,0.23,1.73,1.32,1.62,2.28C107.65,68.96,106.96,69.49,105.61,69.49z"/>
		<path class="st0" d="M100.64,69.49c-1.31,0-1.98-0.5-2.15-1.56c-0.06-0.36-0.13-0.75,0.39-0.86c0.59-0.12,0.89,0.02,1.05,0.53
			c0.15,0.46,0.5,0.67,0.9,0.52c0.43-0.16,0.48-0.5,0.4-0.89c-0.06-0.29-0.29-0.39-0.53-0.46c-0.34-0.1-0.68-0.21-1-0.36
			c-0.76-0.37-1.16-1.02-1.12-1.88c0.04-0.84,0.51-1.55,1.15-1.76c0.89-0.29,1.99-0.04,2.44,0.57c0.27,0.37,0.28,0.83,0.3,1.27
			c0.01,0.22-0.19,0.29-0.36,0.26c-0.33-0.04-0.73,0.18-0.97-0.23c-0.04-0.07-0.05-0.15-0.08-0.21c-0.11-0.23-0.21-0.47-0.52-0.44
			c-0.23,0.03-0.37,0.18-0.44,0.4c-0.08,0.27-0.06,0.53,0.18,0.74c0.33,0.29,0.75,0.34,1.14,0.46c0.85,0.26,1.28,0.83,1.32,1.72
			c0.04,1.03-0.37,1.76-1.17,2.09C101.24,69.51,100.91,69.47,100.64,69.49z"/>
		<path class="st0" d="M184.04,66.11c0,0.46,0,0.92,0,1.38c0,0.31,0.07,0.6,0.42,0.65c0.35,0.05,0.49-0.22,0.6-0.5
			c0.22-0.55,0.49-0.7,1.06-0.57c0.21,0.05,0.37,0.16,0.36,0.38c-0.03,0.63-0.04,1.3-0.65,1.69c-1.09,0.69-3.09,0.66-3.33-1.41
			c-0.13-1.09-0.13-2.19,0-3.28c0.19-1.56,1.66-2.3,3.04-1.59c0.66,0.34,1.04,1.18,0.88,1.9c-0.07,0.31-0.29,0.33-0.51,0.32
			c-0.31-0.02-0.71,0.15-0.85-0.34c-0.1-0.35-0.13-0.82-0.61-0.73c-0.49,0.09-0.39,0.58-0.41,0.95
			C184.02,65.34,184.04,65.72,184.04,66.11C184.04,66.11,184.04,66.11,184.04,66.11z"/>
		<path class="st0" d="M274.46,66.11c0,0.46-0.01,0.92,0,1.38c0.01,0.31,0.09,0.6,0.43,0.65c0.37,0.05,0.55-0.23,0.62-0.54
			c0.07-0.29,0.15-0.51,0.48-0.53c0.95-0.06,1.07,0.1,0.88,0.97c-0.21,0.94-0.73,1.43-1.67,1.45c-1.49,0.04-2.12-0.45-2.28-1.97
			c-0.12-1.08-0.14-2.19,0.05-3.28c0.12-0.73,0.49-1.3,1.22-1.5c0.79-0.21,1.56-0.18,2.21,0.45c0.44,0.43,0.48,0.98,0.43,1.55
			c-0.02,0.28-0.23,0.34-0.45,0.33c-0.29-0.02-0.66,0.15-0.83-0.27c-0.04-0.11-0.07-0.22-0.12-0.32c-0.11-0.24-0.21-0.55-0.54-0.47
			c-0.32,0.07-0.42,0.35-0.43,0.67C274.45,65.14,274.46,65.62,274.46,66.11z"/>
		<path class="st0" d="M115.36,66.03c0.02,0.55-0.05,1.07,0.12,1.57c0.09,0.26,0.17,0.54,0.5,0.54c0.31,0,0.43-0.23,0.5-0.52
			c0.13-0.51,0.86-0.77,1.3-0.49c0.1,0.07,0.15,0.16,0.17,0.28c0.16,0.99-0.6,2.01-1.57,2.06c-0.43,0.02-0.86,0.07-1.28-0.08
			c-0.88-0.3-1.12-1.1-1.17-1.87c-0.08-1.2-0.19-2.41,0.14-3.6c0.12-0.42,0.32-0.72,0.66-0.96c1.21-0.85,2.94-0.17,3.17,1.27
			c0.05,0.32,0.15,0.72-0.35,0.83c-0.62,0.13-0.98-0.03-1.1-0.52c-0.07-0.28-0.18-0.53-0.48-0.55c-0.34-0.03-0.4,0.28-0.49,0.53
			C115.29,65.02,115.39,65.55,115.36,66.03z"/>
		<path class="st0" d="M268.82,66.76c0,0.67-0.01,1.34,0,2.02c0.01,0.59-0.33,0.69-0.8,0.69c-0.49,0-0.79-0.13-0.78-0.71
			c0.02-1.29,0-2.57,0-3.86c0-0.33,0-0.62-0.3-0.87c-0.27-0.22-0.25-1,0.02-1.2c0.24-0.18,0.27-0.38,0.28-0.64
			c0.01-0.19,0.04-0.38,0.07-0.57c0.15-1.09,1.06-1.67,2.09-1.35c0.32,0.1,0.31,0.34,0.31,0.59c0,0.29,0.01,0.62-0.38,0.65
			c-0.52,0.03-0.51,0.39-0.52,0.77c-0.01,0.39,0.18,0.5,0.52,0.5c0.37,0.01,0.4,0.29,0.39,0.57c-0.01,0.31,0.1,0.74-0.36,0.77
			c-0.51,0.04-0.56,0.33-0.55,0.74C268.83,65.49,268.82,66.12,268.82,66.76C268.82,66.76,268.82,66.76,268.82,66.76z"/>
		<path class="st0" d="M151.52,66.73c0-0.6,0-1.19,0-1.79c0-0.37,0.02-0.69-0.4-0.91c-0.32-0.17-0.24-1.08,0.1-1.24
			c0.26-0.13,0.3-0.31,0.3-0.55c0-0.17,0-0.35,0.01-0.52c0.04-1.15,1.01-1.83,2.09-1.46c0.31,0.11,0.29,0.37,0.29,0.61
			c0,0.27,0.02,0.59-0.34,0.62c-0.53,0.04-0.56,0.41-0.55,0.82c0,0.27,0.09,0.46,0.39,0.45c0.45-0.02,0.53,0.25,0.51,0.63
			c-0.01,0.35,0.04,0.74-0.46,0.76c-0.43,0.02-0.45,0.31-0.45,0.64c0,1.31,0,2.62,0,3.92c0,0.68-0.09,0.76-0.75,0.75
			c-0.66,0-0.73-0.08-0.74-0.77C151.51,68.04,151.52,67.39,151.52,66.73z"/>
		<path class="st0" d="M264.42,66.72c0-0.56,0-1.11,0-1.67c0-0.39,0.06-0.77-0.4-1.03c-0.32-0.18-0.21-1.05,0.14-1.24
			c0.23-0.13,0.26-0.3,0.26-0.51c0.01-0.23,0-0.46,0.03-0.69c0.15-1.02,0.96-1.57,1.95-1.32c0.26,0.06,0.33,0.23,0.32,0.46
			c-0.02,0.28,0.14,0.68-0.28,0.78c-0.44,0.1-0.48,0.42-0.52,0.78c-0.04,0.34,0.15,0.44,0.43,0.55c0.37,0.14,0.35,1.11-0.03,1.26
			c-0.4,0.16-0.41,0.43-0.41,0.77c0,1.29-0.01,2.57,0.01,3.86c0.01,0.53-0.16,0.78-0.71,0.76c-0.67-0.03-0.79-0.12-0.8-0.79
			C264.41,68.03,264.42,67.37,264.42,66.72z"/>
		<path class="st0" d="M127,66.3c0-0.44,0-0.88,0-1.32c0-0.38,0.05-0.73-0.43-0.94c-0.36-0.16-0.3-1.1,0.06-1.22
			c0.37-0.13,0.37-0.37,0.37-0.66c0-0.12,0-0.23,0-0.35c0.01-0.84,0.39-1.11,1.17-0.86c0.22,0.07,0.29,0.23,0.3,0.43
			c0.01,0.23,0.02,0.46,0.01,0.69c-0.02,0.4,0.01,0.72,0.54,0.73c0.36,0,0.35,0.34,0.35,0.61c0,0.31,0.02,0.67-0.38,0.72
			c-0.46,0.05-0.52,0.33-0.51,0.72c0.01,0.81,0.01,1.61,0,2.42c-0.01,0.41,0.1,0.69,0.53,0.82c0.55,0.16,0.37,0.64,0.33,1.02
			c-0.03,0.39-0.36,0.38-0.65,0.37c-1.23-0.05-1.68-0.52-1.7-1.77C126.99,67.22,127,66.76,127,66.3z"/>
		<path class="st0" d="M240.13,66.29c0-0.44,0-0.88,0-1.33c0-0.36,0.03-0.69-0.39-0.91c-0.33-0.17-0.26-1.09,0.08-1.25
			c0.29-0.13,0.32-0.34,0.32-0.59c0-0.13,0.01-0.27,0.01-0.4c0.01-0.83,0.38-1.1,1.19-0.87c0.23,0.07,0.29,0.22,0.29,0.43
			c0.01,0.25,0.02,0.5,0,0.75c-0.02,0.39,0.03,0.68,0.53,0.67c0.38-0.01,0.38,0.31,0.37,0.58c-0.01,0.31,0.09,0.73-0.37,0.77
			c-0.47,0.03-0.53,0.3-0.52,0.69c0.01,0.77,0.01,1.54,0,2.31c0,0.45,0.07,0.81,0.59,0.97c0.51,0.15,0.28,0.64,0.28,0.99
			c0,0.33-0.27,0.39-0.53,0.38c-1.31-0.07-1.84-0.52-1.84-1.79C240.13,67.21,240.13,66.75,240.13,66.29z"/>
		<path class="st0" d="M287.27,64.07c0,1.02,0,2.04,0,3.05c0,0.43,0.07,0.76,0.56,0.93c0.54,0.19,0.36,0.71,0.3,1.09
			c-0.06,0.39-0.41,0.32-0.69,0.28c-1.24-0.17-1.58-0.59-1.67-1.87c-0.16-2.21-0.04-4.41-0.08-6.62c-0.01-0.64,0.09-0.7,0.8-0.7
			c0.7,0,0.77,0.07,0.78,0.72C287.28,61.99,287.27,63.03,287.27,64.07C287.27,64.07,287.27,64.07,287.27,64.07z"/>
		<path class="st0" d="M252.75,64.21c0-1.12,0.02-2.23-0.01-3.35c-0.01-0.65,0.38-0.62,0.82-0.63c0.45-0.01,0.69,0.11,0.68,0.64
			c-0.02,1.94,0,3.89-0.01,5.83c0,0.6,0.05,1.12,0.72,1.4c0.44,0.18,0.29,0.67,0.21,1.03c-0.07,0.33-0.37,0.34-0.64,0.3
			c-1.3-0.18-1.67-0.53-1.77-1.99C252.69,66.37,252.75,65.29,252.75,64.21z"/>
		<path class="st0" d="M245.01,66.9c0,0.72-0.02,1.32,0.01,1.91c0.02,0.53-0.25,0.66-0.7,0.65c-0.45-0.01-0.9,0.01-0.9-0.65
			c0-1.29,0-2.57,0-3.86c0-0.44,0-0.88,0-1.32c0-0.82,0.39-1.13,1.13-0.81c0.26,0.11,0.42,0.13,0.64-0.03
			c0.19-0.14,0.42-0.16,0.65-0.14c0.36,0.03,0.78,0.06,0.9,0.45c0.14,0.43-0.23,0.74-0.44,1.07c-0.1,0.15-0.27,0.08-0.41,0
			c-0.39-0.21-0.57-0.01-0.71,0.35C244.86,65.35,245.09,66.2,245.01,66.9z"/>
		<path class="st0" d="M177.17,66.92c0,0.63-0.01,1.27,0,1.9c0.01,0.57-0.34,0.65-0.78,0.65c-0.44,0-0.79-0.07-0.79-0.64
			c0.01-1.83-0.01-3.65,0.01-5.48c0-0.55,0.31-0.73,1.02-0.55c0.29,0.07,0.53,0.08,0.8-0.07c0.2-0.11,0.44-0.1,0.66-0.07
			c0.34,0.04,0.75,0.1,0.82,0.48c0.08,0.41-0.25,0.74-0.49,1.05c-0.08,0.1-0.2,0.06-0.31,0.03c-0.59-0.16-0.82-0.02-0.88,0.62
			c-0.05,0.48-0.03,0.96-0.04,1.44C177.17,66.49,177.18,66.7,177.17,66.92C177.18,66.92,177.18,66.92,177.17,66.92z"/>
		<path class="st0" d="M118.82,66.07c0-0.9,0.02-1.81-0.01-2.71c-0.02-0.57,0.31-0.61,0.73-0.6c0.41,0.01,0.86-0.07,0.85,0.59
			c-0.01,1.81-0.01,3.61,0,5.42c0,0.59-0.32,0.7-0.8,0.69c-0.47,0-0.81-0.08-0.79-0.69C118.83,67.87,118.82,66.97,118.82,66.07z"/>
		<path class="st0" d="M179.76,66.06c0-0.9,0.02-1.81-0.01-2.71c-0.02-0.58,0.32-0.6,0.73-0.59c0.41,0.01,0.86-0.08,0.86,0.59
			c-0.01,1.83-0.01,3.66,0,5.48c0,0.63-0.42,0.62-0.85,0.63c-0.42,0-0.74-0.09-0.73-0.63C179.77,67.91,179.76,66.98,179.76,66.06z"
			/>
		<path class="st0" d="M131.87,66.13c0,0.88-0.02,1.77,0.01,2.65c0.02,0.6-0.32,0.69-0.79,0.69c-0.47,0-0.8-0.1-0.8-0.69
			c0.01-1.8,0.01-3.61,0-5.41c0-0.61,0.37-0.61,0.79-0.6c0.42,0,0.8-0.01,0.79,0.6C131.85,64.28,131.87,65.2,131.87,66.13
			C131.87,66.13,131.87,66.13,131.87,66.13z"/>
		<path class="st0" d="M270.17,66.07c0-0.9,0.01-1.8,0-2.7c-0.01-0.6,0.36-0.61,0.78-0.61c0.41,0,0.8-0.02,0.79,0.6
			c-0.01,1.82-0.01,3.64,0,5.46c0,0.57-0.34,0.65-0.78,0.65c-0.43,0-0.79-0.06-0.79-0.63C270.18,67.91,270.17,66.99,270.17,66.07
			C270.17,66.07,270.17,66.07,270.17,66.07z"/>
		<path class="st0" d="M277.82,66.07c0-0.9,0.01-1.8,0-2.7c-0.01-0.61,0.37-0.61,0.79-0.6c0.42,0,0.79,0,0.79,0.6
			c-0.01,1.82-0.01,3.64,0,5.46c0,0.57-0.35,0.64-0.79,0.64c-0.44,0-0.79-0.07-0.79-0.64C277.82,67.91,277.82,66.99,277.82,66.07z"
			/>
		<path class="st0" d="M180.54,60.21c0.75,0,0.8,0.06,0.8,0.94c0,0.77-0.06,0.82-0.79,0.82c-0.75,0-0.79-0.04-0.79-0.95
			C179.76,60.25,179.79,60.21,180.54,60.21z"/>
		<path class="st0" d="M131.87,61.09c0,0.83-0.05,0.89-0.79,0.89c-0.74,0-0.79-0.06-0.79-0.88c0-0.82,0.05-0.88,0.79-0.88
			C131.84,60.21,131.87,60.24,131.87,61.09z"/>
		<path class="st0" d="M277.82,61.08c0-0.82,0.05-0.87,0.79-0.87c0.73,0,0.78,0.06,0.78,0.89c0,0.81-0.06,0.87-0.8,0.87
			C277.87,61.98,277.81,61.92,277.82,61.08z"/>
		<path class="st0" d="M270.17,61.08c0-0.81,0.05-0.87,0.8-0.87c0.72,0,0.78,0.06,0.77,0.89c0,0.81-0.05,0.87-0.8,0.87
			C270.22,61.97,270.17,61.91,270.17,61.08z"/>
		<path class="st0" d="M118.81,61.08c0-0.81,0.05-0.86,0.81-0.86c0.72,0,0.77,0.06,0.77,0.9c0,0.81-0.06,0.87-0.81,0.86
			C118.86,61.97,118.81,61.91,118.81,61.08z"/>
	</g>
</g>
</svg>
