<?xml version="1.0" encoding="utf-8"?>
<!-- Generator: Adobe Illustrator 27.6.1, SVG Export Plug-In . SVG Version: 6.00 Build 0)  -->
<svg version="1.1" id="Layer_1" xmlns="http://www.w3.org/2000/svg" xmlns:xlink="http://www.w3.org/1999/xlink" x="0px" y="0px"
	 viewBox="0 0 135 102" style="enable-background:new 0 0 135 102;" xml:space="preserve">
<style type="text/css">
	.st0{fill:#EE5A29;}
	.st1{fill:#FFFFFF;}
</style>
<g>
	<g>
		<g>
			<path class="st0" d="M120.26,1.43c-1.07,4.35-4.49,7.77-8.83,8.83c-0.36,0.09-0.36,0.61,0,0.69c4.35,1.07,7.77,4.49,8.83,8.83
				c0.09,0.36,0.61,0.36,0.69,0c1.07-4.35,4.49-7.77,8.83-8.83c0.36-0.09,0.36-0.61,0-0.69c-4.35-1.07-7.77-4.49-8.83-8.83
				C120.87,1.07,120.35,1.07,120.26,1.43z"/>
		</g>
	</g>
	<g>
		<g>
			<g>
				<path class="st1" d="M102.94,20.57c-1.41,0-2.78,0.27-4.1,0.81v-1.54l-7.99,2.34v27.03l7.99-2.1V32.54
					c0.47-2.44,2.19-4.2,4.1-4.2c1.27,0,2.48,0.76,3.3,2.09l0.37,0.6l6.6-4.08l-0.37-0.6C110.6,22.73,106.9,20.57,102.94,20.57z"/>
				<path class="st1" d="M73.33,20.4c-7.99,0-14.48,6.5-14.48,14.48c0,7.99,6.5,14.48,14.48,14.48s14.48-6.5,14.48-14.48
					C87.81,26.9,81.31,20.4,73.33,20.4z M73.33,41.75c-3.79,0-6.87-3.08-6.87-6.87s3.08-6.87,6.87-6.87c3.79,0,6.87,3.08,6.87,6.87
					S77.11,41.75,73.33,41.75z"/>
				<polygon class="st1" points="46.94,49.22 54.91,47.01 54.91,11.62 46.94,13.83 				"/>
				<polygon class="st1" points="116.98,49.19 124.52,47.23 124.52,27.41 116.98,29.37 				"/>
			</g>
			<path class="st1" d="M41.87,26.08v-0.53l-19.24,1.99l0.82,7.94l10.23-1.06c-1.78,4.09-5.83,6.78-10.31,6.78
				c-6.2,0-11.25-5.05-11.25-11.25c0-6.2,5.05-11.25,11.25-11.25c3.47,0,6.81,1.65,8.93,4.41l0.17,0.23l8.39-1.47l-0.29-0.57
				c-3.25-6.45-10-10.62-17.21-10.62c-10.62,0-19.27,8.64-19.27,19.27c0,10.62,8.64,19.27,19.27,19.27
				c8.72,0,16.38-5.89,18.62-14.33l0.13-0.31l-0.06-0.03c0.02-0.08,0.09-0.43,0.09-0.43C42.65,31.27,41.89,26.29,41.87,26.08z"/>
			<g>
				<path class="st1" d="M16.07,53H0.51v34.9l8.48-2.06V75.65h7.08c5.81,0,10.53-5.07,10.53-11.3C26.6,58.12,21.87,53,16.07,53z
					 M16.07,68.63H8.99v-8.56h7.08c1.93,0,3.5,1.92,3.5,4.28C19.57,66.71,18,68.63,16.07,68.63z"/>
				<polygon class="st1" points="73.93,69.29 73.93,61.32 67.75,61.32 67.75,52.92 59.79,54.96 59.79,61.32 53.95,61.32 
					53.95,69.29 59.79,69.29 59.79,87.37 67.75,87.37 67.75,69.29 				"/>
				<path class="st1" d="M104.3,59.28l-0.91-0.01c-3.35,0-5.36,1.28-6.53,2.57c-2.38-1.94-5.33-2.99-8.39-2.99
					c-7.35,0-13.33,5.98-13.33,13.33c0,7.35,5.98,13.33,13.33,13.33c7.35,0,13.33-5.98,13.33-13.33c0-1.81-0.36-3.56-1.08-5.23
					c1.89-0.88,3.78-2.79,3.6-6.96L104.3,59.28z M88.48,67.21c2.74,0,4.97,2.23,4.97,4.97c0,2.74-2.23,4.97-4.97,4.97
					s-4.97-2.23-4.97-4.97C83.51,69.44,85.74,67.21,88.48,67.21z"/>
				<path class="st1" d="M93.93,86.89c-0.23,3.44-2.58,6.16-5.45,6.16c-2.89,0-5.26-2.77-5.45-6.25l-8.09-1.2v0.75
					c0,8.14,6.07,14.77,13.54,14.77c7.46,0,13.54-6.63,13.54-14.77v-0.66L93.93,86.89z"/>
				<path class="st1" d="M119.15,59.24c-7.99,0-14.48,6.5-14.48,14.48c0,7.99,6.5,14.48,14.48,14.48s14.48-6.5,14.48-14.48
					C133.63,65.74,127.13,59.24,119.15,59.24z M119.15,80.6c-3.79,0-6.87-3.08-6.87-6.87s3.08-6.87,6.87-6.87
					c3.79,0,6.87,3.08,6.87,6.87S122.94,80.6,119.15,80.6z"/>
				<path class="st1" d="M45.45,77.79l-0.08,0.03c-0.14,0.21-0.3,0.42-0.46,0.61h-0.02c-0.56,0.66-1.25,1.2-2.04,1.59
					c-0.06,0.03-0.11,0.05-0.17,0.08c-0.11,0.05-0.22,0.1-0.34,0.14c-0.12,0.05-0.25,0.09-0.38,0.13c-0.03,0.01-0.07,0.02-0.11,0.03
					c-2.05,0.58-4.35,0.1-6-1.46l17.05-7.05h0.13c-0.68-3.48-2.73-6.48-5.56-8.4l0.03-0.03c-2.6-1.76-5.7-2.48-8.71-2.18
					c-0.06,0.01-0.13,0.02-0.19,0.03c-0.34,0.04-0.67,0.09-1.01,0.15c-0.14,0.03-0.27,0.06-0.41,0.09c-0.26,0.06-0.52,0.12-0.77,0.2
					c-0.15,0.04-0.3,0.09-0.45,0.14c-0.24,0.08-0.48,0.17-0.71,0.26c-0.15,0.06-0.29,0.12-0.44,0.18c-0.23,0.1-0.46,0.21-0.68,0.33
					c-0.14,0.07-0.28,0.14-0.41,0.21c-0.21,0.12-0.42,0.25-0.63,0.38c-0.14,0.09-0.29,0.17-0.42,0.27c-0.14,0.1-0.28,0.21-0.42,0.32
					c-3.23,2.41-5.33,6.24-5.33,10.57c0,7.27,5.92,13.19,13.19,13.19c1.3,0,2.56-0.2,3.75-0.55c0.03-0.01,0.06-0.02,0.09-0.03
					c0.34-0.1,0.67-0.22,0.99-0.35c0.08-0.03,0.16-0.06,0.25-0.09c0.26-0.11,0.51-0.23,0.75-0.35c0.38-0.18,0.75-0.39,1.11-0.61
					c0.02-0.01,0.05-0.03,0.07-0.04c0.28-0.18,0.56-0.37,0.84-0.57c0,0,0,0,0,0c0.53-0.39,1.04-0.81,1.52-1.29
					c0.93-0.93,1.69-1.97,2.28-3.08L45.45,77.79z M35.72,69.97c0.22-0.22,0.46-0.42,0.7-0.6c0.01-0.01,0.02-0.01,0.03-0.02
					c0.24-0.18,0.49-0.33,0.75-0.47c0.03-0.01,0.06-0.03,0.08-0.04c0.21-0.11,0.42-0.2,0.64-0.28c0.07-0.03,0.15-0.06,0.22-0.08
					c0.22-0.07,0.44-0.14,0.67-0.18c0.12-0.03,0.25-0.04,0.38-0.06c0.13-0.02,0.25-0.04,0.38-0.05c0.16-0.01,0.32-0.02,0.48-0.02
					c0.04,0,0.09,0,0.13,0c0.29,0,0.58,0.02,0.87,0.07c0,0,0.01,0,0.01,0c1.14,0.17,2.17,0.67,3.03,1.37l-10.16,4.19
					C34.06,72.39,34.66,71.03,35.72,69.97z"/>
			</g>
		</g>
	</g>
</g>
</svg>
