<?xml version="1.0" encoding="utf-8"?>
<!-- Generator: Adobe Illustrator 27.6.1, SVG Export Plug-In . SVG Version: 6.00 Build 0)  -->
<svg version="1.1" id="Layer_1" xmlns="http://www.w3.org/2000/svg" xmlns:xlink="http://www.w3.org/1999/xlink" x="0px" y="0px"
	 viewBox="0 0 362.77 96.18" style="enable-background:new 0 0 362.77 96.18;" xml:space="preserve">
<style type="text/css">
	.st0{fill:#494949;}
</style>
<g>
	<path class="st0" d="M171.78,40c-0.12,0.02-0.19,0.02-0.25,0.04c-0.94,0.22-1.62-0.08-1.88-0.83c-0.24-0.68,0.08-1.49,0.75-1.88
		c0.69-0.4,1.62-0.2,2.11,0.46c0.75,1.01,0.57,2.87-0.39,3.95c-1.01,1.13-2.31,1.35-3.72,1.18c-1.91-0.23-3.63-1-5.28-1.95
		c-5.16-2.96-10.66-5.04-16.35-6.62c-4.93-1.37-9.96-2.22-15.05-2.58c-7.67-0.54-15.25,0.05-22.75,1.83
		c-6.23,1.48-12.19,3.73-17.91,6.64c-1.61,0.82-3.21,1.66-4.73,2.63c-0.47,0.3-0.76,0.33-1.17-0.15c-0.85-1-1.84-1.85-2.99-2.48
		c-1.96-1.08-3.76-0.51-4.71,1.53c-1.45,3.13-3.93,4.55-7.24,4.65c-0.1,0-0.21-0.03-0.35,0.14c2.14,2.22,4.64,3.7,7.96,3.9
		c-0.73,0.56-1.39,0.6-2.02,0.61c-0.48,0-0.98-0.08-1.43-0.24c-0.51-0.18-0.88-0.07-1.29,0.24c-1.81,1.35-3.24,2.98-4.07,5.16
		c-0.99,2.59-2.93,4.4-5.19,5.85c-0.67,0.43-1.5,0.43-2.28,0.43c-0.46,0-0.65,0.16-0.63,0.64c0.03,0.75,0.06,1.51-0.01,2.26
		c-0.08,0.86,0.25,1.46,0.84,2.04c3.23,3.21,7.07,4.89,11.6,4.85c1.66-0.02,3.28-0.32,4.87-0.81c1.34-0.42,2.23-0.24,2.86,1.02
		c0.98,1.94,2.64,2.33,4.5,2.4c1.37,0.05,2.76,0.12,4.12,0c1.96-0.17,3.43,0.73,4.79,1.96c2.23,2.02,3.16,4.68,3.48,7.61
		c0.22,2.03,0.06,4.04-0.24,6.05c-0.09,0.63-0.33,0.87-0.98,0.85c-2.18-0.04-4.36-0.03-6.54-0.01c-0.53,0.01-0.72-0.16-0.79-0.72
		c-0.64-5.43-2.62-10.23-6.54-14.08c-1.13-1.11-2.38-2.07-3.77-2.85c4.07,4.09,6.34,9.12,7.59,14.71c-1.72-5.02-4.71-9-9.24-11.74
		c3.94,4.04,6.22,8.96,7.44,14.46c-1.27-3.52-3.14-6.62-5.9-9.13c-0.18,0.12-0.08,0.21-0.05,0.3c1.05,2.61,2.11,5.21,3.15,7.83
		c0.48,1.2,0.46,1.23-0.8,1.21c-1.42-0.02-1.29,0.27-1.52-1.35c-0.7-5.05-2.62-9.52-6.19-13.17c-1.19-1.22-2.52-2.26-4.02-3.09
		c4.04,4.1,6.33,9.11,7.57,14.7c-1.72-5.02-4.73-8.97-9.22-11.73c3.88,4.04,6.17,8.92,7.39,14.39c-1.72-4.88-4.67-8.73-9.07-11.39
		c0.41,0.47,0.82,0.93,1.22,1.4c2.42,2.82,4.07,6.07,5.28,9.58c0.18,0.53,0.07,0.68-0.48,0.68c-4.44-0.01-8.89-0.01-13.33-0.01
		c-0.72,0-0.77-0.06-0.62-0.8c0.54-2.66,1.09-5.31,1.65-7.97c0.08-0.39,0.07-0.75-0.03-1.14c-1.94-7.55-5.08-14.51-9.65-20.79
		c-2.25-3.09-4.9-5.73-7.92-8.04c-2.88-2.21-5.4-4.83-7.76-7.61c-0.36-0.43-0.75-0.6-1.31-0.6c-4.17,0.02-8.34,0.01-12.51,0.02
		c-0.79,0-1.56-0.07-2.3-0.4c-0.96-0.42-1.51-1.16-1.65-2.2c-0.26-2.03-0.07-4.04,0.31-6.04c0.08-0.43,0.33-0.76,0.61-1.04
		c1.19-1.18,1.28-2.65,1.17-4.19c-0.26-3.69-1.04-7.28-1.88-10.87c-0.13-0.55-0.39-0.76-0.93-0.83c-2.39-0.31-4.7-0.89-6.83-2.09
		c-2.03-1.14-3.62-2.69-4.4-4.97c-0.37-1.07-0.54-2.17-0.21-3.3C4.9,7.71,5.12,7.6,5.87,7.9c2.99,1.18,6.08,1.85,9.29,1.8
		c0.97-0.02,1.94-0.13,2.9-0.31c0.53-0.1,0.71-0.35,0.68-0.88c-0.02-0.36,0.04-0.73,0.06-1.09c0.1-2.14,1.29-3.38,3.21-4.01
		c2.64-0.86,5.34-1.05,8.09-0.85c1.55,0.11,3.07,0.3,4.55,0.82c1.01,0.35,1.96,0.81,2.62,1.73c0.19,0.26,0.49,0.34,0.77,0.42
		c1.33,0.39,2.71,0.52,4.08,0.55c2.94,0.05,5.89,0.13,8.82-0.02C55.96,5.81,60.97,5.4,65.89,4.2c3.7-0.9,7.44-0.62,11.16,0
		c3.75,0.63,7.39,1.68,10.97,2.95c4.23,1.5,8.6,2.21,13.03,2.7c4.71,0.52,9.44,0.7,14.18,0.81c4.15,0.09,8.28-0.15,12.42-0.4
		c3.02-0.18,6.03-0.41,9.04-0.72c3.87-0.39,7.72-0.94,11.55-1.69c2.47-0.49,4.99-0.66,7.51-0.73c5.75-0.15,11.46,0.16,17.11,1.29
		c2.98,0.6,5.88,1.45,8.65,2.73c3.78,1.74,6.24,4.71,7.74,8.57c1.48,3.8,1.84,7.75,1.59,11.8c-0.22,3.55-1.16,6.96-1.87,10.41
		c-1.09,5.34-1.43,10.76-1.2,16.2c0.25,5.83,1.29,11.51,3.42,16.95c0.2,0.52,0.08,0.72-0.41,0.9c-1.11,0.4-2.22,0.68-3.41,0.64
		c-1.43-0.04-2.47-0.72-3.09-2.01c-0.71-1.47-0.81-3.07-0.72-4.67c0.1-1.7,0.35-3.38,0.78-5.03c0.08-0.32,0.09-0.64,0.01-0.96
		c-0.42-1.65-0.76-3.31-0.87-5.02c-0.01-0.08-0.05-0.15-0.13-0.4c-0.42,1.4-0.81,2.64-1.17,3.89c-1.73,6-3.35,12.02-4.52,18.16
		c-0.13,0.68-0.25,1.36-0.36,2.04c-0.08,0.54-0.25,1.04-0.52,1.51c-1.25,2.2-2.51,4.4-3.98,6.46c-0.38,0.54-0.81,0.78-1.48,0.77
		c-3.26-0.03-6.52-0.01-9.78-0.02c-0.18,0-0.41,0.08-0.51-0.14c-0.07-0.16,0.09-0.27,0.19-0.38c2.51-2.99,4.26-6.41,5.62-10.06
		c1.92-5.15,3.02-10.49,3.7-15.94c0.47-3.72,0.72-7.45,0.81-11.2c0.04-1.81,0.1-3.62-0.04-5.42c-0.05-0.73,0.17-1.25,0.69-1.76
		c1.5-1.45,2.68-3.13,3.04-5.26c0.3-1.84,0.08-3.61-1.04-5.18c-1.67-2.35-5.61-2.3-7.2,0.09c-0.75,1.12-0.79,2.76-0.07,3.85
		c0.85,1.28,2.1,1.78,3.57,1.65C171.13,41.53,171.64,40.92,171.78,40z"/>
	<path class="st0" d="M152.13,79.58c-4.37,2.79-7.33,6.64-9.05,11.53c1.21-5.47,3.48-10.37,7.4-14.41c-2.19,1.28-4.05,2.94-5.6,4.95
		c-1.55,2-2.67,4.22-3.54,6.61c0.08-1.1,0.45-2.13,0.78-3.17c0.34-1.07,0.72-2.12,1.19-3.13c0.46-0.99,0.94-1.98,1.5-2.92
		c0.57-0.96,1.18-1.89,1.86-2.78c0.67-0.88,1.42-1.7,2.12-2.58c-0.55,0.38-1.11,0.74-1.65,1.14c-5.03,3.8-7.65,9.02-8.54,15.23
		c-0.22,1.51-0.02,1.29-1.43,1.31c-1.33,0.01-1.36-0.01-0.87-1.26c1.03-2.6,2.09-5.18,3.14-7.76c0.03-0.08,0.05-0.16,0.03-0.27
		c-1.45,1.16-2.57,2.6-3.58,4.16c-0.99,1.55-1.71,3.23-2.4,4.93c1.22-5.55,3.54-10.51,7.57-14.56c-4.58,2.74-7.62,6.73-9.37,11.81
		c1.18-5.52,3.5-10.42,7.37-14.53c-0.87,0.41-1.62,0.98-2.34,1.59c-4.19,3.52-6.55,8.09-7.52,13.47c-0.11,0.61-0.2,1.23-0.26,1.86
		c-0.04,0.41-0.21,0.58-0.6,0.56c-0.47-0.01-0.93-0.02-1.4,0c-0.49,0.02-0.58-0.19-0.44-0.64c0.41-1.25,0.9-2.46,1.47-3.65
		c0.67-1.4,0.97-2.94,1.69-4.32c0.15-0.3,0.28-0.61,0.49-1.06c-2.97,2.66-4.9,5.83-6.22,9.43c1.18-5.41,3.46-10.22,7.32-14.25
		c-1.03,0.17-3.92,2.74-5.6,4.9c-1.55,2-2.63,4.24-3.5,6.61c1.18-5.5,3.46-10.42,7.48-14.54c-0.34,0-0.5,0.17-0.67,0.28
		c-5.15,3.49-8.1,8.44-9.27,14.56c-0.12,0.65-0.22,1.32-0.27,1.98c-0.04,0.52-0.25,0.73-0.76,0.7c-0.44-0.03-0.89-0.02-1.33,0
		c-0.47,0.02-0.56-0.18-0.39-0.59c0.11-0.28,0.19-0.57,0.3-0.85c1.06-2.65,2.13-5.3,3.18-7.92c-0.69,0.32-2.48,2.36-3.61,4.14
		c-1,1.58-1.75,3.28-2.4,5.13c-0.16-1,1.23-5.04,2.64-7.85c1.24-2.47,2.81-4.7,4.79-6.69c-1.01,0.22-4.07,2.84-5.66,4.9
		c-1.55,2.01-2.68,4.26-3.57,6.64c1.21-5.52,3.51-10.46,7.47-14.57c-0.32,0.21-0.64,0.4-0.95,0.62c-0.32,0.22-0.63,0.44-0.93,0.68
		c-0.32,0.25-0.64,0.49-0.95,0.76c-4.07,3.57-6.34,8.16-7.24,13.5c-0.04,0.23,0,0.56-0.23,0.62c-0.27,0.07-0.4-0.26-0.56-0.46
		c-2.92-3.71-3.74-7.94-2.85-12.54c0.91-4.66,2.97-8.77,5.93-12.43c0.62-0.77,0.82-1.74,1.06-2.67c0.08-0.34-0.08-0.42-0.39-0.34
		c-0.35,0.09-0.7,0.18-1.05,0.24c-0.81,0.13-1.56-0.06-2.22-0.54c-0.71-0.51-0.99-1.21-0.82-2.09c0.08-0.4,0.2-0.79,0.29-1.19
		c0.12-0.59-0.07-0.82-0.67-0.74c-0.42,0.06-0.83,0.18-1.24,0.29c-0.44,0.12-0.54-0.05-0.43-0.46c0.24-0.88,0.68-1.64,1.44-2.14
		c0.36-0.23,0.47-0.5,0.44-0.91c-0.14-2.05,0.68-3.5,2.59-4.26c0.3-0.12,0.44-0.39,0.62-0.63c1.13-1.52,2.78-2.1,4.36-1.52
		c0.17,0.06,0.43,0.08,0.44,0.31c0.01,0.19-0.23,0.22-0.37,0.3c-0.31,0.18-0.63,0.36-0.88,0.63c-0.15,0.16-0.29,0.34-0.17,0.57
		c0.12,0.23,0.33,0.24,0.55,0.19c0.62-0.13,1.24-0.28,1.86-0.39c0.79-0.15,1.51,0.04,2.18,0.47c0.14,0.09,0.32,0.17,0.3,0.38
		c-0.02,0.18-0.21,0.19-0.34,0.25c-0.29,0.14-0.59,0.24-0.87,0.39c-0.33,0.19-0.44,0.44-0.04,0.67c2.73,1.53,3.75,4.22,4.53,7.04
		c0.85,3.09,1.19,6.26,1.26,9.45c0.02,0.74,0.25,1.2,0.85,1.57c3.85,2.38,7.86,2.75,12.03,0.98c3.14-1.34,5.6-3.59,7.78-6.19
		c2.58-3.09,4.61-6.54,6.39-10.16c0.41-0.83,0.99-1.45,1.81-1.83c0.87-0.4,1.59-0.21,2.19,0.57c0.58,0.77,0.87,1.67,1.07,2.6
		c0.1,0.47,0.3,0.79,0.71,1.07c1.15,0.77,1.73,1.91,1.86,3.3c0.02,0.24,0.04,0.48,0.02,0.71c-0.08,0.87,0.06,1.58,0.73,2.26
		c0.69,0.7,0.85,1.72,0.89,2.7c0.03,0.71,0.06,1.42-0.07,2.13c-0.04,0.22-0.02,0.43,0.12,0.61c0.93,1.2,0.74,2.47,0.14,3.71
		c-0.28,0.58-0.31,1.09-0.18,1.72c0.47,2.26,0,4.2-1.89,5.7c-1.47,1.16-2.9,2.37-4.44,3.45c-0.4,0.28-0.54,0.59-0.53,1.07
		c0.08,2.4-0.28,4.72-1.29,6.92c-0.25,0.54-0.57,0.76-1.17,0.75c-1.84-0.04-3.68-0.01-5.52-0.01c-0.77,0-0.79-0.03-0.54-0.75
		c1.36-3.98,3.32-7.59,6.24-10.62C152.02,79.9,152.15,79.83,152.13,79.58z"/>
	<path class="st0" d="M30.21,54.82c1.6,0.35,3.12,0.91,4.62,1.54c4.99,2.11,9.4,5.11,13.13,9.09c4.26,4.54,7.25,9.87,9.41,15.73
		c0.65,1.75,0.81,3.41,0.3,5.2c-0.4,1.4-0.63,2.86-0.91,4.29c-0.09,0.49-0.31,0.68-0.81,0.68c-2.48-0.02-4.95-0.02-7.43,0
		c-0.53,0.01-0.74-0.27-0.94-0.69c-2.13-4.53-4.72-8.76-7.89-12.61c-3.72-4.51-7.97-8.38-13.14-11.12c-0.1-0.05-0.25-0.07-0.27-0.33
		c9.57,2.77,17.05,8.36,22.54,16.76c-4.82-9.49-11.26-17.44-20.62-22.64c9.45,2.67,16.9,8.16,22.4,16.44
		C45.83,67.81,39.45,59.98,30.21,54.82z"/>
	<path class="st0" d="M224.36,25.92c-1.29,0-2.58-0.01-3.87,0.01c-0.49,0.01-0.68-0.17-0.67-0.68c0.02-1.16,0.02-2.33,0-3.49
		c-0.01-0.44,0.11-0.68,0.6-0.68c4.57,0.01,9.14,0.01,13.71,0c0.34,0,0.56,0.08,0.59,0.49c0.25,3.38-0.3,6.54-2.51,9.21
		c-2.39,2.88-5.49,4.37-9.16,4.69c-3.45,0.3-6.59-0.58-9.36-2.71c-7.52-5.79-6.51-17.22,1.88-21.6c5.89-3.07,12.79-1.55,16.91,3.73
		c0.58,0.75,0.57,0.79-0.26,1.27c-0.97,0.57-1.94,1.15-2.91,1.71c-1.08,0.63-0.8,0.66-1.61-0.26c-1.21-1.39-2.65-2.41-4.46-2.81
		c-3.07-0.67-6.39,0.87-8.09,3.72c-1.79,3-1.48,6.43,0.82,9.24c2.1,2.56,5.69,3.44,8.84,2.16c1.63-0.66,2.93-1.71,3.78-3.29
		c0.34-0.63,0.27-0.72-0.44-0.73C226.9,25.92,225.63,25.92,224.36,25.92z"/>
	<path class="st0" d="M299.42,58.7c-0.76,0.9-1.5,1.77-2.24,2.64c-1.58,1.86-3.16,3.71-4.72,5.58c-0.3,0.36-0.46,0.29-0.73-0.03
		c-2.09-2.49-4.19-4.96-6.29-7.44c-0.17-0.2-0.33-0.43-0.58-0.57c-0.19,0.27-0.12,0.54-0.12,0.79c-0.01,3.25-0.02,6.51,0.01,9.76
		c0,0.63-0.16,0.89-0.82,0.86c-1.23-0.05-2.45-0.01-3.68-0.01c-0.99,0-0.99,0-0.99-0.98c0-7.97,0-15.95,0-23.92
		c0-0.23-0.06-0.47,0.14-0.77c0.76,0.86,1.5,1.7,2.24,2.54c2.85,3.27,5.7,6.54,8.55,9.82c0.52,0.6,1.05,1.18,1.55,1.79
		c0.27,0.33,0.46,0.36,0.75,0.03c3.41-3.94,6.84-7.87,10.26-11.81c0.68-0.78,1.37-1.56,2.07-2.35c0.23,0.27,0.15,0.52,0.15,0.74
		c0,8,0,15.99,0,23.99c0,0.93,0,0.93-0.91,0.94c-1.16,0-2.33,0-3.49,0c-0.99,0-0.99,0-0.99-0.98c0-3.28,0-6.55,0-9.83
		C299.56,59.24,299.63,59,299.42,58.7z"/>
	<path class="st0" d="M304.46,22c1.11,0.51,1.94,1.21,2.65,2.09c2.28,2.86,1.71,9-3.58,10.47c-1.17,0.32-2.36,0.51-3.57,0.51
		c-3.32,0-6.64,0-9.96,0c-0.91,0-0.95-0.04-0.95-0.93c0-7.73,0-15.46,0-23.2c0-0.85,0.02-0.87,0.85-0.87c3.38,0,6.77,0,10.15,0
		c1.03,0,2.02,0.17,3,0.46c2.61,0.79,4.14,2.87,4.29,5.76C307.48,18.72,306.67,20.64,304.46,22z M297.55,30.27
		c0.68,0,1.35-0.01,2.03,0c0.43,0.01,0.84-0.05,1.26-0.15c1.18-0.29,1.99-1.2,2.06-2.32c0.09-1.39-0.5-2.32-1.77-2.79
		c-0.4-0.15-0.81-0.24-1.24-0.25c-1.59-0.01-3.17,0-4.76-0.01c-0.44,0-0.6,0.16-0.6,0.61c0.02,1.44,0.02,2.89,0,4.33
		c-0.01,0.46,0.18,0.6,0.61,0.59C295.94,30.25,296.74,30.27,297.55,30.27z M297.31,19.92C297.31,19.92,297.31,19.91,297.31,19.92
		c0.78-0.01,1.57,0.03,2.35-0.02c1.43-0.09,2.26-1.15,2.21-2.76c-0.04-1.26-1.01-2.22-2.32-2.24c-1.46-0.02-2.92,0-4.38-0.01
		c-0.46,0-0.65,0.16-0.64,0.64c0.02,1.25,0.02,2.5,0,3.75c-0.01,0.47,0.15,0.67,0.62,0.65C295.87,19.9,296.59,19.92,297.31,19.92z"
		/>
	<path class="st0" d="M271.21,9.58c6.59,0,12.06,4.52,13.22,10.8c0.94,5.1-1.48,10.37-6.06,13.21c-5.29,3.28-12.32,2.41-16.64-2.11
		c-2.12-2.22-3.32-4.89-3.56-8.01c-0.51-6.71,4.33-12.4,10.49-13.62C269.54,9.67,270.44,9.53,271.21,9.58z M271.38,14.64
		c-4.23-0.02-7.82,3.54-7.84,7.76c-0.02,4.43,3.47,8.11,7.7,8.13c4.32,0.01,7.89-3.56,7.91-7.91
		C279.16,18.24,275.67,14.66,271.38,14.64z"/>
	<path class="st0" d="M255.89,59.53c0-0.35,0-0.61,0-0.87c0-4.12,0-8.23,0-12.35c0-1.02,0-1.02,1.03-1.02c1.23,0,2.45,0.01,3.68,0
		c0.48-0.01,0.68,0.16,0.68,0.67c-0.01,8.14-0.01,16.29-0.01,24.43c0,0.18,0.09,0.43-0.15,0.51c-0.18,0.06-0.29-0.13-0.42-0.24
		c-5.25-4.65-10.5-9.3-15.75-13.95c-0.14-0.12-0.26-0.36-0.46-0.26c-0.2,0.1-0.1,0.35-0.1,0.53c-0.01,4.14,0,8.27,0,12.41
		c0,0.86,0,0.87-0.84,0.87c-1.25,0-2.5-0.04-3.74,0.01c-0.7,0.03-0.79-0.3-0.79-0.89c0.01-6.92,0.01-13.83,0.01-20.75
		c0-1.14,0-2.28,0-3.43c0-0.18-0.09-0.43,0.12-0.53c0.2-0.09,0.34,0.12,0.47,0.25c2.35,2.11,4.69,4.23,7.03,6.34
		c2.99,2.7,5.99,5.4,8.98,8.09C255.66,59.41,255.72,59.43,255.89,59.53z"/>
	<path class="st0" d="M232.96,70.28c-0.66,0-1.32-0.05-1.97,0.01c-0.71,0.07-1.08-0.22-1.35-0.86c-0.34-0.81-0.8-1.57-1.18-2.36
		c-0.19-0.4-0.45-0.56-0.89-0.56c-3.36,0.02-6.73,0.02-10.09,0c-0.47,0-0.73,0.17-0.92,0.6c-0.39,0.86-0.85,1.69-1.23,2.55
		c-0.22,0.49-0.54,0.64-1.04,0.63c-1.48-0.03-2.96-0.01-4.44-0.01c-0.79,0-0.81-0.02-0.44-0.73c1.78-3.43,3.57-6.85,5.36-10.27
		c2.4-4.6,4.81-9.2,7.22-13.8c0.15-0.29,0.23-0.79,0.56-0.79c0.32,0.01,0.38,0.51,0.54,0.8c4.15,7.93,8.3,15.85,12.44,23.78
		c0.52,0.99,0.51,1-0.59,1C234.27,70.28,233.62,70.28,232.96,70.28z M222.53,55.52c-0.96,2.02-1.86,3.88-2.75,5.76
		c-0.19,0.39,0.06,0.44,0.35,0.44c1.63,0,3.25,0,4.88,0c0.4,0,0.49-0.13,0.3-0.5C224.4,59.38,223.51,57.53,222.53,55.52z"/>
	<path class="st0" d="M333.03,70.28c-0.76,0-1.52-0.02-2.28,0.01c-0.44,0.02-0.7-0.15-0.89-0.55c-0.44-0.91-0.93-1.79-1.36-2.7
		c-0.18-0.38-0.43-0.52-0.84-0.52c-3.39,0.01-6.77,0.01-10.16,0c-0.44,0-0.7,0.14-0.89,0.55c-0.42,0.92-0.89,1.81-1.32,2.72
		c-0.17,0.36-0.4,0.5-0.79,0.5c-1.57-0.01-3.13,0-4.7-0.01c-0.65,0-0.69-0.06-0.38-0.65c2.25-4.32,4.51-8.64,6.76-12.95
		c2.01-3.84,4.01-7.68,6.02-11.52c0.09-0.18,0.12-0.47,0.36-0.48c0.25-0.01,0.29,0.29,0.38,0.47c4.19,8,8.37,16.01,12.55,24.02
		c0.64,1.22,0.68,1.13-0.69,1.13C334.22,70.28,333.62,70.28,333.03,70.28z M322.63,61.72c0.78,0,1.56-0.01,2.35,0
		c0.42,0.01,0.6-0.07,0.37-0.54c-0.83-1.67-1.64-3.35-2.46-5.03c-0.07-0.15-0.1-0.37-0.3-0.38c-0.2-0.01-0.23,0.22-0.3,0.37
		c-0.8,1.66-1.58,3.33-2.4,4.99c-0.25,0.51-0.04,0.6,0.4,0.59C321.06,61.71,321.85,61.72,322.63,61.72z"/>
	<path class="st0" d="M322.62,31.22c-1.63,0-3.26,0.03-4.89-0.01c-0.58-0.01-0.88,0.19-1.11,0.72c-0.38,0.87-0.84,1.69-1.23,2.55
		c-0.19,0.42-0.45,0.62-0.92,0.61c-1.52-0.02-3.05,0-4.57-0.01c-0.69,0-0.74-0.11-0.4-0.75c3-5.74,6-11.49,9-17.23
		c1.26-2.41,2.53-4.83,3.8-7.24c0.09-0.16,0.13-0.43,0.34-0.42c0.21,0,0.26,0.26,0.35,0.42c1.98,3.78,3.96,7.57,5.94,11.35
		c2.28,4.35,4.56,8.71,6.84,13.06c0.37,0.71,0.32,0.8-0.45,0.81c-1.46,0.01-2.92-0.01-4.38,0.01c-0.48,0.01-0.78-0.13-1-0.59
		c-0.44-0.93-0.94-1.83-1.39-2.76c-0.18-0.38-0.43-0.53-0.84-0.52C326.01,31.23,324.32,31.22,322.62,31.22z M322.65,20.25
		c-0.98,2.04-1.89,3.93-2.8,5.82c-0.15,0.3-0.07,0.44,0.27,0.44c1.69,0,3.38,0,5.07,0c0.35,0,0.39-0.17,0.25-0.46
		C324.53,24.17,323.62,22.27,322.65,20.25z"/>
	<path class="st0" d="M339.19,57.77c0-3.88,0.01-7.76-0.01-11.63c0-0.64,0.17-0.89,0.82-0.87c1.29,0.04,2.58,0.01,3.87,0.01
		c0.77,0,0.81,0.04,0.81,0.86c0,5.97,0,11.94,0,17.9c0,0.19,0.02,0.39,0,0.58c-0.08,0.65,0.18,0.86,0.82,0.86
		c3.38-0.03,6.77-0.02,10.15-0.01c2.12,0.01,1.81-0.29,1.84,1.89c0.01,0.71-0.02,1.42,0.01,2.13c0.02,0.58-0.17,0.79-0.77,0.79
		c-2.5-0.03-4.99-0.01-7.49-0.01c-3.09,0-6.18-0.01-9.27,0.01c-0.62,0.01-0.8-0.21-0.79-0.82C339.2,65.57,339.19,61.67,339.19,57.77
		z"/>
	<path class="st0" d="M338.29,22.52c0-3.86,0-7.71,0-11.57c0-0.87,0-0.87,0.84-0.87c1.25,0,2.5,0.03,3.74-0.01
		c0.66-0.03,0.82,0.23,0.82,0.86c-0.02,6.12-0.01,12.23-0.01,18.35c0,0.98,0,0.99,0.97,0.99c3.66,0,7.32,0,10.98,0
		c0.87,0,0.87,0.01,0.87,0.91c0,1.08-0.02,2.15,0.01,3.23c0.01,0.51-0.19,0.68-0.67,0.68c-5.63-0.01-11.25-0.01-16.88,0
		c-0.61,0-0.68-0.3-0.68-0.81C338.3,30.36,338.29,26.44,338.29,22.52z"/>
	<path class="st0" d="M239.12,22.58c0-3.88,0-7.75,0-11.63c0-0.86,0-0.87,0.84-0.87c1.23,0,2.45,0,3.68,0c0.86,0,0.86,0,0.86,0.91
		c0,6.1,0,12.19,0,18.29c0,0.98,0,0.98,0.98,0.98c3.64,0,7.28,0,10.91,0c0.93,0,0.93,0,0.94,0.98c0,1.06-0.02,2.11,0.01,3.17
		c0.01,0.51-0.19,0.68-0.68,0.68c-5.63-0.01-11.25-0.01-16.88,0c-0.61,0-0.68-0.31-0.68-0.81
		C239.13,30.38,239.12,26.48,239.12,22.58z"/>
	<path class="st0" d="M273.07,57.84c0,3.86,0,7.71,0,11.57c0,0.86-0.01,0.87-0.85,0.87c-1.29,0-2.58-0.02-3.87,0.01
		c-0.53,0.01-0.76-0.15-0.76-0.72c0.01-7.84,0.01-15.68,0-23.52c0-0.55,0.19-0.78,0.74-0.76c1.33,0.03,2.67,0.03,4,0
		c0.6-0.02,0.75,0.24,0.75,0.81C273.07,50,273.07,53.92,273.07,57.84z"/>
	<path class="st0" d="M293.36,86.26c0-1.29,0.02-2.59-0.01-3.88c-0.01-0.54,0.15-0.79,0.72-0.77c1.18,0.03,2.37-0.01,3.55,0.02
		c1.45,0.03,2.59,0.88,3.01,2.16c0.46,1.43,0.06,2.85-1.12,3.75c-0.41,0.31-0.37,0.51-0.08,0.87c0.54,0.66,1.03,1.36,1.55,2.04
		c0.29,0.37,0.19,0.53-0.26,0.52c-0.02,0-0.04,0-0.06,0c-1.27,0.21-2.26-0.14-2.89-1.38c-0.21-0.42-0.56-0.76-0.83-1.14
		c-0.16-0.23-0.37-0.33-0.64-0.34c-0.8-0.04-0.87,0.01-0.87,0.83c0,0.5-0.01,0.99,0,1.49c0.01,0.39-0.17,0.52-0.54,0.54
		c-1.53,0.1-1.53,0.11-1.53-1.41C293.36,88.46,293.36,87.36,293.36,86.26z M295.43,84.83c0.02,1.64-0.22,1.4,1.42,1.42
		c0.21,0,0.42,0.01,0.63-0.01c0.79-0.08,1.21-0.56,1.22-1.36c0.01-0.85-0.35-1.29-1.17-1.39c-0.25-0.03-0.5-0.02-0.76-0.02
		C295.24,83.49,295.45,83.27,295.43,84.83z"/>
	<path class="st0" d="M238.13,86.27c0-1.31,0.02-2.63-0.01-3.94c-0.01-0.53,0.18-0.73,0.7-0.72c1.18,0.02,2.37-0.01,3.55,0.01
		c1.47,0.03,2.63,0.89,3.03,2.21c0.43,1.41-0.01,2.86-1.18,3.73c-0.36,0.27-0.34,0.45-0.09,0.77c0.52,0.65,1.01,1.33,1.51,2
		c0.11,0.15,0.31,0.29,0.24,0.5c-0.09,0.23-0.33,0.11-0.51,0.14c-1.29,0.24-2.24-0.23-2.87-1.41c-0.21-0.39-0.53-0.73-0.79-1.09
		c-0.15-0.2-0.32-0.32-0.58-0.35c-0.8-0.09-0.93,0.01-0.93,0.83c0,0.5-0.01,0.99,0,1.49c0.01,0.39-0.17,0.52-0.53,0.54
		c-1.53,0.1-1.53,0.11-1.53-1.47C238.13,88.42,238.13,87.35,238.13,86.27z M240.2,84.84c0,0.32,0,0.64,0,0.97
		c0,0.28,0.11,0.45,0.41,0.45c0.57,0,1.14,0.03,1.71-0.02c0.73-0.07,1.15-0.61,1.14-1.38c-0.01-0.79-0.4-1.26-1.15-1.36
		c-0.25-0.03-0.51-0.02-0.76-0.02C240,83.49,240.22,83.27,240.2,84.84z"/>
	<path class="st0" d="M270.76,86.79c0-0.92,0-1.67,0-2.41c0-0.73,0.01-1.47,0-2.2c0-0.37,0.15-0.56,0.53-0.56
		c1.87-0.01,1.62-0.14,1.63,1.52c0.01,2.41,0.01,4.83,0,7.24c0,0.25,0.11,0.59-0.16,0.7c-0.22,0.09-0.4-0.19-0.57-0.34
		c-1.68-1.48-3.35-2.97-5.03-4.45c-0.12-0.11-0.24-0.32-0.41-0.26c-0.23,0.08-0.13,0.34-0.13,0.51c-0.01,1.25-0.02,2.5,0,3.75
		c0.01,0.51-0.18,0.68-0.67,0.67c-1.61-0.03-1.41,0.14-1.41-1.4c-0.01-2.5,0-5,0-7.5c0-0.19-0.08-0.44,0.1-0.54
		c0.24-0.13,0.37,0.13,0.52,0.26c1.62,1.45,3.23,2.92,4.84,4.37C270.2,86.35,270.41,86.51,270.76,86.79z"/>
	<path class="st0" d="M329.33,86.3c0,1.31-0.01,2.63,0.01,3.94c0.01,0.51-0.13,0.75-0.67,0.73c-1.57-0.03-1.39,0.15-1.4-1.42
		c0-0.5-0.01-0.99,0-1.49c0.01-0.42-0.14-0.64-0.58-0.63c-0.97,0.01-1.95,0.01-2.92,0c-0.41,0-0.57,0.19-0.56,0.59
		c0.01,0.75-0.01,1.51,0,2.26c0.01,0.49-0.17,0.69-0.67,0.68c-1.64-0.04-1.47,0.2-1.48-1.47c-0.01-2.35,0-4.69,0-7.04
		c0-0.78,0.07-0.83,0.84-0.84c1.3-0.02,1.3-0.02,1.3,1.34c0,0.67,0.01,1.34,0,2c0,0.38,0.17,0.55,0.54,0.55c0.99,0,1.99-0.01,2.98,0
		c0.42,0,0.55-0.22,0.54-0.61c-0.01-0.86,0.02-1.72-0.01-2.58c-0.02-0.54,0.2-0.72,0.71-0.71c1.57,0.02,1.35-0.07,1.36,1.33
		C329.34,84.06,329.33,85.18,329.33,86.3z"/>
	<path class="st0" d="M279.76,86.28c0-1.31,0.02-2.63-0.01-3.94c-0.01-0.52,0.16-0.73,0.69-0.73c1.88,0.02,3.76,0.03,5.64,0
		c0.78-0.02,0.68,0.48,0.7,0.98c0.02,0.53-0.02,0.92-0.73,0.89c-1.18-0.05-2.37,0-3.55-0.02c-0.48-0.01-0.68,0.13-0.68,0.66
		c0,1.27-0.03,1.27,1.23,1.27c0.82,0,1.65,0.01,2.47,0c0.45-0.01,0.64,0.16,0.64,0.64c0.02,1.3,0.04,1.3-1.26,1.3
		c-0.8,0-1.61,0.02-2.41-0.01c-0.49-0.02-0.72,0.16-0.66,0.67c0.02,0.17,0.01,0.35,0,0.52c-0.04,0.45,0.16,0.61,0.6,0.61
		c1.2-0.02,2.41,0.03,3.61-0.02c0.75-0.03,0.74,0.41,0.74,0.94c0,0.53,0.01,0.96-0.74,0.94c-1.86-0.04-3.72-0.03-5.58,0
		c-0.57,0.01-0.73-0.21-0.72-0.76C279.78,88.91,279.76,87.59,279.76,86.28z"/>
	<path class="st0" d="M310.78,81.48c1.15,0.02,2.21,0.33,3.18,0.97c0.34,0.22,0.4,0.42,0.15,0.78c-0.74,1.08-0.73,1.09-1.93,0.56
		c-0.76-0.33-1.54-0.47-2.35-0.22c-0.32,0.1-0.6,0.27-0.62,0.65c-0.02,0.39,0.26,0.58,0.58,0.67c0.65,0.18,1.31,0.32,1.97,0.47
		c0.6,0.13,1.2,0.26,1.74,0.58c1.68,1,1.74,3.51,0.1,4.59c-1.72,1.13-4.75,0.71-6.4-0.62c-0.18-0.14-0.23-0.31-0.09-0.5
		c0.24-0.35,0.49-0.7,0.73-1.06c0.22-0.32,0.43-0.14,0.65,0.01c0.67,0.44,1.4,0.71,2.18,0.85c0.54,0.09,1.06,0.05,1.53-0.24
		c0.27-0.16,0.47-0.37,0.44-0.72c-0.03-0.32-0.24-0.5-0.5-0.62c-0.51-0.23-1.05-0.31-1.59-0.41c-0.77-0.13-1.53-0.31-2.22-0.73
		c-0.84-0.5-1.27-1.25-1.25-2.24c0.02-0.98,0.46-1.73,1.32-2.21C309.14,81.62,309.95,81.49,310.78,81.48z"/>
	<path class="st0" d="M345.55,86.35c0-1.34,0.01-2.67-0.01-4.01c-0.01-0.52,0.16-0.75,0.69-0.73c1.33,0.06,2.67-0.12,3.99,0.11
		c1.74,0.31,2.91,1.72,2.82,3.37c-0.09,1.75-1.24,2.94-3.04,3.15c-0.61,0.07-1.22,0.12-1.83,0.1c-0.4-0.01-0.58,0.17-0.56,0.58
		c0.02,0.45,0.01,0.9,0,1.36c0,0.15,0.03,0.35-0.05,0.44c-0.47,0.49-1.07,0.18-1.61,0.23c-0.39,0.03-0.4-0.3-0.4-0.59
		C345.55,89.02,345.55,87.68,345.55,86.35z M347.62,84.92c0,0.28,0.02,0.56,0,0.84c-0.03,0.46,0.13,0.68,0.61,0.65
		c0.5-0.03,1.01,0.01,1.52-0.02c0.63-0.04,1.05-0.46,1.13-1.09c0.14-1.08-0.47-1.81-1.61-1.82
		C347.28,83.45,347.66,83.26,347.62,84.92z"/>
	<path class="st0" d="M211.59,86.29c0-1.29,0.03-2.59-0.01-3.88c-0.02-0.63,0.22-0.84,0.81-0.81c1.29,0.07,2.58-0.12,3.86,0.11
		c1.74,0.31,2.9,1.7,2.83,3.36c-0.08,1.77-1.24,2.96-3.09,3.17c-0.57,0.06-1.14,0.12-1.71,0.09c-0.46-0.02-0.66,0.15-0.64,0.64
		c0.02,0.47-0.01,0.95,0.01,1.42c0.01,0.42-0.17,0.57-0.57,0.57c-1.72-0.01-1.48,0.15-1.5-1.44
		C211.58,88.45,211.59,87.37,211.59,86.29z M213.66,84.91c0,0.28,0.02,0.56,0,0.84c-0.05,0.52,0.18,0.69,0.67,0.66
		c0.48-0.03,0.97,0.01,1.45-0.02c0.66-0.04,1.08-0.48,1.14-1.15c0.1-1.03-0.47-1.74-1.55-1.76
		C213.28,83.44,213.71,83.27,213.66,84.91z"/>
	<path class="st0" d="M231.48,90.97c-0.67,0.19-1.18-0.14-1.43-0.92c-0.13-0.42-0.43-0.52-0.84-0.51c-0.97,0.02-1.95,0.03-2.92,0
		c-0.44-0.01-0.71,0.15-0.89,0.56c-0.13,0.3-0.2,0.74-0.56,0.82c-0.6,0.13-1.23,0.11-1.83,0.01c-0.35-0.05-0.13-0.35-0.05-0.51
		c0.41-0.82,0.84-1.64,1.27-2.46c1.03-1.98,2.06-3.96,3.1-5.93c0.1-0.2,0.15-0.52,0.42-0.51c0.23,0,0.27,0.3,0.36,0.49
		c1.44,2.74,2.86,5.48,4.3,8.22c0.39,0.75,0.4,0.75-0.43,0.75C231.86,90.97,231.73,90.97,231.48,90.97z M227.77,85.75
		c-0.26,0.17-0.31,0.44-0.41,0.66c-0.17,0.4-0.66,0.86-0.41,1.18c0.25,0.31,0.87,0.07,1.33,0.1c0.02,0,0.04,0,0.06,0
		c0.24-0.01,0.37-0.12,0.25-0.37C228.33,86.79,228.14,86.23,227.77,85.75z"/>
	<path class="st0" d="M254.89,81.62c0.99,0,1.99,0.02,2.98-0.01c0.52-0.01,0.7,0.21,0.71,0.73c0.02,1.11,0.02,1.12-1.06,1.12
		c-0.32,0-0.64,0.02-0.95,0c-0.5-0.04-0.66,0.18-0.66,0.68c0.02,1.96,0.01,3.92,0.01,5.88c0,0.94,0,0.95-0.9,0.95
		c-1.29-0.01-1.26,0.19-1.26-1.3c0-1.83-0.01-3.66,0.01-5.49c0.01-0.52-0.16-0.75-0.7-0.71c-0.44,0.03-0.89-0.01-1.33,0.01
		c-0.41,0.01-0.58-0.18-0.55-0.58c0.01-0.11,0-0.22,0-0.32c0-0.94,0-0.94,0.91-0.94C253.03,81.62,253.96,81.62,254.89,81.62z"/>
	<path class="st0" d="M336.41,86.27c0-1.31,0.01-2.62-0.01-3.93c-0.01-0.52,0.17-0.72,0.69-0.73c1.47-0.02,1.47-0.04,1.47,1.43
		c0,2.36-0.02,4.73,0.01,7.09c0.01,0.64-0.19,0.87-0.84,0.85c-1.44-0.05-1.33,0.16-1.33-1.36
		C336.41,88.51,336.41,87.39,336.41,86.27z"/>
	<path class="st0" d="M186.18,91.48c-2.2,0-3.92-1.73-3.92-3.95c-0.01-2.21,1.77-4,3.97-3.99c2.14,0.01,3.9,1.81,3.91,4
		C190.15,89.72,188.38,91.48,186.18,91.48z M189.64,87.5c0-2-1.49-3.53-3.44-3.53c-1.94,0-3.54,1.62-3.51,3.57
		c0.03,1.98,1.59,3.53,3.55,3.52C188.18,91.05,189.64,89.52,189.64,87.5z"/>
</g>
<path class="st0" d="M187.96,88.9c-0.19-0.31-0.37-0.63-0.6-0.91c-0.23-0.27-0.25-0.41,0.08-0.62c0.43-0.27,0.5-0.73,0.4-1.2
	c-0.1-0.47-0.41-0.72-0.87-0.81c-0.63-0.12-1.26-0.09-1.89-0.08c-0.38,0-0.52,0.22-0.51,0.58c0,0.47,0,0.95,0,1.42
	c0,0.52,0,1.03,0,1.55c0,0.31,0.08,0.56,0.45,0.56c0.38,0.01,0.46-0.23,0.45-0.55c0-0.19,0-0.39,0.01-0.58
	c0.01-0.19-0.03-0.41,0.22-0.48c0.2-0.05,0.39,0.04,0.51,0.19c0.26,0.34,0.51,0.68,0.74,1.04c0.18,0.28,0.42,0.4,0.75,0.38
	C188.04,89.37,188.16,89.22,187.96,88.9z M185.6,86.94v-0.81c0.56-0.07,1.41,0.04,1.34,0.49C186.87,87.08,185.6,86.94,185.6,86.94z"
	/>
</svg>
