<?xml version="1.0" encoding="utf-8"?>
<!-- Generator: Adobe Illustrator 27.6.1, SVG Export Plug-In . SVG Version: 6.00 Build 0)  -->
<svg version="1.1" id="Layer_1" xmlns="http://www.w3.org/2000/svg" xmlns:xlink="http://www.w3.org/1999/xlink" x="0px" y="0px"
	 viewBox="0 0 191.55 80.64" style="enable-background:new 0 0 191.55 80.64;" xml:space="preserve">
<style type="text/css">
	.st0{fill:#494949;}
</style>
<g>
	<g>
		<path class="st0" d="M82.86,2.36c0.24,0.18,0.52,0.25,0.81,0.28c9.98,1.09,18.19,5.52,24.69,13.06c3.04,3.53,5.28,7.55,6.69,12.01
			c0.4,1.28,0.86,2.54,1.01,3.88c0.02,0.21,0.07,0.42,0.3,0.47c0.32,0.07,0.46-0.16,0.6-0.39c2.79-4.55,5.57-9.1,8.37-13.65
			c2.94-4.79,5.9-9.58,8.82-14.38c0.44-0.72,0.92-1.04,1.8-1.02c2.58,0.06,5.17,0.02,7.76,0.02c0.92,0,0.97,0.09,0.49,0.9
			c-2.05,3.41-4.12,6.81-6.17,10.22c-4.3,7.16-8.6,14.32-12.9,21.47c-4.47,7.45-9.02,14.85-13.4,22.35
			c-3.35,5.74-7.8,10.36-13.4,13.93c-2.79,1.78-5.76,3.16-8.94,4.1c-2.34,0.7-4.72,1.1-7.14,1.42c-1.92,0.26-3.82,0.25-5.72,0.25
			c-8.31,0.03-16.62,0.01-24.93,0.01c-1.2,0-1.21,0-1.21-1.18c0-13.93,0-27.85,0-41.78c0-1.19,0-1.19,1.2-1.19
			c2.18,0,4.36,0.04,6.54-0.02c0.9-0.03,1.12,0.29,1.12,1.14c-0.03,10.98-0.02,21.96-0.02,32.94c0,1.33,0,1.34,1.34,1.34
			c7.23-0.01,14.47,0.02,21.7-0.06c1.65-0.02,3.26-0.53,4.87-0.96c2.32-0.62,4.48-1.57,6.55-2.75c5.64-3.22,9.72-7.85,12.36-13.74
			c0.69-1.55,1.12-3.21,1.58-4.85c0.9-3.24,0.71-6.52,0.58-9.78c-0.07-1.87-0.64-3.74-1.24-5.57c-0.86-2.6-2.02-5.04-3.57-7.29
			c-3.22-4.7-7.45-8.17-12.7-10.45c-2.04-0.89-4.15-1.54-6.3-1.93c-1.25-0.23-2.54-0.46-3.86-0.46
			c-22.92,0.03-45.85,0.02-68.77,0.02c-1.35,0-1.35,0-1.35,1.32c0,21.18,0,42.36,0,63.54c0,0.32-0.02,0.64,0,0.95
			c0.04,0.55-0.19,0.78-0.76,0.77c-2.32-0.02-4.65-0.02-6.97,0c-0.56,0-0.8-0.22-0.76-0.77c0.02-0.26,0-0.52,0-0.78
			c0-24.04,0-48.08,0-72.12c0-0.43,0.04-0.86,0.06-1.3C28.93,2.36,55.89,2.36,82.86,2.36z"/>
		<path class="st0" d="M189.9,59.75c-1.54,2.07-2.7,4.38-4.1,6.54c-0.28,0.43-0.52,0.89-0.78,1.33c-0.56,0.93-0.57,0.93-1.17-0.05
			c-0.77-1.24-1.53-2.5-2.28-3.75c-2.7-4.53-5.4-9.06-8.1-13.59c-4.29-7.19-8.58-14.37-12.87-21.56c-2.75-4.6-5.51-9.2-8.26-13.8
			c-2.22-3.71-4.45-7.43-6.66-11.14c-0.59-0.98-0.53-1.08,0.6-1.09c2.61,0,5.23,0.02,7.84-0.01c0.63-0.01,1.01,0.19,1.33,0.72
			c3.28,5.39,6.58,10.77,9.88,16.14c2.43,3.96,4.89,7.9,7.33,11.86c4.54,7.38,9.05,14.77,13.61,22.13c1.19,1.92,2.28,3.92,3.64,5.74
			C189.9,59.4,189.9,59.57,189.9,59.75z"/>
		<path class="st0" d="M48.38,14.44c11.04,0,22.08-0.02,33.12,0.02c1.69,0,3.33,0.49,4.96,0.94c2.41,0.66,4.64,1.69,6.71,3.05
			c4.69,3.09,8.07,7.2,10.02,12.5c1.09,2.97,1.7,6.02,1.64,9.15c-0.06,2.82-0.58,5.6-1.58,8.29c-2.09,5.64-5.7,9.98-10.84,13.09
			c-2.44,1.48-5.06,2.5-7.89,3.06c-2.22,0.44-4.44,0.67-6.7,0.65c-4.47-0.03-8.95-0.03-13.42,0.01c-0.86,0.01-1.15-0.21-1.15-1.11
			c0.03-9.94,0.03-19.88,0-29.82c0-0.87,0.23-1.15,1.12-1.13c2.24,0.06,4.47,0.05,6.71,0c0.81-0.02,1.03,0.26,1.03,1.04
			c-0.02,7.05-0.01,14.1-0.01,21.15c0,1.25,0,1.25,1.25,1.26c2.81,0.01,5.65,0.16,8.43-0.24c2.34-0.33,4.54-1.19,6.54-2.52
			c3.31-2.19,5.63-5.15,6.93-8.88c0.83-2.37,1.13-4.87,0.73-7.31c-1-6.05-4.25-10.56-9.91-13.19c-1.4-0.65-2.89-1-4.43-1.29
			c-2.81-0.52-5.62-0.27-8.42-0.28c-16.44-0.04-32.89-0.02-49.33-0.02c-1.48,0-1.52,0.04-1.52,1.5c0,2.51,0,5.03,0,7.54
			c0,1.12,0.13,1.24,1.25,1.24c7.26,0,14.53,0,21.79,0c1.24,0,1.24,0,1.24,1.24c0,2.2-0.02,4.39,0.01,6.59
			c0.01,0.71-0.25,0.97-0.97,0.97c-10.29-0.01-20.57-0.01-30.86,0c-0.74,0-1.04-0.28-1.04-1.03c0.01-8.55,0.02-17.1-0.01-25.66
			c0-0.93,0.53-0.84,1.12-0.84C26.07,14.44,37.22,14.44,48.38,14.44z"/>
		<path class="st0" d="M178.05,65.18c-0.51,0-0.85,0-1.2,0c-14.41,0-28.82,0-43.23,0c-1.31,0-1.31,0-1.31-1.34c0-1.94,0-3.87,0-5.81
			c0-1.29,0-1.29,1.27-1.29c8.98,0,17.95,0,26.93-0.01c0.46,0,1.11,0.28,1.36-0.24c0.24-0.48-0.31-0.87-0.56-1.28
			c-5.24-8.7-10.49-17.41-15.74-26.11c-0.75-1.24-0.75-1.22-1.48,0.06c-2.75,4.82-5.51,9.65-8.28,14.47
			c-4.5,7.85-9.01,15.7-13.51,23.55c-1.84,3.21-3.7,6.4-5.53,9.61c-0.18,0.31-0.34,0.52-0.71,0.52c-3.8,0-7.6,0-11.48,0
			c0.29-0.98,0.89-1.69,1.35-2.45c7.84-13.02,15.71-26.03,23.58-39.03c4.06-6.71,8.12-13.41,12.18-20.11
			c0.92-1.52,1.86-3.03,2.74-4.57c0.36-0.64,0.61-0.37,0.84,0.02c4.32,7.11,8.62,14.23,12.94,21.33c4.02,6.62,8.07,13.22,12.1,19.83
			c2.45,4.02,4.87,8.05,7.31,12.07C177.75,64.59,177.84,64.79,178.05,65.18z"/>
		<path class="st0" d="M13.81,61.53c0-4.91,0-9.82,0-14.74c0-1.15,0-1.15,1.16-1.15c10.17,0,20.34,0,30.51,0
			c1.18,0,1.18,0,1.18,1.21c0,2.14,0,4.28,0,6.41c0,1.16,0,1.16-1.14,1.16c-7.23,0-14.47,0-21.7,0c-1.42,0-1.44,0.02-1.44,1.47
			c0,6.79-0.02,13.58,0.02,20.37c0,0.84-0.24,1.08-1.07,1.06c-2.18-0.05-4.36-0.04-6.54,0c-0.75,0.01-0.99-0.2-0.99-0.98
			C13.82,71.41,13.81,66.47,13.81,61.53z"/>
		<path class="st0" d="M158.24,68.88c8.16,0,16.32,0,24.48,0c0.23,0,0.46,0,0.7,0c0.57,0,0.74,0.15,0.39,0.71
			c-1.06,1.7-2.07,3.43-3.11,5.15c-0.1,0.17-0.25,0.33-0.31,0.51c-0.61,1.84-1.92,2.11-3.73,2.1c-14.26-0.08-28.52-0.04-42.78-0.05
			c-1.74,0-1.56,0.17-1.57-1.6c-0.01-1.88,0-3.75,0-5.63c0-1.2,0-1.2,1.19-1.2C141.74,68.88,149.99,68.88,158.24,68.88z"/>
	</g>
</g>
</svg>
