<?xml version="1.0" encoding="utf-8"?>
<!-- Generator: Adobe Illustrator 27.6.1, SVG Export Plug-In . SVG Version: 6.00 Build 0)  -->
<svg version="1.1" id="Layer_1" xmlns="http://www.w3.org/2000/svg" xmlns:xlink="http://www.w3.org/1999/xlink" x="0px" y="0px"
	 viewBox="0 0 487 192" style="enable-background:new 0 0 487 192;" xml:space="preserve">
<style type="text/css">
	.st0{fill:#2E328F;}
</style>
<g>
	<path class="st0" d="M174.11,121.1c-1.1,0.75-2.2,1.38-3.3,2c0.12-3.75,0.86-7.38,1.71-10.89c1.59-6.88,4.03-13.64,6.72-20.27
		c1.1-2.75,2.2-5.38,3.3-8.01c0.24-0.5,0.24-0.88,0.24-1.38c0-2.25-2.2-4.51-3.67-5.76c-1.35-1-2.81-2-4.4-2.38
		c-0.37-0.13-1.1-0.25-1.71-0.25c-0.61,0-1.1,0.12-1.35,0.63c-3.06,6.88-5.87,13.76-8.19,20.9c-1.59,4.88-2.93,9.76-3.79,14.77
		c-0.24,2-0.49,4-0.49,6.01c0,1.5,0.12,3,0.37,4.51c0.61,3.88,3.06,7.38,5.99,9.89c2.81,2.25,5.87,3.63,9.29,3.63
		c0.61,0,1.22,0,1.83-0.13c2.32-0.37,4.4-1.5,6.36-2.75c5.38-3.5,9.78-8.01,13.82-12.89c0.86,2.13,2.08,4,3.67,5.63
		c2.81,3,6.6,5.13,10.52,5.51c0.49,0,0.86,0.13,1.34,0.13c1.59,0,3.18-0.38,4.65-1c1.2-0.4,2.36-0.92,3.49-1.51
		c-0.19,0.55-0.37,1.1-0.55,1.64v0.37c0,1.13,0.86,2.63,1.35,3.25c1.1,1.5,2.57,2.88,4.03,3.75c1.1,0.63,2.81,1.5,4.28,1.5
		c0.86,0,1.59-0.38,1.96-1.38c1.96-6.01,3.79-12.01,5.75-17.9c1.96-6.26,3.91-12.51,5.87-18.65c2.08,1.38,4.4,2.25,6.73,2.75
		c0.98,0.13,2.08,0.25,3.06,0.25c2.32,0,4.52-0.38,6.72-1.13c-0.24,1.13-0.49,2.13-0.73,3.25c-0.73,3.5-1.34,7.38-1.34,11.14
		c0,2.75,0.37,5.51,1.22,8.01c2.2,6.38,8.32,12.14,15.16,12.14c0.86,0,1.71,0,2.57-0.25c3.3-0.75,6.24-3.13,8.8-5.38
		c2.04-1.83,3.89-3.84,5.62-5.95c1.97,3.37,5.48,6.16,8.81,7.7c1.71,0.75,3.42,1.13,5.14,1.13c1.34,0,2.69-0.25,4.03-0.63
		c5.26-1.88,9.9-6.51,13.33-10.89c4.52-5.63,7.7-12.51,9.42-19.52c0.86-3.13,1.22-6.13,1.22-9.26c0-0.88-0.12-1.88-0.12-2.75
		c-0.12-1.88-0.49-3.63-1.22-5.38c-0.24-1.13-0.61-2.13-1.1-3.13c-1.34-2.5-3.18-4.76-5.5-6.38c-0.37-0.25-0.61-0.5-0.98-0.88
		c-1.83-1.5-4.89-3.63-7.58-3.63c-0.98,0-1.96,0.25-2.81,1c-0.37,0.38-0.73,0.88-0.98,1.38c-1.96,0.75-3.79,1.88-5.5,3.25
		c-4.28,3.25-7.21,7.76-9.78,12.51c-1.5,2.89-2.88,5.87-4.07,8.91c-0.11-0.01-0.22-0.03-0.33-0.03c-0.61,0-1.22,0.13-1.47,0.63
		c-3.79,6.88-8.32,13.52-13.45,19.27c-1.96,2.13-4.04,4.13-6.24,5.76c-0.86,0.5-1.59,1-2.44,1.38v-3.38
		c0.12-4.38,0.98-8.64,1.96-12.89c1.71-6.51,3.91-12.89,6.36-19.15l3.67-8.64c0.25-0.38,0.25-0.88,0.25-1.25
		c0-2.25-2.2-4.51-3.79-5.76c-1.22-1-2.81-2.13-4.4-2.5c-0.37,0-0.98-0.13-1.47-0.13c-0.73,0-1.35,0.13-1.59,0.63
		c-1.22,2.75-3.18,5.38-5.01,7.76c-2.69,3.25-5.75,6.38-9.29,8.89c-2.2,1.5-4.65,2.75-7.34,3.5c-0.37,0-0.73,0.12-1.1,0.25h-1.1
		c0-1.25,0.12-2.63,0.25-3.88c0.61-1.75,1.1-3.38,1.71-5.13v-0.37c0-0.25,0-0.63-0.12-0.88c-0.37-1.63-1.83-3.38-3.06-4.38
		c-0.61-0.63-1.22-1.13-1.96-1.5c-0.98-0.75-1.96-1.25-3.06-1.5c-0.61-0.25-1.1-0.25-1.59-0.25c-0.61,0-1.22,0.12-1.59,0.63
		c-0.98,1.88-1.71,4-1.96,6.26c-1.34,4.13-2.69,8.26-4.03,12.51c-0.43,1.4-0.88,2.79-1.32,4.19c-0.4,0.07-0.76,0.23-1.01,0.57
		c-2.81,5.26-6.85,9.89-11.25,13.77c-1.22,1-2.44,2-3.67,2.88c-2.08,1.38-4.16,2.63-6.48,3.38c0-0.88,0-1.88,0.12-2.75
		c0.12-2.38,0.61-4.76,1.1-7.13c1.71-7.88,4.52-15.52,7.46-23.03c0.12-0.38,0.24-0.63,0.37-0.88c0.12-0.5,0.24-0.88,0.24-1.38
		c0-2.25-2.08-4.38-3.67-5.76c-1.34-1-2.81-2.13-4.52-2.38c-0.37-0.12-0.98-0.25-1.59-0.25c-0.61,0-1.1,0.12-1.34,0.63
		c-5.87,14.39-13.94,28.41-24.94,39.42C178.63,117.6,176.43,119.47,174.11,121.1z M304.95,105.71c3.18-7.63,7.21-15.39,13.82-20.15
		c0.49-0.38,1.1-0.75,1.71-1c0,0.88,0.37,1.63,0.86,2.5c0,1.13-0.12,2.38-0.25,3.5c-0.49,3.63-1.47,7.13-2.81,10.64
		c-3.18,7.63-7.95,14.77-14.67,19.65c-0.98,0.63-1.83,1.13-2.81,1.63h-0.12c0.12-2.38,0.61-4.63,1.1-7.01
		C302.63,112.22,303.73,108.84,304.95,105.71z"/>
	<path class="st0" d="M410.41,134.54c-24.44-3.33-48.91-1.76-73.22,0.67c-72.22,8.2-141.93,27.64-213.53,38.12
		c-23.71,3.32-47.67,6.02-71.39,4.53c-11.54-0.33-22.71-4.82-30.7-13.28c-7.57-7.93-12-19.33-6.59-29.53
		c5.06-9.9,15.46-15.83,24.86-21.59c9.85-5.87,9.4-5.82,20.28-11.14c0.76-0.26,1.95-0.88,3.32-1.71c7.79-3.82,15.6-7.49,23.6-10.93
		L76.77,103.2c-6.85,9.14-13.57,18.27-20.18,27.41c-3.42,4.76-6.85,9.39-10.15,14.14c-0.12,0.25-0.25,0.38-0.49,0.63
		c-0.24,0.38-0.37,0.88-0.37,1.25c0,2.25,2.57,4.88,3.91,5.76c1.22,1.13,2.81,2.13,4.4,2.5c0.49,0.12,0.98,0.25,1.47,0.25
		c0.61,0,1.22-0.12,1.59-0.63c2.69-3.88,5.38-7.63,8.07-11.39c6.85-9.51,13.7-18.9,20.67-28.16c8.93-11.89,17.97-23.78,27.27-35.42
		c9.17-3.25,18.46-6.01,27.88-8.26c2.2-0.5,4.4-1,6.6-1.38c-2.2,4.88-4.52,9.89-6.73,14.77c-6.48,13.77-13.08,27.53-19.69,41.3
		c-2.69,5.63-5.38,11.26-8.07,17.02c-0.24,0.38-0.24,0.88-0.24,1.25c0,2.25,2.2,4.51,3.79,5.76c1.34,1,2.81,2.13,4.4,2.5
		c0.37,0,0.98,0.12,1.59,0.12c0.61,0,1.22-0.12,1.47-0.63c5.62-12.01,11.37-23.9,17.12-35.79c7.21-15.14,14.31-30.29,21.03-45.55
		c0.49-1.25,0.98-2.38,1.47-3.5c1.96-0.25,3.91-0.5,5.75-0.63c6.11-0.63,12.23-0.88,18.34-0.88c5.14,0,10.27,0.12,15.29,0.63h0.24
		c0.86,0,1.71-0.63,1.83-1.5v-0.38c0-1.13-0.73-2.5-1.34-3.13c-1.83-2.63-4.89-5.13-8.19-5.38c-4.89-0.38-9.9-0.63-14.8-0.63
		c-4.03,0-8.07,0.12-12.1,0.37c3.42-8.13,6.6-16.39,9.17-24.78c1.22-3.76,2.44-7.76,2.57-11.76c0-1.88-0.24-3.63-0.98-5.26
		c-1.83-3.63-5.62-6.51-9.41-7.51c-0.73-0.25-1.47-0.25-2.2-0.25c-2.2,0-4.28,0.75-6.24,1.75c-3.42,1.75-6.48,4.26-9.54,6.76
		c-8.31,7.01-15.77,15.14-22.99,23.4c-9.05,10.26-17.85,20.9-26.41,31.79c-7.83,2.63-15.53,5.76-23.11,9.01
		c-6.32,2.64-12.59,5.49-18.81,8.47c-15.51,6.81-30.01,15.49-42.21,27.65c-16.61,16.82-18.59,37.07-1,53.97
		c9.3,9.07,22.1,13.91,34.48,14.25c24.39,1.64,48.58-1,72.5-4.22c71.43-10.17,141.76-28.28,213.6-34.87
		c23.54-1.96,47.56-2.8,70.81,1.19c10.77,1.91,22.75,4.69,31.77,10.71c2.91,2.13,6.14,4.72,5.1,8c-1.66,3.57-6.47,6.62-10.43,8.54
		c-3.18,1.8-4.33,5.89-2.57,9.14c1.76,3.25,5.76,4.43,8.93,2.63c6.51-3.88,12.79-7.93,15.78-16.17
		C463.32,143.79,426.38,136.94,410.41,134.54z M141.7,45.14c7.46-8.39,15.28-16.89,24.09-23.78c0.49-0.37,0.86-0.75,1.34-1
		c-0.49,1.75-1.1,3.5-1.59,5.13c-1.84,5.63-3.91,11.14-6.11,16.64c-2.08,5.01-4.16,10.01-6.36,15.02
		c-5.99,0.88-11.86,1.88-17.73,3.25c-2.81,0.5-5.62,1.25-8.44,2C131.67,56.52,136.68,50.77,141.7,45.14z"/>
	<path class="st0" d="M480.3,100.95c-1.34-1-2.81-2-4.52-2.38c-0.37-0.12-0.98-0.25-1.47-0.25c-0.61,0-1.1,0.13-1.47,0.63
		c-4.4,6.51-9.78,12.39-16.02,16.89c-1.47,1.13-3.06,2-4.77,2.75c0-0.25,0-0.5,0.12-0.88c0.12-2,0.49-4,0.86-6.01
		c1.47-6.51,3.79-12.76,6.24-19.02c0.98-2.25,1.96-4.63,2.93-7.01c0.24-0.5,0.24-0.88,0.24-1.38c0-2.13-2.2-4.38-3.67-5.63
		c-1.34-1.13-2.81-2.13-4.52-2.5c-0.37,0-0.98-0.13-1.47-0.13c-0.61,0-1.22,0.13-1.47,0.63c-0.98,2.13-2.08,4.38-3.18,6.51
		c-4.03-3.88-9.41-6.38-14.92-6.76h-0.98c-5.01,0-9.78,1.88-13.7,5.01c-4.4,3.63-7.7,9.14-10.15,14.27c-0.42,0.88-0.81,1.79-1.2,2.7
		c-0.47,1.09-0.92,2.19-1.34,3.31c-0.83,2.23-1.52,4.52-1.97,6.85c-0.23,1.17-0.4,2.35-0.5,3.54c-0.12,0.75-0.12,1.63-0.12,2.38
		c0,1.63,0.12,3.25,0.49,4.75c-0.37-1.5-0.49-3.13-0.49-4.75c0-0.75,0-1.63,0.12-2.38c0.1-1.19,0.27-2.37,0.5-3.54
		c0.46-2.34,1.15-4.62,1.97-6.85c0.41-1.12,0.86-2.22,1.34-3.31c-0.43,0.06-0.82,0.19-1,0.56c-3.79,6.88-8.32,13.52-13.45,19.27
		c-1.96,2.13-4.04,4.13-6.24,5.76c-0.86,0.5-1.59,1-2.44,1.38v-3.38c0.12-4.38,0.98-8.64,1.96-12.89
		c1.71-6.51,3.91-12.89,6.36-19.15l3.67-8.64c0.25-0.38,0.25-0.88,0.25-1.25c0-2.25-2.2-4.51-3.79-5.76c-1.22-1-2.81-2.13-4.4-2.5
		c-0.37,0-0.98-0.13-1.47-0.13c-0.73,0-1.35,0.13-1.59,0.63c-1.22,2.75-3.18,5.38-5.01,7.76c-2.69,3.25-5.75,6.38-9.29,8.89
		c-2.2,1.5-4.65,2.75-7.34,3.5c-0.37,0-0.73,0.12-1.1,0.25h-1.1c0-1.25,0.12-2.63,0.25-3.88c0.61-1.75,1.1-3.38,1.71-5.13v-0.37
		c0-0.25,0-0.63-0.12-0.88c-0.37-1.63-1.83-3.38-3.06-4.38c-0.61-0.63-1.22-1.13-1.96-1.5c-0.98-0.75-1.96-1.25-3.06-1.5
		c-0.61-0.25-1.1-0.25-1.59-0.25c-0.61,0-1.22,0.12-1.59,0.63c-0.98,1.88-1.71,4-1.96,6.26c-1.34,4.13-2.69,8.26-4.03,12.51
		c-2.93,9.51-5.99,18.9-9.05,28.41c-0.61,2.25-1.35,4.38-2.08,6.51v0.37c0,0.22,0.05,0.47,0.11,0.71c0.8-0.09,1.6-0.21,2.41-0.3
		c3.86-0.39,7.72-0.74,11.58-1.06c1.08-3.39,2.15-6.77,3.26-10.11c1.96-6.26,3.91-12.51,5.87-18.65c2.08,1.38,4.4,2.25,6.73,2.75
		c0.98,0.13,2.08,0.25,3.06,0.25c2.32,0,4.52-0.38,6.72-1.13c-0.24,1.13-0.49,2.13-0.73,3.25c-0.73,3.5-1.34,7.38-1.34,11.14
		c0,2.75,0.37,5.51,1.22,8.01c0.36,1.04,0.86,2.05,1.41,3.03c9.2-0.18,18.41,0.08,27.61,0.95c2.61,0.25,5.22,0.52,7.84,0.88
		c0.21,0.03,0.43,0.07,0.65,0.1c3.53,0.54,7.97,1.29,12.72,2.38c0.5-0.15,1-0.26,1.5-0.46c4.77-2,9.05-5.76,12.59-9.39
		c1.1-1.13,2.2-2.25,3.3-3.5c0.49,1.5,1.1,2.88,1.96,4.13c2.93,4.38,7.83,7.38,12.96,7.38c0.98,0,2.08-0.12,3.18-0.38
		c4.4-1.13,8.31-4.13,11.74-7.13c4.89-4.13,9.17-9.01,12.72-14.27c0.25-0.38,0.37-0.88,0.37-1.38
		C484.09,104.58,481.65,102.08,480.3,100.95z M442.64,88.81c0,0.38,0,0.63-0.12,0.75c-0.12,1.38-0.37,2.63-0.86,3.88
		c-0.12,0.13-0.12,0.25-0.12,0.38c-0.24,0.25-0.24,0.63-0.37,1c0,0.13-0.12,0.38-0.24,0.5c-4.03,6.01-8.44,11.76-13.45,16.89
		c-2.2,2.38-4.65,4.63-7.34,6.51c-1.71,1.13-3.42,2.13-5.26,2.75v-0.25c0.12-1.25,0.25-2.5,0.37-3.88c0.49-3.25,1.47-6.51,2.69-9.51
		c1.47-3.5,3.3-6.88,5.38-10.01c1.96-3,4.16-5.88,7.09-8.01c1.83-1.25,3.79-2.13,5.99-2.63c0.24,0,0.49-0.12,0.73-0.12
		c0.12,0,0.25-0.12,0.49-0.12H438c0.25,0,0.61-0.13,0.98-0.13c0.98,0,1.96,0.13,2.93,0.25c0.12,0,0.37,0,0.49,0.12
		c0.12,0.13,0.12,0.38,0.12,0.5c0,0.13,0,0.13,0.12,0.25V88.81z"/>
</g>
</svg>
