<?xml version="1.0" encoding="utf-8"?>
<!-- Generator: Adobe Illustrator 27.6.1, SVG Export Plug-In . SVG Version: 6.00 Build 0)  -->
<svg version="1.1" id="Layer_1" xmlns="http://www.w3.org/2000/svg" xmlns:xlink="http://www.w3.org/1999/xlink" x="0px" y="0px"
	 viewBox="0 0 85.66 86.03" style="enable-background:new 0 0 85.66 86.03;" xml:space="preserve">
<style type="text/css">
	.st0{fill:#FFFFFF;}
</style>
<g>
	<circle class="st0" cx="42.59" cy="42.85" r="40.54"/>
	<path d="M42.59,84.85c-23.16,0-42-18.84-42-42s18.84-42,42-42s42,18.84,42,42S65.75,84.85,42.59,84.85z M42.59,3.78
		C21.05,3.78,3.52,21.3,3.52,42.85s17.53,39.07,39.07,39.07s39.07-17.53,39.07-39.07S64.14,3.78,42.59,3.78z"/>
</g>
<g>
	<rect x="16.02" y="41.1" width="54.79" height="2.93"/>
</g>
<g>
	<polygon points="15.76,44.27 13.27,42.54 37.93,21.62 39.82,23.86 	"/>
</g>
<g>
	<polygon points="37.93,63.45 13.28,42.54 15.76,40.81 39.82,61.22 	"/>
</g>
</svg>
