<?xml version="1.0" encoding="utf-8"?>
<!-- Generator: Adobe Illustrator 27.6.1, SVG Export Plug-In . SVG Version: 6.00 Build 0)  -->
<svg version="1.1" id="Layer_1" xmlns="http://www.w3.org/2000/svg" xmlns:xlink="http://www.w3.org/1999/xlink" x="0px" y="0px"
	 viewBox="0 0 99.21 99.21" style="enable-background:new 0 0 99.21 99.21;" xml:space="preserve">
<style type="text/css">
	.st0{fill:#606161;}
</style>
<path class="st0" d="M97.72,46.23h-9.43c1.5-5.05,2.08-10,1.8-14.56c-0.61-9.89-5.2-17.03-12.28-19.12
	c-2.83-0.83-5.56-1.26-8.12-1.26c-9.71,0-15.07,5.94-17.4,9.49l-0.1,0.16l1.24,4.61l0.47-1.11c0.17-0.41,4.3-9.94,15.75-9.94
	c2.27,0,4.72,0.38,7.27,1.13c5.73,1.69,9.46,7.76,9.98,16.24c0.28,4.48-0.36,9.36-1.96,14.36H68.98l-6.44-8.78l-5.07,19.51
	l-9.12-37.35l-7.2,25.41l-5.86-11.33L27.88,46.1H11.79c-1.57-4.95-2.19-9.79-1.91-14.23c0.52-8.48,4.25-14.55,9.98-16.24
	c2.55-0.75,4.99-1.13,7.27-1.13c11.44,0,15.58,9.54,15.75,9.94l0.43,1.03l1.4-4.33l-0.11-0.16c-2.32-3.61-7.69-9.67-17.52-9.67
	c-2.56,0-5.3,0.42-8.12,1.26c-7.08,2.07-11.67,9.22-12.28,19.1C6.4,36.19,6.96,41.09,8.44,46.1H1.72v3.21h7.79
	c5.19,14.05,17.54,28.52,38.52,37.63l0.31,0.14l0.01,0.03l0.03-0.01l0.03,0.01l0.01-0.03l0.31-0.14
	c20.92-9.08,33.26-23.48,38.48-37.49h10.51C97.72,49.45,97.72,46.23,97.72,46.23z M48.38,83.57C29.4,75.07,18,62.03,12.93,49.3H29.7
	l5.39-9.03l6.94,13.41l6.1-21.51l8.86,36.31l0.8,0.01l6.16-23.7l3.41,4.65h16.42C78.69,62.12,67.3,75.1,48.38,83.57z"/>
</svg>
