<?xml version="1.0" encoding="utf-8"?>
<!-- Generator: Adobe Illustrator 27.6.1, SVG Export Plug-In . SVG Version: 6.00 Build 0)  -->
<svg version="1.1" id="Layer_1" xmlns="http://www.w3.org/2000/svg" xmlns:xlink="http://www.w3.org/1999/xlink" x="0px" y="0px"
	 viewBox="0 0 43 43" style="enable-background:new 0 0 43 43;" xml:space="preserve">
<style type="text/css">
	.st0{fill:#F25929;}
</style>
<path class="st0" d="M0.66,24.79c0.11,2.4,0.32,4.8,1.2,7.07c0.76,1.95,2.03,3.28,4.23,3.46c0.79,0.06,1.58,0.15,2.37,0.16
	c4.34,0.02,8.68,0.09,13.03,0.09c0,0.04,0-0.04,0,0c2.68,0,5.35,0.05,8.03,0c2.43-0.04,4.86-0.12,7.28-0.24
	c1.88-0.09,3.28-0.99,4.04-2.73c0.41-0.94,0.81-1.92,0.99-2.93c0.93-5.12,0.86-10.27,0.27-15.42c-0.21-1.79-0.64-3.54-1.65-5.09
	c-0.66-1.01-1.55-1.7-2.76-1.87c-1.11-0.15-2.22-0.28-3.34-0.3c-6.99-0.07-13.98-0.12-20.97-0.13c-2.37,0-4.75,0.16-7.12,0.27
	C4.38,7.23,2.98,8.12,2.22,9.86c-0.41,0.94-0.79,1.93-0.99,2.93C0.44,16.76,0.47,20.77,0.66,24.79z M16.32,13.39
	c4.37,2.62,8.65,5.19,13.08,7.84c-4.41,2.64-8.69,5.21-13.08,7.85C16.32,23.78,16.32,18.66,16.32,13.39z"/>
</svg>
