<?xml version="1.0" encoding="utf-8"?>
<!-- Generator: Adobe Illustrator 27.6.1, SVG Export Plug-In . SVG Version: 6.00 Build 0)  -->
<svg version="1.1" id="Layer_1" xmlns="http://www.w3.org/2000/svg" xmlns:xlink="http://www.w3.org/1999/xlink" x="0px" y="0px"
	 viewBox="0 0 158.05 97.68" style="enable-background:new 0 0 158.05 97.68;" xml:space="preserve">
<style type="text/css">
	.st0{fill:#494949;}
</style>
<g>
	<path class="st0" d="M48.63,16.37c0-1.48,0.04-2.96-0.04-4.44c-0.04-0.61,0.12-0.71,0.67-0.45c1.54,0.74,3.12,1.35,4.74,1.87
		c1.29,0.41,1.59,0.32,2.45-0.72c1.74-2.11,3.22-4.39,4.64-6.72c0.08-0.13,0.15-0.25,0.32-0.23c0.2,0.02,0.26,0.2,0.33,0.35
		c0.46,1.03,0.89,2.07,1.37,3.1c0.9,1.96,1.86,3.89,3,5.72c0.27,0.43,0.57,0.84,0.9,1.22c0.98,1.14,1.96,1.39,3.38,0.86
		c0.55-0.2,1.1-0.39,1.67-0.52c0.73-0.16,0.91-0.04,1.17,0.65c0.34,0.9,0.61,1.82,0.6,2.8c0,0.27,0.11,0.32,0.37,0.24
		c3.37-0.96,6.77-1.79,10.25-2.29c2.14-0.31,4.29-0.56,6.46-0.67c1.55-0.08,3.1-0.27,4.66-0.21c0.67,0.03,1.35,0.07,2.01,0.16
		c0.64,0.09,1.23,0.32,1.66,0.85c0.64,0.79,0.36,1.97-0.58,2.39c-0.51,0.23-1.03,0.27-1.59,0.25c-1.26-0.05-2.52-0.06-3.77,0
		c-0.12,0.01-0.23,0.02-0.35,0.02c-2.24-0.04-4.45,0.22-6.66,0.51c-3.04,0.39-6.05,0.95-9.01,1.72c-4.15,1.08-8.17,2.54-12.08,4.31
		c-2.24,1.02-4.41,2.15-6.52,3.4c-2.72,1.62-5.32,3.43-7.8,5.4c-2.41,1.92-4.66,4.01-6.82,6.2c-2.42,2.45-4.68,5.03-6.74,7.79
		c-2.3,3.07-4.37,6.28-6.17,9.67c-1.4,2.64-2.66,5.34-3.73,8.13c-1.64,4.26-2.82,8.65-3.57,13.16c-0.48,2.9-0.73,5.81-0.64,8.76
		c0.01,0.42-0.03,0.83-0.18,1.22c-0.36,0.97-1.38,1.45-2.32,1.02c-0.77-0.36-0.98-1.11-1.03-1.88c-0.06-1.14,0.03-2.28,0.08-3.42
		c0.06-1.36,0.16-2.72,0.35-4.07c0.25-1.73,0.55-3.46,0.91-5.17c0.46-2.19,1.03-4.34,1.7-6.47c0.05-0.15,0.1-0.3,0.14-0.45
		c0.15-0.54,0.12-0.57-0.43-0.6c-0.7-0.04-1.39-0.18-2.07-0.36c-0.75-0.2-1.49-0.45-2.23-0.69c-0.56-0.19-0.71-0.46-0.61-1.04
		c0.1-0.56,0.28-1.11,0.55-1.62c0.23-0.44,0.39-0.9,0.47-1.39c0.13-0.72-0.06-1.33-0.55-1.87c-0.62-0.68-1.35-1.21-2.11-1.72
		c-2.16-1.47-4.42-2.76-6.74-3.96c-0.46-0.24-0.91-0.49-1.36-0.75c-0.27-0.15-0.28-0.31,0.02-0.47c1.45-0.78,2.91-1.55,4.32-2.4
		c1.2-0.72,2.38-1.48,3.44-2.41c0.41-0.36,0.51-0.78,0.42-1.29c-0.17-0.93-0.41-1.85-0.7-2.75c-0.3-0.95-0.55-1.92-0.96-2.84
		c-0.16-0.37-0.07-0.52,0.34-0.49c0.88,0.07,1.75,0.18,2.63,0.24c1.4,0.11,2.79,0.21,4.19,0.28c1.97,0.11,3.94,0.14,5.91,0.09
		c0.6-0.01,1.19-0.07,1.77-0.23c0.61-0.17,0.69-0.38,0.39-0.91c-0.26-0.46-0.63-0.82-1-1.19c-1.7-1.65-3.61-3.04-5.5-4.46
		c-2.38-1.78-4.84-3.45-7.29-5.13c-1.45-1-2.94-1.95-4.41-2.93c-0.12-0.08-0.33-0.13-0.27-0.33c0.05-0.18,0.25-0.15,0.4-0.18
		c1.39-0.27,2.74-0.71,4.11-1.06c0.77-0.2,1.54-0.36,2.28-0.64c0.38-0.14,0.74-0.31,1.1-0.5c0.85-0.47,1.09-1.02,0.97-2
		c-0.21-1.62-0.7-3.17-1.19-4.71c-0.61-1.89-1.24-3.77-1.88-5.65c-0.38-1.12-0.78-2.23-1.16-3.35c-0.04-0.12-0.12-0.25-0.03-0.37
		c0.1-0.12,0.21-0.02,0.32,0.02c1.31,0.5,2.62,1,3.93,1.49c2.2,0.82,4.4,1.64,6.61,2.45c1.01,0.37,2.03,0.72,3.08,0.95
		c0.84,0.19,1.38-0.16,1.8-0.81c0.41-0.65,0.73-1.34,0.98-2.07c0.61-1.72,1.23-3.44,1.85-5.17c0.02-0.06,0.04-0.12,0.07-0.18
		c0.05-0.11,0.09-0.24,0.21-0.26c0.15-0.03,0.17,0.13,0.23,0.23c1.02,1.82,2.01,3.66,3.07,5.46c1.56,2.66,3.11,5.33,4.79,7.93
		c1.03,1.59,2.04,3.2,3.24,4.67c0.34,0.42,0.67,0.87,1.14,1.16c0.42,0.26,0.6,0.2,0.82-0.25c0.4-0.84,0.48-1.75,0.57-2.65
		C48.66,21.3,48.66,18.84,48.63,16.37z"/>
</g>
<path class="st0" d="M75.69,58.53c-0.65,0-1.3-0.03-1.95,0.01c-0.51,0.03-0.76-0.12-0.93-0.65c-0.57-1.8-1.58-3.32-3.21-4.34
	c-3.69-2.3-8.98-0.98-11.14,2.8c-1.2,2.1-1.82,4.36-1.9,6.78c-0.08,2.36,0.09,4.66,1.04,6.86c1.16,2.7,3.01,4.65,6,5.15
	c4.82,0.82,8.22-1.5,9.2-5.95c0.09-0.43,0.12-0.87,0.16-1.31c0.02-0.27,0.11-0.44,0.4-0.46c1.61-0.14,3.21-0.11,4.82-0.04
	c0.28,0.01,0.35,0.18,0.32,0.43c-0.68,6.23-3.94,10.79-10.37,11.96c-7.18,1.31-13.44-2.32-15.81-8.93
	c-1.99-5.52-1.79-11.01,1.21-16.17c2.36-4.06,6.01-6.2,10.7-6.57c2.33-0.18,4.61,0.04,6.77,0.92c3.95,1.61,6.55,4.43,7.4,8.7
	c0.15,0.78,0.12,0.81-0.68,0.81C77.03,58.53,76.36,58.53,75.69,58.53z"/>
<path class="st0" d="M137.2,48.8c0.73,0,1.46,0.03,2.18-0.01c0.55-0.04,0.84,0.18,1.02,0.69c0.68,1.87,1.37,3.74,2.07,5.6
	c1.81,4.78,3.64,9.55,5.45,14.33c1.17,3.1,2.29,6.21,3.45,9.31c0.14,0.38,0.08,0.52-0.35,0.51c-1.51-0.02-3.03-0.03-4.54,0
	c-0.51,0.01-0.76-0.21-0.92-0.66c-0.81-2.21-1.65-4.41-2.45-6.62c-0.16-0.45-0.39-0.57-0.84-0.57c-3.51,0.02-7.01,0.02-10.52,0
	c-0.5,0-0.72,0.15-0.89,0.63c-0.78,2.22-1.63,4.42-2.43,6.63c-0.15,0.42-0.37,0.6-0.84,0.59c-1.38-0.03-2.76-0.01-4.14-0.01
	c-0.69,0-0.7-0.02-0.46-0.67c1.84-4.89,3.68-9.78,5.52-14.67c1.8-4.76,3.6-9.52,5.38-14.29c0.22-0.59,0.53-0.85,1.17-0.8
	C135.78,48.84,136.49,48.8,137.2,48.8z M137.2,54.67c-0.27,0.19-0.27,0.4-0.33,0.58c-1.31,3.78-2.69,7.53-4.16,11.25
	c-0.26,0.66-0.24,0.69,0.5,0.69c2.53,0,5.06,0,7.59,0c0.79,0,0.8-0.01,0.52-0.78c-1.16-3.28-2.34-6.56-3.41-9.87
	C137.7,55.92,137.45,55.32,137.2,54.67z"/>
<path class="st0" d="M85.15,63.96c0-4.77,0-9.54,0-14.3c0-0.86,0-0.86,0.85-0.86c6.46,0,12.92,0,19.37,0c0.87,0,0.87,0,0.87,0.9
	c0,1.05-0.02,2.11,0.02,3.16c0.02,0.56-0.19,0.73-0.73,0.73c-4.73-0.02-9.47-0.01-14.2-0.04c-0.57,0-0.72,0.17-0.71,0.71
	c0.05,2.16,0.06,4.33,0.07,6.49c0,0.41,0.13,0.58,0.56,0.58c4.08-0.01,8.16,0.01,12.24-0.03c0.54,0,0.66,0.17,0.65,0.63
	c-0.01,1.01,0.02,2.03,0.02,3.04c0,0.68-0.07,0.77-0.75,0.77c-2.74,0.01-5.48,0-8.22,0c-1.28,0-2.57,0.02-3.85-0.01
	c-0.51-0.01-0.7,0.18-0.71,0.65c0,0.8-0.04,1.61-0.01,2.41c0.16,3.27-0.01,6.55-0.01,9.82c0,0.45-0.17,0.6-0.61,0.6
	c-1.38-0.02-2.76-0.03-4.14,0c-0.56,0.01-0.73-0.18-0.73-0.73C85.16,73.65,85.16,68.8,85.15,63.96
	C85.16,63.96,85.16,63.96,85.15,63.96z"/>
<path class="st0" d="M117.64,64.04c0,4.77,0,9.53,0,14.3c0,0.86,0,0.86-0.89,0.87c-1.28,0-2.57-0.03-3.85,0.01
	c-0.59,0.02-0.74-0.18-0.75-0.75c-0.16-7.31-0.03-14.63-0.07-21.94c-0.01-2.35,0-4.71-0.03-7.06c-0.01-0.55,0.19-0.69,0.7-0.68
	c1.4,0.02,2.8,0.03,4.2,0c0.57-0.01,0.71,0.19,0.7,0.73C117.64,54.36,117.64,59.2,117.64,64.04z"/>
</svg>
