<?xml version="1.0" encoding="utf-8"?>
<!-- Generator: Adobe Illustrator 27.6.1, SVG Export Plug-In . SVG Version: 6.00 Build 0)  -->
<svg version="1.1" id="Layer_1" xmlns="http://www.w3.org/2000/svg" xmlns:xlink="http://www.w3.org/1999/xlink" x="0px" y="0px"
	 viewBox="0 0 225 225" style="enable-background:new 0 0 225 225;" xml:space="preserve">
<style type="text/css">
	.st0{fill:#2E318E;}
	.st1{fill:#FFFFFF;}
	.st2{fill:#3FC6F1;}
</style>
<circle class="st0" cx="112.5" cy="112.5" r="109.56"/>
<g>
	<path class="st1" d="M152.73,55.68l-2.49-0.03c-9.2,0-14.71,3.53-17.91,7.07c-6.52-5.31-14.62-8.22-23.02-8.22
		c-20.17,0-36.58,16.41-36.58,36.58s16.41,36.58,36.58,36.58s36.58-16.41,36.58-36.58c0-4.96-1-9.78-2.97-14.34
		c5.19-2.41,10.36-7.67,9.88-19.1L152.73,55.68z M109.32,77.44c7.52,0,13.64,6.12,13.64,13.64c0,7.52-6.12,13.64-13.64,13.64
		S95.67,98.6,95.67,91.08C95.67,83.56,101.79,77.44,109.32,77.44z"/>
	<path class="st1" d="M124.27,131.45c-0.62,9.45-7.09,16.91-14.96,16.91c-7.94,0-14.45-7.59-14.97-17.16l-22.19-3.3v2.07
		c0,22.35,16.67,40.54,37.16,40.54c20.49,0,37.16-18.18,37.16-40.54v-1.82L124.27,131.45z"/>
</g>
<g>
	<path class="st2" d="M132.6,28.39c-3.21-0.75-5.15-3.88-4.41-7.07c0.75-3.19,3.86-5.14,7.07-4.39c1.71,0.4,3.15,1.44,3.95,2.85
		l-1.02,0.65c-0.63-1.17-1.83-2.05-3.2-2.37c-2.54-0.59-4.96,0.95-5.57,3.55c-0.61,2.6,0.88,5.06,3.42,5.65
		c2.25,0.53,4.36-0.67,5.06-2.8l-3.98-0.93l0.25-1.08l5.22,1.22l-0.12,0.49C138.55,27.25,135.64,29.1,132.6,28.39z"/>
	<path class="st2" d="M140.53,30.49l-1.14-0.38l3.6-10.82l1.23,0.12L140.53,30.49z"/>
	<path class="st2" d="M148.99,24.79c2.14,0.89,3.12,3.31,2.21,5.5c-0.92,2.21-3.33,3.22-5.46,2.34c-2.15-0.89-3.14-3.31-2.22-5.52
		C144.42,24.91,146.84,23.9,148.99,24.79z M150.1,29.83c0.68-1.64,0.01-3.42-1.53-4.05c-1.53-0.64-3.28,0.14-3.96,1.78
		c-0.68,1.64-0.01,3.43,1.54,4.08C147.68,32.27,149.42,31.47,150.1,29.83z"/>
	<path class="st2" d="M154.71,27.54l1.07,0.56l-0.53,1.03c0.82-0.53,1.76-0.59,2.64-0.13c0.27,0.14,0.45,0.27,0.63,0.45L158,30.43
		c-0.21-0.22-0.44-0.39-0.68-0.52c-0.9-0.47-1.85-0.3-2.73,0.47l-2.58,4.96l-1.07-0.56L154.71,27.54z"/>
	<path class="st2" d="M156.8,37.99l-1.04-0.61l4.12-7.05l1.04,0.61L156.8,37.99z M160.9,28.17c0.23-0.39,0.73-0.51,1.12-0.29
		c0.39,0.23,0.52,0.72,0.29,1.11c-0.22,0.38-0.72,0.52-1.12,0.29C160.81,29.06,160.68,28.55,160.9,28.17z"/>
	<path class="st2" d="M165.12,29.62l4.07,2.82c1.83,1.27,2.28,3.17,1.15,4.8c-1.13,1.63-3.09,1.88-4.91,0.62l-3.04-2.11l-2.74,3.95
		l-1.03-0.71L165.12,29.62z M165.51,31.26l-2.5,3.6l2.96,2.05c1.27,0.88,2.56,0.74,3.33-0.37c0.77-1.11,0.44-2.35-0.83-3.23
		L165.51,31.26z"/>
	<path class="st2" d="M169.17,47.09c-1.79-1.54-1.99-4.14-0.42-5.95c1.53-1.78,4.09-2.03,5.79-0.56c1.64,1.41,1.71,3.93,0.18,5.71
		l-0.24,0.28l-5.08-4.37c-0.92,1.34-0.73,3.07,0.49,4.12c0.64,0.55,1.47,0.9,2.19,0.9l0.05,1.09
		C171,48.24,170.06,47.86,169.17,47.09z M170.06,41.49l4.14,3.56c0.79-1.24,0.66-2.81-0.37-3.69
		C172.75,40.44,171.21,40.51,170.06,41.49z"/>
	<path class="st2" d="M178.62,45.91l-1.24-1.25l0.73-0.72l1.24,1.25l1.47-1.46l1.06,0.63l-1.69,1.67l1.73,1.75l-0.73,0.72
		l-1.73-1.75l-3.56,3.52c-0.62,0.62-0.62,1.11,0.01,1.75c0.32,0.32,0.58,0.52,0.99,0.7l-0.75,0.74c-0.4-0.2-0.83-0.53-1.16-0.87
		c-1-1.01-1.06-2.04-0.14-2.95L178.62,45.91z"/>
	<path class="st2" d="M179.62,51.17c1.8-1.51,4.36-1.31,5.85,0.46c0.6,0.71,0.91,1.62,0.92,2.59l0.62-0.52l0.76,0.91l-6.41,5.37
		c-1.6,1.34-3.29,1.12-4.75-0.62c-0.73-0.87-1.23-1.95-1.4-2.99l1.06-0.21c0.23,1.08,0.57,1.84,1.11,2.49
		c0.99,1.19,2.09,1.33,3.19,0.41l0.84-0.7c-0.95-0.17-1.77-0.64-2.39-1.38C177.57,55.24,177.81,52.68,179.62,51.17z M179.9,56.37
		c0.67,0.8,1.56,1.23,2.46,1.19l3.07-2.57c0.18-0.87-0.09-1.84-0.75-2.62c-1.09-1.3-2.95-1.42-4.3-0.29
		C179.03,53.21,178.82,55.09,179.9,56.37z"/>
	<path class="st2" d="M191.59,59.76c1.29,1.92,0.77,4.48-1.2,5.81c-1.99,1.33-4.56,0.84-5.85-1.08c-1.3-1.93-0.78-4.5,1.21-5.83
		C187.72,57.33,190.29,57.83,191.59,59.76z M189.72,64.58c1.47-0.99,1.9-2.84,0.97-4.22c-0.93-1.38-2.81-1.7-4.28-0.72
		c-1.48,0.99-1.91,2.85-0.98,4.25C186.36,65.27,188.25,65.57,189.72,64.58z"/>
	<path class="st2" d="M196.59,63.1l1.86,3.29l-0.51,0.29l-0.77-1.36l-3.35,1.89l-0.33-0.58l3.35-1.89l-0.77-1.36L196.59,63.1z"/>
	<path class="st2" d="M198.29,67.86l-3.22,1.62l-0.28-0.55l3.96-1.99l0.4,0.79l-1.9,2.51l3.15-0.03l0.4,0.79l-3.96,1.99l-0.28-0.56
		l3.23-1.62l-3.69,0L198.29,67.86z"/>
	<path class="st2" d="M196.65,92.1c-0.78-3.2,1.13-6.35,4.31-7.13c3.18-0.78,6.33,1.12,7.11,4.32c0.42,1.71,0.14,3.46-0.75,4.82
		l-1.04-0.62c0.76-1.09,1-2.56,0.67-3.92c-0.62-2.53-3.09-3.99-5.69-3.36c-2.6,0.64-4.11,3.07-3.49,5.6
		c0.55,2.25,2.57,3.58,4.79,3.24l-0.97-3.97l1.08-0.26l1.27,5.21l-0.49,0.12C200.36,96.89,197.4,95.14,196.65,92.1z"/>
	<path class="st2" d="M198.38,100.11l-0.18-1.19l11.28-1.7l0.45,1.15L198.38,100.11z"/>
	<path class="st2" d="M207.3,105.1c0.18,2.31-1.53,4.29-3.9,4.47c-2.39,0.19-4.38-1.51-4.56-3.81c-0.18-2.32,1.53-4.3,3.92-4.49
		C205.13,101.09,207.12,102.78,207.3,105.1z M203.31,108.39c1.77-0.14,3.05-1.54,2.92-3.2c-0.13-1.66-1.61-2.87-3.38-2.73
		c-1.77,0.14-3.07,1.55-2.94,3.22C200.04,107.33,201.54,108.52,203.31,108.39z"/>
	<path class="st2" d="M207.45,111.45l-0.02,1.21l-1.16-0.02c0.84,0.5,1.31,1.31,1.3,2.3c-0.01,0.31-0.04,0.52-0.13,0.76l-1.11-0.02
		c0.1-0.29,0.16-0.57,0.16-0.84c0.02-1.01-0.56-1.78-1.64-2.23l-5.59-0.09l0.02-1.21L207.45,111.45z"/>
	<path class="st2" d="M199.09,118.05l0.07-1.2l8.15,0.46l-0.07,1.2L199.09,118.05z M209.7,117.23c0.46,0.03,0.79,0.42,0.77,0.86
		c-0.03,0.46-0.4,0.79-0.86,0.77c-0.44-0.03-0.79-0.4-0.77-0.86C208.86,117.56,209.26,117.2,209.7,117.23z"/>
	<path class="st2" d="M210.34,121.65l-0.66,4.91c-0.3,2.21-1.78,3.48-3.75,3.22c-1.97-0.26-3.09-1.89-2.79-4.09l0.49-3.67
		l-4.77-0.64l0.17-1.24L210.34,121.65z M209.06,122.75l-4.35-0.58l-0.48,3.57c-0.2,1.54,0.51,2.62,1.85,2.8
		c1.34,0.18,2.29-0.68,2.5-2.22L209.06,122.75z"/>
	<path class="st2" d="M196.64,133.18c0.56-2.3,2.78-3.65,5.1-3.09c2.28,0.55,3.67,2.71,3.14,4.9c-0.51,2.1-2.71,3.31-4.99,2.76
		l-0.36-0.09l1.58-6.51c-1.61-0.21-3.06,0.75-3.44,2.32c-0.2,0.82-0.13,1.71,0.2,2.36l-0.95,0.54
		C196.45,135.33,196.36,134.32,196.64,133.18z M202.03,131.42l-1.28,5.3c1.46,0.14,2.8-0.7,3.12-2.01
		C204.19,133.33,203.43,131.99,202.03,131.42z"/>
	<path class="st2" d="M202,141.05l0.55-1.67l0.97,0.32l-0.55,1.67l1.97,0.65l-0.08,1.23l-2.26-0.74l-0.77,2.34l-0.97-0.32l0.77-2.34
		l-4.75-1.56c-0.84-0.28-1.27-0.04-1.55,0.81c-0.14,0.43-0.2,0.76-0.17,1.2l-1.01-0.33c-0.01-0.45,0.1-0.98,0.25-1.43
		c0.44-1.35,1.34-1.88,2.56-1.47L202,141.05z"/>
	<path class="st2" d="M197.76,144.34c2.16,0.92,3.15,3.29,2.24,5.42c-0.36,0.85-1.03,1.54-1.89,1.99l0.75,0.32l-0.47,1.09
		l-7.68-3.28c-1.92-0.82-2.49-2.43-1.6-4.51c0.45-1.05,1.18-1.98,2.03-2.6l0.66,0.85c-0.86,0.69-1.39,1.34-1.72,2.12
		c-0.61,1.42-0.24,2.47,1.08,3.03l1,0.43c-0.28-0.92-0.23-1.87,0.15-2.75C193.2,144.36,195.59,143.41,197.76,144.34z M193.24,146.95
		c-0.41,0.96-0.39,1.94,0.05,2.73l3.69,1.58c0.86-0.23,1.59-0.91,2-1.86c0.67-1.56-0.07-3.27-1.69-3.97
		C195.67,144.74,193.9,145.41,193.24,146.95z"/>
	<path class="st2" d="M195.51,158.93c-1.13,2.02-3.65,2.71-5.73,1.55c-2.09-1.17-2.81-3.69-1.68-5.71c1.14-2.03,3.66-2.73,5.75-1.56
		C195.93,154.39,196.65,156.9,195.51,158.93z M190.36,159.45c1.55,0.87,3.4,0.41,4.21-1.04c0.81-1.45,0.25-3.28-1.3-4.15
		c-1.55-0.87-3.41-0.42-4.23,1.04C188.23,156.75,188.81,158.58,190.36,159.45z"/>
	<path class="st2" d="M194.81,164.86l-2.09,3.14l-0.49-0.33l0.86-1.29l-3.19-2.12l0.37-0.55l3.19,2.13l0.86-1.29L194.81,164.86z"/>
	<path class="st2" d="M191.34,168.55l-2.91-2.15l0.37-0.5l3.57,2.64l-0.53,0.71l-3.11-0.56l1.45,2.8l-0.53,0.71l-3.57-2.64
		l0.37-0.51l2.91,2.15l-1.67-3.3L191.34,168.55z"/>
	<path class="st2" d="M172.6,174.83c2.36-2.29,6.05-2.23,8.33,0.12c2.28,2.35,2.23,6.03-0.13,8.32c-1.27,1.23-2.91,1.87-4.54,1.78
		l0.01-1.21c1.32,0.1,2.72-0.43,3.72-1.4c1.87-1.81,1.88-4.68,0.03-6.6c-1.86-1.92-4.73-2-6.6-0.19c-1.66,1.61-1.79,4.03-0.38,5.77
		l2.94-2.84l0.77,0.8l-3.85,3.73l-0.35-0.36C170.33,180.45,170.35,177,172.6,174.83z"/>
	<path class="st2" d="M166.56,180.36l0.94-0.76l7.16,8.88l-0.76,0.97L166.56,180.36z"/>
	<path class="st2" d="M166.77,190.58c-1.9,1.32-4.47,0.85-5.83-1.11c-1.37-1.97-0.92-4.54,0.99-5.87c1.91-1.33,4.49-0.85,5.85,1.11
		C169.14,186.67,168.69,189.25,166.77,190.58z M161.92,188.79c1.01,1.46,2.87,1.85,4.24,0.9c1.37-0.95,1.66-2.84,0.64-4.3
		c-1.01-1.46-2.88-1.87-4.26-0.91C161.17,185.44,160.9,187.33,161.92,188.79z"/>
	<path class="st2" d="M161.4,193.88l-1.05,0.6l-0.58-1c0,0.98-0.45,1.8-1.31,2.29c-0.27,0.16-0.47,0.23-0.72,0.28l-0.55-0.96
		c0.3-0.06,0.57-0.16,0.81-0.3c0.88-0.5,1.25-1.39,1.07-2.55l-2.79-4.85l1.05-0.6L161.4,193.88z"/>
	<path class="st2" d="M151.44,190.03l1.07-0.55l3.72,7.27l-1.07,0.55L151.44,190.03z M157.5,198.77c0.21,0.41,0.04,0.9-0.36,1.1
		c-0.41,0.21-0.89,0.05-1.1-0.35c-0.2-0.39-0.05-0.89,0.35-1.1C156.79,198.22,157.3,198.38,157.5,198.77z"/>
	<path class="st2" d="M154,201.55l-4.57,1.9c-2.06,0.86-3.9,0.21-4.66-1.63c-0.76-1.84,0.08-3.62,2.13-4.47l3.41-1.42l-1.85-4.44
		l1.16-0.48L154,201.55z M152.41,200.99l-1.68-4.05l-3.32,1.38c-1.43,0.6-2.01,1.75-1.49,3c0.52,1.25,1.74,1.64,3.17,1.04
		L152.41,200.99z"/>
	<path class="st2" d="M137.13,195.52c2.27-0.67,4.56,0.56,5.24,2.86c0.67,2.25-0.5,4.54-2.66,5.18c-2.08,0.62-4.23-0.67-4.91-2.93
		l-0.11-0.36l6.42-1.92c-0.63-1.5-2.19-2.27-3.74-1.81c-0.81,0.24-1.54,0.75-1.94,1.36l-0.95-0.55
		C135.18,196.45,136.01,195.86,137.13,195.52z M141.37,199.3l-5.23,1.56c0.62,1.33,2.01,2.07,3.31,1.68
		C140.8,202.14,141.58,200.8,141.37,199.3z"/>
	<path class="st2" d="M132.99,204.11l1.72-0.36l0.21,1.01l-1.72,0.36l0.43,2.02l-1.1,0.55l-0.49-2.33l-2.41,0.51l-0.21-1.01
		l2.41-0.51l-1.03-4.89c-0.18-0.86-0.6-1.12-1.48-0.94c-0.45,0.09-0.75,0.21-1.12,0.45l-0.22-1.03c0.38-0.23,0.9-0.41,1.36-0.5
		c1.39-0.29,2.29,0.22,2.56,1.47L132.99,204.11z"/>
	<path class="st2" d="M128.05,202.1c0.29,2.33-1.26,4.37-3.56,4.66c-0.92,0.12-1.85-0.11-2.67-0.64l0.1,0.81l-1.18,0.15l-1.03-8.29
		c-0.26-2.07,0.84-3.37,3.09-3.65c1.13-0.14,2.3,0.03,3.27,0.45l-0.4,1c-1.03-0.4-1.85-0.52-2.69-0.42
		c-1.54,0.19-2.25,1.03-2.07,2.46l0.13,1.08c0.65-0.71,1.5-1.14,2.45-1.26C125.73,198.17,127.75,199.76,128.05,202.1z
		 M123.52,199.51c-1.03,0.13-1.87,0.64-2.33,1.42l0.49,3.98c0.64,0.63,1.59,0.92,2.61,0.79c1.68-0.21,2.79-1.71,2.57-3.45
		C126.65,200.51,125.19,199.31,123.52,199.51z"/>
	<path class="st2" d="M114.29,207.51c-2.31,0.04-4.19-1.78-4.23-4.16c-0.04-2.39,1.76-4.28,4.08-4.32c2.33-0.04,4.2,1.78,4.24,4.18
		C118.43,205.58,116.62,207.46,114.29,207.51z M111.25,203.32c0.03,1.78,1.36,3.14,3.02,3.11c1.66-0.03,2.96-1.44,2.92-3.21
		c-0.03-1.77-1.36-3.15-3.04-3.12C112.5,200.13,111.22,201.55,111.25,203.32z"/>
	<path class="st2" d="M108.83,209.9l-3.77-0.22l0.03-0.59l1.55,0.09l0.23-3.84l0.66,0.04l-0.23,3.84l1.55,0.09L108.83,209.9z"/>
	<path class="st2" d="M103.91,208.77l0.38-3.59l0.62,0.06l-0.46,4.41l-0.88-0.09l-1.09-2.96l-1.68,2.67l-0.88-0.09l0.46-4.41
		l0.62,0.07l-0.38,3.6l1.99-3.11L103.91,208.77z"/>
	<path class="st2" d="M91.85,196.51c3.2,0.78,5.11,3.93,4.34,7.11c-0.77,3.18-3.91,5.1-7.11,4.32c-1.71-0.42-3.13-1.47-3.93-2.89
		l1.03-0.64c0.62,1.17,1.81,2.07,3.17,2.4c2.53,0.62,4.97-0.9,5.6-3.5c0.63-2.6-0.83-5.06-3.36-5.68c-2.25-0.55-4.36,0.63-5.08,2.75
		l3.97,0.97l-0.26,1.08l-5.21-1.27l0.12-0.49C85.89,197.59,88.81,195.77,91.85,196.51z"/>
	<path class="st2" d="M83.94,194.34l1.14,0.39l-3.7,10.79l-1.23-0.13L83.94,194.34z"/>
	<path class="st2" d="M75.41,199.95c-2.13-0.9-3.09-3.33-2.16-5.52c0.94-2.2,3.36-3.19,5.49-2.28c2.14,0.91,3.11,3.34,2.17,5.54
		C79.97,199.88,77.55,200.86,75.41,199.95z M74.34,194.89c-0.7,1.63-0.04,3.42,1.49,4.07c1.53,0.65,3.28-0.1,3.98-1.74
		c0.7-1.63,0.05-3.43-1.5-4.09C76.78,192.48,75.04,193.26,74.34,194.89z"/>
	<path class="st2" d="M69.76,197.16l-1.06-0.57l0.54-1.02c-0.83,0.52-1.76,0.57-2.64,0.11c-0.27-0.14-0.44-0.27-0.62-0.46l0.52-0.98
		c0.21,0.23,0.43,0.4,0.68,0.53c0.89,0.47,1.84,0.32,2.73-0.45l2.62-4.93l1.06,0.57L69.76,197.16z"/>
	<path class="st2" d="M63.54,196.46c-0.23,0.39-0.74,0.51-1.12,0.28c-0.39-0.23-0.52-0.73-0.28-1.12c0.23-0.38,0.73-0.52,1.12-0.28
		C63.63,195.56,63.76,196.08,63.54,196.46z M67.72,186.68l1.04,0.62l-4.18,7.01l-1.04-0.62L67.72,186.68z"/>
	<path class="st2" d="M59.33,194.97l-4.04-2.86c-1.82-1.29-2.25-3.19-1.11-4.81c1.15-1.62,3.11-1.85,4.92-0.57l3.02,2.14l2.77-3.93
		l1.02,0.73L59.33,194.97z M58.96,193.33l2.53-3.58l-2.94-2.08c-1.26-0.89-2.55-0.77-3.33,0.34c-0.78,1.1-0.46,2.35,0.8,3.24
		L58.96,193.33z"/>
	<path class="st2" d="M55.46,177.48c1.78,1.56,1.95,4.16,0.37,5.96c-1.55,1.77-4.11,2-5.8,0.51c-1.63-1.43-1.68-3.94-0.14-5.71
		l0.25-0.28l5.04,4.41c0.93-1.33,0.75-3.07-0.46-4.13c-0.64-0.56-1.46-0.91-2.19-0.92l-0.04-1.1
		C53.64,176.32,54.58,176.71,55.46,177.48z M54.53,183.08l-4.11-3.6c-0.8,1.23-0.68,2.81,0.34,3.7
		C51.83,184.11,53.37,184.06,54.53,183.08z"/>
	<path class="st2" d="M45.99,178.56l1.23,1.26l-0.74,0.72l-1.23-1.26l-1.48,1.44l-1.05-0.64l1.71-1.66l-1.71-1.76l0.74-0.72
		l1.71,1.77l3.59-3.49c0.63-0.61,0.63-1.11,0-1.75c-0.32-0.33-0.58-0.53-0.98-0.71l0.76-0.74c0.4,0.2,0.82,0.54,1.15,0.88
		c0.99,1.02,1.04,2.05,0.12,2.95L45.99,178.56z"/>
	<path class="st2" d="M45.05,173.31c-1.81,1.49-4.37,1.27-5.84-0.52c-0.59-0.72-0.89-1.63-0.89-2.6l-0.63,0.52l-0.76-0.92l6.46-5.3
		c1.61-1.32,3.3-1.09,4.74,0.66c0.72,0.88,1.21,1.96,1.37,3.01l-1.06,0.2c-0.22-1.09-0.55-1.85-1.09-2.5
		c-0.98-1.2-2.08-1.35-3.19-0.44l-0.84,0.69c0.94,0.18,1.77,0.66,2.38,1.4C47.14,169.26,46.88,171.81,45.05,173.31z M44.83,168.1
		c-0.66-0.81-1.54-1.24-2.45-1.21l-3.1,2.54c-0.19,0.87,0.07,1.84,0.73,2.63c1.08,1.31,2.94,1.45,4.3,0.33S45.89,169.4,44.83,168.1z
		"/>
	<path class="st2" d="M33.14,164.57c-1.27-1.94-0.72-4.5,1.27-5.8c2-1.31,4.57-0.79,5.84,1.15c1.28,1.95,0.73,4.51-1.27,5.82
		C36.98,167.04,34.42,166.52,33.14,164.57z M35.06,159.76c-1.49,0.97-1.93,2.82-1.02,4.21c0.91,1.39,2.79,1.73,4.28,0.76
		c1.49-0.97,1.94-2.83,1.02-4.24C38.43,159.11,36.55,158.79,35.06,159.76z"/>
	<path class="st2" d="M28.19,161.23l-1.83-3.32l0.52-0.29l0.75,1.37l3.37-1.86l0.32,0.58l-3.37,1.86l0.75,1.37L28.19,161.23z"/>
	<path class="st2" d="M26.53,156.44l3.25-1.58l0.27,0.56l-3.99,1.94l-0.39-0.8l1.94-2.49l-3.16-0.01l-0.39-0.8l3.99-1.94l0.27,0.56
		l-3.25,1.58l3.69,0.04L26.53,156.44z"/>
	<path class="st2" d="M29.9,137.84c0.97,3.15-0.75,6.41-3.88,7.38c-3.13,0.97-6.39-0.74-7.36-3.89c-0.52-1.68-0.35-3.44,0.47-4.85
		l1.08,0.55c-0.69,1.14-0.85,2.62-0.43,3.96c0.77,2.49,3.32,3.8,5.88,3.02s3.93-3.31,3.16-5.8c-0.68-2.21-2.78-3.43-4.97-2.95
		l1.21,3.91l-1.06,0.33l-1.58-5.13l0.48-0.15C25.91,133.27,28.98,134.85,29.9,137.84z"/>
	<path class="st2" d="M27.71,129.95l0.25,1.18l-11.15,2.35l-0.52-1.12L27.71,129.95z"/>
	<path class="st2" d="M18.51,125.52c-0.31-2.29,1.27-4.37,3.63-4.69c2.37-0.33,4.46,1.24,4.78,3.54c0.32,2.31-1.27,4.39-3.65,4.71
		C20.92,129.4,18.83,127.82,18.51,125.52z M22.31,122c-1.76,0.24-2.95,1.72-2.73,3.37c0.23,1.65,1.78,2.76,3.54,2.52
		c1.76-0.24,2.97-1.72,2.74-3.38C25.63,122.86,24.07,121.76,22.31,122z"/>
	<path class="st2" d="M18.02,119.21l-0.06-1.2l1.15-0.06c-0.87-0.44-1.4-1.22-1.45-2.21c-0.02-0.31,0.01-0.52,0.07-0.77l1.11-0.06
		c-0.08,0.3-0.12,0.58-0.1,0.85c0.05,1.01,0.68,1.74,1.79,2.11l5.58-0.28l0.06,1.2L18.02,119.21z"/>
	<path class="st2" d="M15.44,113.67c-0.46,0.01-0.82-0.36-0.83-0.8c-0.01-0.46,0.34-0.82,0.8-0.83c0.44-0.01,0.82,0.35,0.83,0.8
		C16.25,113.28,15.88,113.67,15.44,113.67z M25.95,112.08l0.02,1.21l-8.16,0.13l-0.02-1.21L25.95,112.08z"/>
	<path class="st2" d="M14.53,109.18l0.37-4.94c0.16-2.23,1.57-3.58,3.55-3.43c1.98,0.15,3.19,1.71,3.03,3.92l-0.27,3.69l4.79,0.35
		l-0.09,1.25L14.53,109.18z M15.75,108.01l4.37,0.32l0.27-3.59c0.11-1.54-0.66-2.58-2.01-2.68c-1.35-0.1-2.25,0.81-2.36,2.36
		L15.75,108.01z"/>
	<path class="st2" d="M27.53,96.84c-0.42,2.33-2.56,3.81-4.91,3.39c-2.31-0.41-3.82-2.49-3.43-4.7c0.38-2.13,2.51-3.47,4.82-3.06
		l0.37,0.07l-1.18,6.59c1.62,0.11,3.01-0.93,3.3-2.52c0.15-0.83,0.03-1.72-0.34-2.35l0.92-0.6C27.58,94.68,27.74,95.69,27.53,96.84z
		 M22.25,98.92l0.96-5.37c-1.46-0.05-2.75,0.86-2.99,2.19C19.98,97.14,20.82,98.43,22.25,98.92z"/>
	<path class="st2" d="M21.73,89.28l-0.45,1.7l-0.99-0.26l0.45-1.7l-2-0.53l0.01-1.23l2.3,0.61l0.63-2.38l0.99,0.26l-0.63,2.38
		l4.83,1.28c0.85,0.23,1.27-0.03,1.5-0.9c0.12-0.44,0.15-0.77,0.1-1.2l1.02,0.27c0.03,0.45-0.04,0.98-0.16,1.44
		c-0.36,1.37-1.23,1.95-2.47,1.62L21.73,89.28z"/>
	<path class="st2" d="M25.76,85.77c-2.21-0.79-3.33-3.1-2.55-5.28c0.31-0.87,0.94-1.6,1.78-2.1l-0.77-0.28l0.4-1.12l7.87,2.83
		c1.96,0.71,2.63,2.28,1.86,4.41c-0.39,1.07-1.06,2.04-1.88,2.72l-0.71-0.81c0.82-0.74,1.31-1.42,1.59-2.22
		c0.52-1.46,0.09-2.48-1.26-2.96l-1.03-0.37c0.33,0.9,0.34,1.85,0.01,2.76C30.31,85.48,27.98,86.56,25.76,85.77z M30.11,82.9
		c0.35-0.98,0.27-1.96-0.21-2.73l-3.77-1.36c-0.85,0.28-1.54,1.01-1.89,1.97c-0.57,1.59,0.26,3.26,1.92,3.86
		C27.82,85.24,29.54,84.48,30.11,82.9z"/>
	<path class="st2" d="M27.15,71.06c1.01-2.08,3.49-2.92,5.63-1.88c2.15,1.05,3.02,3.52,2.01,5.6c-1.02,2.09-3.49,2.94-5.65,1.89
		C27,75.63,26.14,73.16,27.15,71.06z M32.26,70.25c-1.6-0.78-3.41-0.21-4.14,1.28c-0.73,1.49-0.06,3.29,1.54,4.06
		c1.6,0.78,3.43,0.22,4.16-1.29C34.55,72.81,33.86,71.03,32.26,70.25z"/>
	<path class="st2" d="M27.49,65.11l1.9-3.27l0.51,0.3l-0.79,1.35l3.32,1.94L32.1,66l-3.32-1.94L28,65.4L27.49,65.11z"/>
	<path class="st2" d="M30.77,61.19l3.02,1.97l-0.34,0.52l-3.71-2.42l0.48-0.74l3.13,0.38l-1.61-2.71l0.48-0.74l3.71,2.42l-0.34,0.53
		l-3.03-1.98l1.86,3.19L30.77,61.19z"/>
	<path class="st2" d="M48.45,54.57c-2.2,2.45-5.89,2.64-8.32,0.45c-2.44-2.19-2.64-5.86-0.44-8.31c1.18-1.31,2.78-2.06,4.4-2.09
		l0.08,1.21c-1.33-0.01-2.68,0.62-3.62,1.66c-1.74,1.94-1.56,4.8,0.43,6.59c1.99,1.79,4.86,1.67,6.6-0.27
		c1.55-1.72,1.51-4.14-0.02-5.78l-2.74,3.04L44,50.32l3.59-3.99l0.38,0.34C50.33,48.8,50.55,52.24,48.45,54.57z"/>
	<path class="st2" d="M54.1,48.63l-0.88,0.82l-7.76-8.35l0.69-1.02L54.1,48.63z"/>
	<path class="st2" d="M53.16,38.46c1.8-1.45,4.4-1.16,5.89,0.7c1.5,1.87,1.23,4.47-0.57,5.92c-1.82,1.46-4.42,1.17-5.92-0.7
		C51.08,42.53,51.35,39.92,53.16,38.46z M58.13,39.91c-1.11-1.38-3-1.65-4.29-0.61c-1.29,1.04-1.46,2.95-0.34,4.33
		c1.11,1.38,3.01,1.66,4.32,0.61C59.11,43.2,59.25,41.29,58.13,39.91z"/>
	<path class="st2" d="M58.28,34.8l1-0.67l0.65,0.96c-0.07-0.98,0.32-1.83,1.15-2.38c0.26-0.17,0.45-0.26,0.7-0.33l0.62,0.92
		c-0.3,0.08-0.56,0.2-0.79,0.35c-0.84,0.56-1.15,1.48-0.89,2.62l3.12,4.64l-1,0.67L58.28,34.8z"/>
	<path class="st2" d="M61.85,29.64c-0.24-0.39-0.1-0.89,0.28-1.12c0.39-0.24,0.88-0.11,1.12,0.28c0.23,0.38,0.11,0.88-0.28,1.12
		C62.59,30.14,62.08,30.01,61.85,29.64z M68.51,37.94l-1.03,0.62l-4.21-7l1.03-0.62L68.51,37.94z"/>
	<path class="st2" d="M65.14,26.64l4.43-2.22c2-1,3.88-0.48,4.77,1.29c0.89,1.78,0.17,3.61-1.81,4.6l-3.31,1.66l2.15,4.3l-1.12,0.56
		L65.14,26.64z M66.77,27.08L68.73,31l3.22-1.61c1.38-0.69,1.88-1.89,1.27-3.1c-0.61-1.21-1.85-1.51-3.24-0.82L66.77,27.08z"/>
	<path class="st2" d="M82.4,31.46c-2.21,0.83-4.58-0.24-5.43-2.48c-0.83-2.2,0.18-4.56,2.29-5.35c2.03-0.76,4.27,0.38,5.09,2.57
		l0.13,0.35l-6.27,2.36c0.74,1.45,2.34,2.11,3.85,1.54c0.79-0.3,1.49-0.86,1.84-1.49l0.98,0.48C84.28,30.4,83.5,31.05,82.4,31.46z
		 M77.91,28l5.11-1.92c-0.71-1.28-2.15-1.92-3.42-1.45C78.28,25.13,77.6,26.51,77.91,28z"/>
	<path class="st2" d="M85.9,22.61l-1.69,0.48l-0.28-0.99l1.69-0.48l-0.57-1.99l1.06-0.62l0.65,2.29l2.37-0.68l0.28,0.99l-2.37,0.68
		l1.37,4.81c0.24,0.85,0.68,1.08,1.54,0.83c0.44-0.13,0.74-0.26,1.09-0.53l0.29,1.02c-0.37,0.26-0.87,0.47-1.32,0.6
		c-1.36,0.39-2.3-0.05-2.66-1.29L85.9,22.61z"/>
	<path class="st2" d="M90.97,24.27c-0.45-2.3,0.95-4.46,3.22-4.9c0.91-0.18,1.86-0.02,2.71,0.45l-0.16-0.8l1.17-0.23l1.62,8.21
		c0.4,2.05-0.6,3.43-2.83,3.86c-1.12,0.22-2.3,0.14-3.3-0.21l0.33-1.03c1.06,0.32,1.89,0.39,2.72,0.23c1.52-0.3,2.17-1.19,1.9-2.6
		l-0.21-1.07c-0.6,0.75-1.42,1.24-2.36,1.43C93.55,28.03,91.43,26.59,90.97,24.27z M95.67,26.53c1.02-0.2,1.82-0.77,2.23-1.59
		l-0.78-3.94c-0.68-0.58-1.65-0.8-2.66-0.61c-1.66,0.33-2.67,1.9-2.33,3.63C92.48,25.77,94.02,26.86,95.67,26.53z"/>
	<path class="st2" d="M104.35,17.91c2.31-0.2,4.3,1.49,4.51,3.86c0.21,2.39-1.47,4.4-3.77,4.6c-2.32,0.2-4.32-1.49-4.53-3.88
		C100.35,20.13,102.02,18.12,104.35,17.91z M107.67,21.88c-0.15-1.77-1.57-3.04-3.23-2.9c-1.66,0.14-2.85,1.64-2.7,3.41
		c0.15,1.77,1.57,3.06,3.25,2.91C106.64,25.16,107.82,23.65,107.67,21.88z"/>
	<path class="st2" d="M109.57,15.16l3.79-0.06l0.01,0.59l-1.56,0.03l0.06,3.85l-0.67,0.01l-0.06-3.85l-1.56,0.03L109.57,15.16z"/>
	<path class="st2" d="M114.6,15.96l-0.13,3.6l-0.62-0.02l0.16-4.42l0.88,0.03l1.29,2.87l1.49-2.77l0.88,0.03l-0.16,4.42l-0.63-0.02
		l0.13-3.61l-1.77,3.23L114.6,15.96z"/>
</g>
</svg>
