<?xml version="1.0" encoding="utf-8"?>
<!-- Generator: Adobe Illustrator 27.6.1, SVG Export Plug-In . SVG Version: 6.00 Build 0)  -->
<svg version="1.1" id="Layer_1" xmlns="http://www.w3.org/2000/svg" xmlns:xlink="http://www.w3.org/1999/xlink" x="0px" y="0px"
	 viewBox="0 0 83.07 83.53" style="enable-background:new 0 0 83.07 83.53;" xml:space="preserve">
<style type="text/css">
	.st0{fill:#606161;}
</style>
<path class="st0" d="M81.34,39.44C80.39,19.06,63.68,2.35,43.3,1.4c-0.64-0.03-1.28-0.04-1.91-0.04c-22.06,0-40,17.94-40,40
	c0,0.44,0.05,0.98,0.09,1.54c0.03,0.3,0.05,0.59,0.06,0.82l0.15,3.04l3.26-2.45c0.1-0.06,0.82-0.52,2-1.15
	c8.24,11.42,19.94,17.7,33.09,17.7c0.5,0,1.01-0.01,1.52-0.03c14.36-0.52,28.72-8.45,36.59-19.99c0.14,9.69-3.44,18.84-10.16,25.89
	c-7.02,7.35-16.46,11.4-26.6,11.4c-13.27,0-25.57-7.2-32.08-18.78L9.1,58.97l-2.81,1.58l0.22,0.38
	c7.08,12.6,20.45,20.43,34.89,20.43c11.02,0,21.3-4.41,28.93-12.4C77.95,60.96,81.86,50.48,81.34,39.44z M25.24,38.37
	c5.38,0,10.42,1.35,15.09,4.06c5.55,2.7,10.15,4.49,14.06,5.5c1.33,0.34,2.65,0.51,3.94,0.51c0.49,0,0.98-0.02,1.47-0.08
	c5.08-0.53,6.53-3.11,6.59-3.22l0.72-1.33l-1.32,0.74c-1.31,0.73-2.88,1.09-4.8,1.09c-4.48,0-10.76-1.99-19.18-6.08
	c-5.05-2.93-10.61-4.41-16.53-4.41c-5,0-9.58,1.07-13.25,2.33c2.7-3.46,7.08-7.84,12.79-9.35c1.36-0.36,2.75-0.54,4.14-0.54
	c3.63,0,7.39,1.23,11.17,3.67c13.76,8.86,20.82,12,26.97,12c2.03,0,3.97-0.35,6.01-1.09C65.39,51.3,53.42,57.17,41.45,57.6
	c-0.47,0.02-0.93,0.02-1.39,0.02c0,0,0,0,0,0c-11.89,0-22.55-5.64-30.14-15.89C13.62,40.13,19.08,38.37,25.24,38.37z M77.33,36.41
	c-3.44,2.17-6.49,3.62-10.17,3.62c-5.42,0-12.27-3.11-25.28-11.49c-4.31-2.78-8.65-4.19-12.9-4.19c-1.67,0-3.36,0.22-5,0.66
	C14.24,27.6,8.19,36.96,6.57,39.73c-0.78,0.38-1.44,0.73-1.95,1.02c0.33-20,16.69-36.17,36.77-36.17c0.58,0,1.17,0.01,1.76,0.04
	c17.56,0.82,32.16,14.37,34.64,31.49L77.33,36.41z"/>
</svg>
