<?xml version="1.0" encoding="utf-8"?>
<!-- Generator: Adobe Illustrator 27.6.1, SVG Export Plug-In . SVG Version: 6.00 Build 0)  -->
<svg version="1.1" id="Layer_1" xmlns="http://www.w3.org/2000/svg" xmlns:xlink="http://www.w3.org/1999/xlink" x="0px" y="0px"
	 viewBox="0 0 254.05 97.68" style="enable-background:new 0 0 254.05 97.68;" xml:space="preserve">
<style type="text/css">
	.st0{fill:#494949;}
</style>
<g>
	<g>
		<path class="st0" d="M185.31,2.94c-0.49,0.14-0.97,0.32-1.47,0.41c-6.74,1.27-13.29,3.21-19.63,5.86
			c-7.1,2.96-13.88,6.53-20.14,11.07c-4.33,3.14-8.42,6.58-12.1,10.5c-4.33,4.61-8.06,9.67-10.78,15.43
			c-1.8,3.8-3.1,7.77-3.63,11.96c-0.3,2.4-0.34,4.82-0.09,7.24c0.58,5.59,2.69,10.5,6.19,14.81c2.59,3.19,5.76,5.69,9.29,7.73
			c3.8,2.2,7.85,3.73,12.07,4.84c0.79,0.21,1.59,0.4,2.38,0.61c0.13,0.03,0.28,0.04,0.33,0.21c-0.09,0.16-0.24,0.13-0.37,0.12
			c-1.88-0.18-3.76-0.09-5.64-0.09c-43.11,0-86.22,0-129.33,0c-3.15,0-5.67-2.36-5.96-5.53c-0.04-0.48-0.06-0.95-0.06-1.43
			c0-25.79,0-51.59,0-77.38c0-2.71,1.17-4.71,3.58-5.93c0.63-0.32,1.31-0.48,2.02-0.48c0.84,0,1.67,0,2.51,0
			c52.98,0,105.96,0,158.94,0c2.6,0,5.2,0.05,7.79-0.01c1.27-0.03,2.54,0.14,3.8-0.14c0.08-0.02,0.16,0.02,0.25,0.03
			C185.28,2.83,185.29,2.89,185.31,2.94z M46.09,18.57c0.3,0.29,0.27,0.57,0.27,0.82c0,0.55-0.01,1.1-0.01,1.64
			c-0.02,5.2,0.21,10.39,0.41,15.58c0.1,2.47,0.16,4.94,0.24,7.42c0.03,0.86,0.08,1.73,0.13,2.59c0.02,0.3,0.09,0.55,0.49,0.54
			c2.28-0.01,4.57-0.01,6.85-0.01c0.32,0,0.45-0.14,0.42-0.45c-0.04-0.42-0.08-0.84-0.1-1.27c-0.08-1.55-0.14-3.11-0.22-4.66
			c-0.2-3.65-0.4-7.3-0.61-10.95c-0.12-2.15-0.23-4.3-0.35-6.45c-0.21-3.83-0.45-7.65-0.61-11.48c-0.03-0.62-0.08-0.67-0.73-0.67
			c-3.02,0-6.03,0.01-9.05-0.01c-0.52,0-0.74,0.18-0.89,0.66c-0.78,2.55-1.59,5.09-2.4,7.62c-1.68,5.23-3.14,10.51-4.29,15.89
			c-0.06,0.26-0.04,0.67-0.39,0.66c-0.3-0.01-0.29-0.41-0.32-0.65c-0.23-1.56-0.58-3.09-0.92-4.62c-1.44-6.43-3.41-12.72-5.22-19.05
			c-0.1-0.36-0.29-0.51-0.67-0.51c-3.19,0.01-6.38,0.01-9.57,0c-0.37,0-0.53,0.14-0.55,0.52c-0.12,2.08-0.26,4.16-0.39,6.24
			c-0.17,2.87-0.36,5.74-0.54,8.62c-0.24,3.84-0.48,7.68-0.72,11.52c-0.17,2.82-0.4,5.64-0.54,8.46c-0.02,0.45,0.12,0.59,0.55,0.58
			c1.97-0.02,3.94-0.01,5.91-0.01c0.84,0,0.87-0.03,0.9-0.89c0.06-1.59,0.12-3.18,0.2-4.76c0.2-4.14,0.42-8.29,0.6-12.43
			c0.14-3.33,0.38-6.67,0.35-10.01c0-0.09-0.04-0.22,0.14-0.28c0.14,0.2,0.18,0.44,0.23,0.68c0.64,3.09,1.23,6.2,2.04,9.26
			c1.52,5.77,3.11,11.52,4.66,17.28c0.12,0.44,0.33,0.63,0.81,0.62c1.53-0.03,3.07-0.01,4.6-0.01c1.05-0.01,0.92,0.16,1.27-0.97
			c1.31-4.25,2.59-8.51,3.92-12.75c1.3-4.13,2.55-8.26,3.59-12.46C45.74,19.83,45.91,19.24,46.09,18.57z M71.63,10.69
			c-0.75-0.02-1.5,0.03-2.24,0.1c-2.76,0.26-5.31,1.05-7.53,2.83c-4.51,3.64-5.39,11.21,0.13,15.4c1.95,1.48,4.16,2.43,6.43,3.26
			c1.41,0.52,2.8,1.09,4,2.04c1.17,0.93,1.68,2.13,1.37,3.64c-0.3,1.47-1.34,2.24-2.62,2.71c-1.43,0.53-2.93,0.5-4.44,0.38
			c-2.36-0.19-4.59-0.83-6.72-1.84c-0.66-0.32-0.7-0.32-0.88,0.43c-0.37,1.53-0.72,3.06-1.09,4.58c-0.35,1.46-0.35,1.46,1.06,1.98
			c3.51,1.3,7.12,1.79,10.84,1.46c2.3-0.2,4.5-0.75,6.55-1.84c5.19-2.75,6.65-8.67,4.66-13.38c-0.94-2.23-2.71-3.68-4.72-4.87
			c-1.83-1.08-3.86-1.72-5.8-2.55c-1.16-0.49-2.3-1-3.29-1.83c-1.52-1.27-1.57-3.46-0.08-4.7c0.67-0.56,1.43-0.97,2.3-1.07
			c3.02-0.36,5.95-0.02,8.72,1.31c0.42,0.2,0.55,0.13,0.66-0.32c0.45-1.74,0.93-3.48,1.41-5.21c0.21-0.76,0.22-0.77-0.49-1.05
			C77.22,11.12,74.46,10.7,71.63,10.69z M103.4,41.04c-0.78,0.03-1.75-0.02-2.71-0.22c-4.17-0.88-6.91-3.34-8.08-7.52
			c-0.57-2.04-0.57-4.12-0.35-6.2c0.52-4.87,3.59-8.62,8.56-9.54c3.01-0.55,5.97-0.26,8.83,0.89c0.42,0.17,0.58,0.08,0.69-0.36
			c0.41-1.7,0.85-3.39,1.28-5.08c0.2-0.79,0.18-0.81-0.55-1.08c-1.88-0.7-3.83-1.01-5.82-1.15c-3.39-0.25-6.73,0.02-9.94,1.21
			c-4.56,1.69-7.93,4.77-9.86,9.3c-2.02,4.73-2.18,9.65-0.82,14.58c1.14,4.13,3.58,7.29,7.29,9.43c3.01,1.73,6.29,2.33,9.68,2.49
			c1.48,0.07,2.96-0.08,4.43-0.23c1.62-0.16,3.19-0.54,4.73-1.07c0.41-0.14,0.61-0.35,0.52-0.82c-0.35-1.78-0.7-3.57-1.03-5.36
			c-0.06-0.35-0.2-0.37-0.5-0.26C107.77,40.75,105.71,41.08,103.4,41.04z M50.97,82.39C50.97,82.39,50.97,82.39,50.97,82.39
			c0.01,0.85,0.01,1.7,0.01,2.54c0,1.28-0.11,1.11,1.11,1.15c0.5,0.01,0.63-0.2,0.62-0.66c-0.02-1.2,0-2.4-0.01-3.6
			c0-0.46,0.11-0.88,0.4-1.23c0.32-0.39,0.72-0.63,1.23-0.55c0.52,0.08,0.81,0.44,0.99,0.91c0.12,0.32,0.15,0.65,0.15,0.99
			c0,1.2,0.01,2.4,0,3.6c0,0.38,0.13,0.56,0.52,0.53c0.14-0.01,0.28,0,0.42,0c0.77,0,0.78-0.05,0.75-0.87
			c-0.04-1.27-0.1-2.54,0.04-3.81c0.09-0.79,0.74-1.38,1.42-1.37c0.65,0.01,1.14,0.54,1.26,1.39c0.17,1.16,0.06,2.33,0.08,3.49
			c0.03,1.3-0.22,1.16,1.24,1.16c0.29,0,0.41-0.12,0.41-0.41c-0.01-1.5,0.04-3.01-0.03-4.5c-0.05-1.07-0.47-2.04-1.58-2.41
			c-1.13-0.38-2.1-0.04-2.82,0.94c-0.3,0.41-0.44,0.06-0.58-0.11c-1.01-1.21-2.47-1.29-3.57-0.17c-0.09,0.09-0.17,0.18-0.27,0.25
			c-0.22,0.18-0.39,0.11-0.35-0.17c0.09-0.71-0.34-0.68-0.83-0.7c-0.49-0.02-0.63,0.16-0.62,0.64
			C50.99,80.41,50.97,81.4,50.97,82.39z M100.12,82.41c0-0.97-0.01-2.03,0.01-3.09c0.01-0.38-0.13-0.56-0.51-0.53
			c-0.16,0.01-0.31,0.01-0.47,0c-0.29-0.02-0.47,0.07-0.46,0.41c0,0.14-0.02,0.3-0.17,0.36c-0.16,0.06-0.27-0.07-0.34-0.18
			c-0.71-1.05-2.64-0.88-3.52-0.19c-1.4,1.09-1.93,3.51-1.07,5.14c0.6,1.13,1.51,1.71,2.8,1.67c0.63-0.02,1.15-0.23,1.59-0.68
			c0.15-0.15,0.43-0.33,0.43,0.05c0.02,1.13-0.17,2.06-1.44,2.45c-0.8,0.24-1.55,0.05-2.29-0.25c-0.14-0.06-0.3-0.24-0.42-0.1
			c-0.25,0.28-0.31,0.66-0.35,1.03c-0.03,0.3,0.25,0.35,0.45,0.43c0.8,0.32,1.65,0.26,2.48,0.24c1.79-0.04,2.89-1.02,3.19-2.8
			C100.22,85.08,100.03,83.79,100.12,82.41z M43.71,84.3c-0.17-0.08-0.16-0.24-0.17-0.37c-0.22-1.6-0.75-3.12-1.16-4.67
			c-0.09-0.33-0.24-0.49-0.58-0.47c-0.21,0.01-0.42,0-0.63,0c-0.25-0.01-0.39,0.11-0.45,0.35c-0.39,1.57-0.94,3.11-1.26,4.7
			c-0.03,0.13,0.02,0.34-0.16,0.35c-0.21,0.01-0.19-0.21-0.22-0.36c-0.29-1.29-0.56-2.59-0.86-3.87c-0.28-1.2-0.3-1.19-1.53-1.18
			c-0.37,0-0.5,0.09-0.38,0.49c0.63,2.1,1.24,4.19,1.84,6.3c0.11,0.38,0.3,0.53,0.67,0.5c0.19-0.01,0.39-0.02,0.57,0
			c0.38,0.04,0.57-0.12,0.69-0.48c0.36-1.16,0.76-2.31,1.01-3.51c0.06-0.28,0.13-0.55,0.2-0.82c0.03-0.12,0.05-0.28,0.18-0.29
			c0.16-0.02,0.17,0.15,0.2,0.26c0.02,0.08,0.04,0.17,0.06,0.26c0.19,1.39,0.71,2.69,1.03,4.05c0.04,0.19,0.11,0.38,0.29,0.48
			c0.61,0.34,1.54-0.04,1.74-0.7c0.55-1.77,1.1-3.54,1.64-5.31c0.42-1.35,0.65-1.19-0.89-1.23c-0.32-0.01-0.47,0.13-0.54,0.44
			c-0.35,1.51-0.7,3.02-1.06,4.54C43.91,83.95,43.93,84.19,43.71,84.3z M30.18,80.78c0.05,0.25,0.07,0.33,0.08,0.42
			c0.18,1.48,0.74,2.87,1.08,4.31c0.17,0.72,0.69,0.53,1.16,0.57c0.45,0.04,0.7-0.1,0.84-0.57c0.54-1.83,1.11-3.65,1.68-5.46
			c0.45-1.41,0.57-1.25-0.99-1.25c-0.02,0-0.03,0-0.05,0c-0.2,0.01-0.32,0.1-0.36,0.31c-0.21,0.91-0.44,1.82-0.64,2.73
			c-0.15,0.67-0.26,1.35-0.4,2.02c-0.03,0.16-0.05,0.42-0.24,0.43c-0.22,0.01-0.17-0.26-0.23-0.41c-0.02-0.05-0.02-0.1-0.03-0.16
			c-0.3-1.49-0.72-2.95-1.11-4.41c-0.18-0.67-0.67-0.47-1.09-0.51c-0.4-0.04-0.53,0.16-0.62,0.53c-0.4,1.54-0.83,3.07-1.26,4.6
			c-0.04,0.15-0.05,0.38-0.24,0.37c-0.2-0.01-0.16-0.24-0.18-0.39c-0.17-1.37-0.48-2.71-0.82-4.04c-0.3-1.17-0.04-1.05-1.37-1.06
			c-0.59-0.01-0.61,0.02-0.45,0.6c0.58,2.04,1.18,4.07,1.74,6.11c0.12,0.44,0.32,0.64,0.76,0.58c0.14-0.02,0.28-0.02,0.42,0
			c0.5,0.07,0.72-0.18,0.85-0.64c0.3-1.07,0.62-2.13,0.96-3.19C29.82,81.81,29.86,81.33,30.18,80.78z M14.29,78.79
			c-0.14,0-0.28,0.01-0.42,0c-0.43-0.03-0.5,0.15-0.39,0.55c0.56,1.89,1.09,3.8,1.65,5.69c0.37,1.25,0.22,1,1.36,1.05
			c0.45,0.02,0.67-0.15,0.79-0.58c0.38-1.41,0.95-2.77,1.1-4.24c0.01-0.12,0.01-0.27,0.17-0.28c0.12,0,0.16,0.12,0.19,0.23
			c0.04,0.12,0.07,0.24,0.1,0.36c0.37,1.33,0.74,2.65,1.09,3.98c0.1,0.4,0.31,0.57,0.7,0.53c0.17-0.02,0.35-0.02,0.52,0
			c0.43,0.05,0.63-0.17,0.75-0.57c0.56-1.86,1.14-3.71,1.7-5.57c0.37-1.24,0.3-1.31-0.99-1.15c-0.02,0-0.03,0-0.05,0
			c-0.2,0.01-0.32,0.12-0.36,0.32c-0.33,1.52-0.81,3-1.04,4.54c-0.03,0.21,0.08,0.58-0.17,0.6c-0.31,0.02-0.24-0.38-0.29-0.59
			c-0.36-1.46-0.78-2.9-1.16-4.35c-0.16-0.6-0.55-0.52-0.96-0.54c-0.39-0.02-0.63,0.06-0.75,0.51c-0.39,1.43-0.8,2.85-1.12,4.3
			c-0.05,0.24-0.04,0.66-0.3,0.66c-0.32,0.01-0.25-0.41-0.29-0.65c-0.25-1.35-0.53-2.7-0.85-4.04C15.08,78.8,15.1,78.8,14.29,78.79z
			 M83.11,86.19c2,0.14,3.74-1.44,3.71-3.85c-0.04-2.24-1.46-3.74-3.61-3.73c-2.23,0-3.68,1.55-3.68,3.9
			C79.54,84.85,81.28,86.35,83.11,86.19z M65.38,86.17c0.26,0,0.53,0.04,0.78-0.01c0.88-0.15,1.65-0.48,1.98-1.42
			c0.4-1.15-0.02-2.14-1.17-2.71c-0.44-0.22-0.9-0.39-1.33-0.61c-0.32-0.16-0.6-0.41-0.54-0.82c0.06-0.45,0.38-0.65,0.79-0.73
			c0.47-0.1,0.89,0.04,1.32,0.22c0.12,0.05,0.28,0.18,0.39,0.07c0.24-0.25,0.29-0.6,0.32-0.93c0.03-0.3-0.23-0.36-0.45-0.42
			c-0.77-0.2-1.55-0.26-2.33-0.07c-0.86,0.2-1.57,0.97-1.69,1.82c-0.13,0.85,0.23,1.54,1.1,2.04c0.42,0.24,0.89,0.39,1.33,0.61
			c0.59,0.29,0.82,0.69,0.67,1.16c-0.12,0.4-0.67,0.7-1.2,0.66c-0.47-0.04-0.92-0.17-1.36-0.37c-0.12-0.06-0.28-0.17-0.38-0.04
			c-0.21,0.27-0.29,0.6-0.28,0.94c0.01,0.28,0.25,0.35,0.47,0.43C64.3,86.17,64.83,86.21,65.38,86.17z M73.18,86.19
			c0.47-0.01,0.94,0.01,1.4-0.14c0.56-0.17,0.59-0.28,0.4-1.06c-0.11-0.47-0.4-0.33-0.69-0.26c-0.66,0.17-1.31,0.19-1.93-0.16
			c-1.07-0.61-1.45-1.99-0.93-3.3c0.42-1.04,1.61-1.57,2.86-1.16c0.74,0.24,0.61-0.34,0.74-0.67c0.17-0.41,0-0.64-0.43-0.68
			c-0.28-0.03-0.55-0.08-0.83-0.11c-3.02-0.26-5.03,2.07-4.13,5.25C70.08,85.46,71.37,86.21,73.18,86.19z M88.42,82.39
			C88.42,82.39,88.42,82.39,88.42,82.39c0,0.83,0,1.66,0,2.49c0.01,1.36-0.18,1.17,1.22,1.19c0.38,0.01,0.54-0.14,0.53-0.53
			c-0.02-0.51-0.02-1.03,0-1.54c0.02-0.79-0.09-1.59,0.09-2.38c0.17-0.76,0.8-1.4,1.47-1.36c0.58,0.04,0.7-0.19,0.65-0.69
			c-0.02-0.16-0.01-0.32,0-0.48c0.02-0.47-0.22-0.57-0.63-0.48c-0.65,0.13-1.1,0.51-1.41,1.08c-0.06,0.12-0.11,0.31-0.28,0.27
			c-0.19-0.04-0.18-0.24-0.19-0.39c-0.01-0.12-0.01-0.25,0-0.37c0.02-0.3-0.13-0.42-0.41-0.41c-0.16,0-0.32,0.01-0.47-0.01
			c-0.44-0.05-0.58,0.14-0.57,0.58C88.44,80.38,88.42,81.39,88.42,82.39z M76.28,85.09c-0.01,0.62,0.47,1.16,1.03,1.17
			c0.6,0.02,1.12-0.51,1.13-1.15c0.01-0.61-0.47-1.13-1.06-1.14C76.71,83.96,76.28,84.39,76.28,85.09z M49.44,85.11
			c0.01-0.59-0.54-1.16-1.12-1.16c-0.57,0-1.05,0.51-1.08,1.14c-0.03,0.6,0.47,1.15,1.05,1.17C48.84,86.29,49.43,85.7,49.44,85.11z"
			/>
		<path class="st0" d="M200.52,2.91c3.5-0.04,6.47,0.15,9.44,0.5c4.8,0.57,9.47,1.66,13.98,3.43c3.61,1.42,7,3.27,10.03,5.73
			c3.3,2.68,5.99,5.86,7.83,9.74c1.6,3.36,2.43,6.9,2.56,10.63c0.21,6.36-1.53,12.21-4.35,17.8c-1.95,3.87-4.37,7.43-7.14,10.75
			c-5.69,6.83-12.43,12.4-19.92,17.08c-8.21,5.14-16.99,8.97-26.29,11.57c-3.7,1.03-7.44,1.88-11.23,2.46
			c-3.31,0.51-6.63,0.82-9.98,0.95c-2.46,0.1-4.92,0.08-7.37-0.05c-2.38-0.13-4.75-0.4-7.11-0.77c-3.96-0.62-7.81-1.63-11.55-3.11
			c-5.4-2.13-10.24-5.15-14.12-9.58c-3.35-3.83-5.48-8.26-6.28-13.35c-0.77-4.85-0.26-9.58,1.17-14.23
			c1.67-5.45,4.41-10.33,7.79-14.86c3.11-4.18,6.7-7.9,10.61-11.31c6.2-5.4,13.06-9.77,20.42-13.35c6.17-3,12.57-5.35,19.19-7.06
			c3.43-0.89,6.89-1.62,10.4-2.11c2.76-0.39,5.53-0.66,8.32-0.8C198.29,2.92,199.66,2.93,200.52,2.91z M127.1,51.14
			c0.13,0.27,0.3,0.37,0.45,0.47c1.53,1.06,2.99,2.21,4.4,3.41c5.47,4.67,10.27,9.92,13.73,16.32c1.57,2.91,2.85,5.94,3.47,9.22
			c0.06,0.32,0.08,0.68,0.38,0.98c0.21-0.8,0.36-1.54,0.6-2.26c1.74-5.16,3.96-10.11,6.64-14.85c3.29-5.82,7.12-11.24,11.54-16.22
			c3.99-4.49,8.34-8.58,13.1-12.23c7.4-5.69,15.46-10.16,24.1-13.59c3.9-1.55,7.87-2.87,11.92-3.96c3.06-0.83,6.15-1.57,9.28-2.1
			c0.64-0.11,1.29-0.19,1.91-0.41c-0.18-0.05-0.35-0.04-0.52-0.05c-2.41-0.09-4.81,0.19-7.2,0.38c-3.19,0.26-6.37,0.71-9.53,1.27
			c-4.24,0.75-8.44,1.74-12.55,3.02c-6.01,1.88-11.82,4.25-17.38,7.25c-5.49,2.96-10.58,6.52-15.22,10.71
			c-4.32,3.9-8.21,8.21-11.54,13.03c-2.02,2.93-3.87,5.97-5.48,9.15c-0.51,1.01-0.48,1.03-1.26,0.27c-0.03-0.02-0.05-0.05-0.08-0.07
			c-2.22-2.03-4.55-3.9-7.08-5.52c-3.29-2.1-6.75-3.76-10.68-4.2C129.13,51.05,128.15,51.11,127.1,51.14z M163,73.31
			c0.23,0.2,0.41,0.15,0.57,0.15c1.19,0.02,2.37-0.06,3.55-0.09c3.35-0.09,6.68-0.41,10-0.81c4.52-0.54,9-1.33,13.41-2.48
			c4.62-1.2,9.13-2.7,13.47-4.72c6.71-3.11,12.78-7.16,17.83-12.66c2.77-3.02,5.12-6.34,6.98-10.01c1.32-2.6,2.31-5.33,3.01-8.17
			c0.04-0.16,0.22-0.36,0.03-0.48c-0.15-0.09-0.32,0.09-0.46,0.19c-0.76,0.59-1.51,1.2-2.29,1.77c-4.29,3.1-8.82,5.7-14.05,6.79
			c-2.58,0.54-5.08,0.33-7.43-0.89c-1.78-0.92-2.88-2.39-3.22-4.43c-0.34-2.08,0.02-4.08,0.67-6.04c0.25-0.76,0.59-1.49,0.9-2.26
			c-0.28,0.01-0.4,0.19-0.55,0.34c-0.7,0.69-1.37,1.41-1.97,2.2c-1.79,2.32-2.96,4.87-2.78,7.9c0.18,3.09,1.77,5.32,4.28,6.88
			c2.55,1.59,5.38,1.45,8.17,0.9c3.3-0.65,6.33-2.06,9.23-3.75c0.23-0.13,0.44-0.29,0.66-0.44c0.08-0.06,0.18-0.15,0.28-0.08
			c0.13,0.1,0.03,0.22-0.02,0.33c-0.03,0.06-0.07,0.12-0.1,0.18c-1.96,3.4-4.56,6.26-7.55,8.73c-4.58,3.78-9.65,6.77-15.01,9.28
			c-7.59,3.55-15.48,6.23-23.53,8.45c-3.99,1.1-8.01,2.06-12.08,2.79C164.37,72.99,163.72,73.16,163,73.31z M217.3,24.05
			c-1.91,0-3.32,1.43-3.33,3.38c-0.01,1.88,1.45,3.38,3.29,3.4c1.92,0.01,3.4-1.46,3.39-3.4C220.65,25.5,219.22,24.05,217.3,24.05z"
			/>
		<path class="st0" d="M241.05,69.04c-0.15,0.57-0.17,1.03-0.16,1.49c0,0.65-0.02,1.31-0.08,1.96c-0.04,0.35-0.21,0.45-0.51,0.45
			c-0.33,0.01-0.41-0.2-0.4-0.48c0.08-1.45,0.16-2.89,0.25-4.34c0.02-0.29,0.11-0.54,0.46-0.52c0.38,0.02,0.84-0.13,1.01,0.42
			c0.21,0.69,0.42,1.38,0.63,2.07c0.07,0.24,0.14,0.47,0.22,0.71c0.03,0.1,0.06,0.23,0.18,0.22c0.13-0.01,0.14-0.14,0.17-0.24
			c0.29-0.87,0.57-1.74,0.86-2.61c0.11-0.34,0.28-0.6,0.69-0.61c0.63-0.02,0.77,0.1,0.8,0.74c0.06,1.37,0.13,2.75,0.2,4.12
			c0.01,0.23,0.01,0.46-0.27,0.47c-0.23,0.01-0.52,0.04-0.61-0.28c-0.05-0.18-0.07-0.38-0.07-0.57c-0.01-0.74-0.01-1.48-0.02-2.23
			c0-0.3-0.02-0.59-0.21-0.97c-0.18,0.58-0.33,1.06-0.48,1.54c-0.2,0.66-0.4,1.32-0.62,1.97c-0.08,0.24-0.19,0.47-0.49,0.49
			c-0.32,0.01-0.46-0.22-0.56-0.48c-0.26-0.68-0.43-1.38-0.58-2.09C241.39,69.89,241.31,69.49,241.05,69.04z"/>
		<path class="st0" d="M237.96,70.73c0,0.56,0,1.13,0,1.69c0,0.32-0.12,0.51-0.46,0.5c-0.34-0.01-0.55-0.11-0.55-0.52
			c0.02-1.11-0.01-2.22,0.01-3.34c0.01-0.45-0.17-0.61-0.59-0.57c-0.16,0.01-0.31,0.01-0.47,0c-0.29-0.01-0.47-0.17-0.46-0.46
			c0.01-0.34,0.21-0.53,0.55-0.49c0.64,0.07,1.29,0.06,1.93,0.06c0.37,0,0.73,0,1.1,0.01c0.27,0.01,0.42,0.15,0.41,0.43
			c0,0.28-0.15,0.42-0.42,0.45c-0.05,0.01-0.1,0-0.16,0c-0.9-0.01-0.9-0.01-0.9,0.91C237.96,69.85,237.97,70.29,237.96,70.73
			C237.96,70.73,237.96,70.73,237.96,70.73z"/>
		<path class="st0" d="M98.36,82.31c0,0.42,0.04,0.85-0.08,1.26c-0.33,1.12-1.69,1.54-2.57,0.78c-1.03-0.88-1.05-3.07-0.02-3.97
			c0.46-0.39,0.98-0.62,1.59-0.36c0.63,0.27,1.01,0.75,1.08,1.44C98.38,81.74,98.36,82.03,98.36,82.31z"/>
		<path class="st0" d="M84.99,82.37c0.01,0.74-0.1,1.4-0.54,1.95c-0.75,0.94-1.96,0.92-2.6-0.09c-0.69-1.1-0.68-2.28-0.11-3.43
			c0.3-0.6,0.83-0.97,1.53-0.93c0.76,0.05,1.23,0.54,1.52,1.21C84.96,81.51,85,81.97,84.99,82.37z"/>
	</g>
</g>
</svg>
