<?xml version="1.0" encoding="utf-8"?>
<!-- Generator: Adobe Illustrator 27.6.1, SVG Export Plug-In . SVG Version: 6.00 Build 0)  -->
<svg version="1.1" id="Layer_1" xmlns="http://www.w3.org/2000/svg" xmlns:xlink="http://www.w3.org/1999/xlink" x="0px" y="0px"
	 viewBox="0 0 191.55 80.64" style="enable-background:new 0 0 191.55 80.64;" xml:space="preserve">
<style type="text/css">
	.st0{fill:#494949;}
</style>
<g>
	<g>
		<path class="st0" d="M70.03,42.53c-0.09,1.12-0.41,2.19-0.69,3.27c-0.05,0.19-0.09,0.4-0.18,0.57c-0.28,0.55-0.13,0.96,0.22,1.45
			c2.97,4.09,5.69,8.34,7.86,12.91c1.18,2.49,2.2,5.04,2.7,7.76c0.28,1.5,0.4,3.01,0.03,4.51c-0.54,2.15-2.17,3.53-4.42,3.75
			c-0.11,0.01-0.22,0.04-0.33,0.06c-0.55,0-1.11,0-1.66,0c-1.11-0.13-2.21-0.32-3.28-0.61c-2.13-0.58-4.15-1.42-6.14-2.37
			c-4.46-2.15-8.6-4.83-12.6-7.73c-0.68-0.49-1.36-1-2.03-1.5c-0.18-0.14-0.35-0.18-0.59-0.14c-1.57,0.3-3.14,0.5-4.74,0.49
			c-0.25,0-0.35-0.02-0.34-0.34c0.03-1.43,0.01-2.86,0.02-4.29c0-0.2-0.08-0.33-0.22-0.45c-1.29-1.12-2.57-2.24-3.85-3.38
			c-0.24-0.22-0.52-0.29-0.82-0.34c-5.63-1.01-11.25-2.03-16.88-3.03c-0.46-0.08-0.78-0.26-0.99-0.68c-0.2-0.4-0.46-0.78-0.69-1.17
			c-0.06-0.09-0.16-0.21-0.09-0.31c0.07-0.11,0.21-0.03,0.31-0.01c2.11,0.39,4.22,0.77,6.33,1.16c3.33,0.61,6.65,1.23,10.03,1.85
			c-0.08-0.19-0.23-0.28-0.35-0.39c-1.99-1.9-3.94-3.84-5.82-5.84c-0.21-0.22-0.44-0.35-0.74-0.4c-3.75-0.63-7.49-1.26-11.24-1.89
			c-0.9-0.15-0.9-0.15-1.09-1.02c-0.02-0.11-0.05-0.22-0.08-0.33c-0.15-0.67-0.15-0.65,0.54-0.54c3.19,0.54,6.38,1.08,9.57,1.62
			c0.22,0.04,0.44,0.07,0.72,0.12c-0.83-0.94-1.62-1.82-2.41-2.72c-0.69-0.79-1.38-1.59-2.06-2.4c-0.13-0.16-0.27-0.23-0.48-0.24
			c-2.01-0.15-4.02-0.31-6.04-0.45c-0.32-0.02-0.47-0.14-0.45-0.49c0.02-0.33-0.08-0.67-0.01-1.01c0.04-0.23,0.13-0.29,0.34-0.27
			c0.85,0.06,1.7,0.11,2.55,0.18c0.75,0.06,1.49,0.12,2.28,0.19c-0.11-0.3-0.33-0.49-0.5-0.71c-0.75-0.98-1.51-1.94-2.25-2.92
			c-0.13-0.18-0.27-0.26-0.5-0.24c-0.4,0.02-0.8,0-1.21,0.01c-0.28,0-0.43-0.07-0.34-0.4c0.08-0.31,0.12-0.64,0.19-0.96
			c0.02-0.09,0.02-0.21,0.07-0.25c0.36-0.27,0.08-0.46-0.07-0.67c-2.84-3.98-5.46-8.1-7.55-12.53c-1.17-2.47-2.17-4.99-2.67-7.69
			c-0.3-1.64-0.44-3.28,0.1-4.91c0.63-1.93,2.23-3.15,4.26-3.36c2.46-0.25,4.79,0.32,7.08,1.11c3.29,1.13,6.36,2.73,9.35,4.5
			c2.11,1.25,4.16,2.59,6.15,4.01c0.18,0.13,0.32,0.18,0.55,0.1c2.3-0.81,4.66-1.29,7.09-1.44c6.27-0.38,11.98,1.22,17.12,4.82
			c2.67,1.87,4.91,4.17,6.74,6.87c0.08,0.11,0.15,0.23,0.26,0.4c-0.6-0.2-1.13-0.37-1.67-0.55c-6.3-2.09-12.6-4.18-18.9-6.27
			c-1.8-0.6-1.8-0.58-3.67-0.13c-6.06,1.47-12.12,2.94-18.18,4.4c-0.13,0.03-0.26,0.12-0.45-0.01c2.85-3.42,6.33-5.94,10.41-7.64
			c0.03-0.12-0.06-0.15-0.11-0.19c-3.16-2.21-6.41-4.28-9.88-5.98c-2.3-1.13-4.67-2.12-7.21-2.56c-1.1-0.19-2.21-0.27-3.32,0.01
			c-1.76,0.44-2.84,1.76-3,3.57c-0.18,2.05,0.31,3.99,0.97,5.89c1.35,3.88,3.37,7.42,5.57,10.86c1.49,2.34,3.1,4.6,4.76,6.82
			c0.2,0.26,0.4,0.35,0.72,0.35c1.91-0.02,3.82,0.03,5.73-0.03c2.6-0.08,5.2,0,7.8-0.08c2.57-0.07,5.15-0.04,7.72-0.06
			c0.36,0,0.48-0.11,0.48-0.48c-0.02-1.2-0.01-2.41-0.01-3.61c0-0.5,0.01-0.51,0.47-0.43c2.85,0.46,5.69,0.93,8.54,1.39
			c2.68,0.44,5.37,0.88,8.05,1.32c2.67,0.44,5.34,0.87,8.02,1.31c0.47,0.08,0.47,0.08,0.48-0.53c0.25,0.75,0.39,1.43,0.52,2.12
			c0.13,0.68,0.21,1.36,0.32,2.04c0.04,0.25,0,0.34-0.31,0.29c-0.47-0.09-0.95-0.1-1.42-0.13c-1.78-0.11-3.55-0.21-5.33-0.32
			c-2.36-0.15-4.73-0.3-7.09-0.46c-1.93-0.12-3.85-0.24-5.78-0.37c-2.1-0.14-4.2-0.33-6.3-0.42c-1.23-0.06-2.46,0.03-3.69,0.04
			c-0.65,0.01-1.31,0.01-1.96,0.01c-3.65,0-7.31,0.09-10.96,0.1c-1.33,0-2.66,0.04-3.99,0.06c-0.08,0-0.21,0-0.24,0.05
			c-0.08,0.11,0.05,0.18,0.11,0.25c0.98,1.21,1.98,2.4,2.94,3.62c0.26,0.33,0.59,0.38,0.96,0.41c2.24,0.18,4.47,0.35,6.71,0.52
			c1.46,0.11,2.93,0.21,4.39,0.32c1.75,0.13,3.5,0.27,5.25,0.42c0.32,0.03,0.33-0.12,0.33-0.34c0-1.14,0-2.28,0-3.43
			c0-0.49,0.04-0.5,0.52-0.46c0.92,0.08,1.85,0.12,2.78,0.19c1.84,0.12,3.68,0.24,5.52,0.36c0.88,0.06,1.75,0.11,2.63,0.16
			c1.85,0.12,3.7,0.25,5.55,0.36c0.9,0.06,1.8,0.1,2.7,0.16c1.83,0.12,3.65,0.24,5.48,0.36c0.35,0.02,0.7,0.03,1.05,0.05
			c0.4,0.02,0.02-0.31,0.22-0.39c0.02,0.11,0.07,0.23,0.08,0.35c0.05,1.22,0.03,2.43-0.1,3.64c-0.05,0.43-0.04,0.87-0.2,1.29
			c0.05-0.41-0.17-0.46-0.52-0.46c-8.33,0.01-16.65,0.01-24.98,0c-0.19,0-0.38,0.02-0.56-0.02c-0.94-0.19-1.89-0.18-2.84-0.27
			c-1.09-0.1-2.17-0.16-3.26-0.25c-1.44-0.11-2.87-0.24-4.31-0.35c-1.24-0.1-2.47-0.21-3.71-0.28c-0.53-0.03-1.06-0.14-1.6-0.08
			c-0.03,0.13,0.06,0.19,0.11,0.25c1.63,1.85,3.29,3.66,5,5.43c0.13,0.14,0.29,0.18,0.47,0.21c3.18,0.53,6.35,1.06,9.53,1.61
			c0.4,0.07,0.44-0.07,0.44-0.4c-0.01-1.31,0-2.61-0.01-3.92c0-0.32,0.11-0.47,0.44-0.45c0.12,0.01,0.25,0,0.38,0
			c8.15,0,16.3,0,24.45,0.01C69.56,43.07,69.94,43.06,70.03,42.53z M64.61,54.79c-0.01,0.12-0.08,0.21-0.15,0.3
			c-0.52,0.65-1.07,1.27-1.65,1.85c-2.71,2.74-5.85,4.84-9.45,6.23c-0.11,0.04-0.28,0.04-0.29,0.19c-0.01,0.12,0.14,0.16,0.23,0.23
			c2.41,1.77,4.88,3.45,7.45,4.98c2.84,1.69,5.76,3.23,8.92,4.24c1.74,0.56,3.5,0.96,5.36,0.74c1.74-0.21,3.05-1.36,3.42-3.08
			c0.3-1.41,0.11-2.8-0.2-4.17c-0.53-2.37-1.48-4.58-2.56-6.74c-1.98-3.96-4.38-7.67-6.97-11.25c-0.19-0.27-0.28-0.49-0.13-0.82
			c0.16-0.33,0.11-0.36-0.25-0.32c-1.11,0.12-2.22,0.23-3.33,0.34c-1.33,0.14-2.67,0.27-4,0.4c-1.38,0.14-2.77,0.29-4.15,0.43
			c-1.33,0.14-2.67,0.27-4,0.41c-1.61,0.16-3.22,0.33-4.82,0.5c-1.16,0.12-2.32,0.25-3.48,0.37c-0.19,0.02-0.36,0.1-0.56,0.07
			c-1.21-0.21-2.42-0.42-3.63-0.63c-1.53-0.26-3.06-0.52-4.6-0.78c0.01,0.16,0.12,0.21,0.2,0.28c2.06,2.07,4.2,4.07,6.35,6.05
			c0.33,0.31,0.7,0.46,1.13,0.53c0.3,0.05,0.43,0.01,0.42-0.34c-0.02-1.05,0-2.11-0.01-3.16c0-0.33,0.11-0.46,0.45-0.48
			c1.32-0.11,2.64-0.25,3.97-0.39c1.4-0.14,2.79-0.29,4.19-0.43c1.32-0.14,2.64-0.27,3.96-0.4c1.38-0.14,2.77-0.28,4.15-0.43
			c1.33-0.14,2.67-0.28,4-0.41c1.08-0.11,2.17-0.23,3.25-0.33c0.39-0.04,0.44,0.04,0.28,0.38c-0.33,0.69-0.66,1.38-1.03,2.05
			c-0.36,0.65-0.7,1.33-1.21,1.9c-0.12-0.1-0.25-0.07-0.39-0.04c-0.75,0.15-1.5,0.29-2.25,0.43c-5.52,1.08-11.05,2.15-16.57,3.23
			c-0.49,0.1-0.99,0.2-1.56,0.32c0.44,0.38,0.82,0.69,1.18,1.01c0.2,0.18,0.41,0.22,0.66,0.17c4.27-0.84,8.54-1.68,12.8-2.51
			C61.36,55.41,62.99,55.1,64.61,54.79z"/>
		<path class="st0" d="M186,23.94c-0.09-0.03-0.15-0.09-0.2-0.16c-0.92-1.49-2.36-2.16-3.99-2.53c-1.91-0.43-3.85-0.49-5.79-0.55
			c-1.37-0.04-2.73,0.03-4.1,0.04c-0.63,0-1.25,0.09-1.88,0.12c-0.26,0.01-0.35,0.15-0.37,0.37c-0.1,0.87-0.24,1.74-0.29,2.61
			c-0.17,2.97-0.27,5.94-0.24,8.91c0.01,0.52,0,0.52,0.52,0.52c3.52,0,7.03,0,10.55,0c0.46,0,0.91,0,1.24-0.4
			c0.19-0.22,0.2-0.51,0.39-0.85c0.06,2.53,0.12,4.94,0.18,7.36c-0.35-0.78-1.05-0.95-1.76-0.95c-3.62-0.02-7.23-0.01-10.85-0.01
			c-0.25,0-0.37,0.05-0.32,0.35c0.05,0.28,0.04,0.57,0.04,0.86c0,2.2-0.01,4.39,0.01,6.59c0.01,1.53,0.01,3.06,0.08,4.59
			c0.09,1.91,0.09,3.84,0.51,5.72c0.18,0.84,0.41,1.66,0.91,2.37c0.11,0.15,0.07,0.23-0.11,0.23c-0.08,0-0.15,0-0.23,0
			c-2.7,0-5.4,0-8.1,0c-0.13,0-0.31,0.07-0.38-0.06c-0.07-0.13,0.1-0.24,0.16-0.35c0.51-0.93,0.71-1.95,0.86-2.98
			c0.3-2.06,0.33-4.14,0.41-6.22c0.06-1.73,0.02-3.46,0.07-5.19c0.12-3.84,0.06-7.68,0.03-11.52c-0.01-1.84-0.01-3.69-0.06-5.53
			c-0.05-1.78-0.15-3.56-0.22-5.33c-0.07-1.91-0.82-3.52-2.12-4.89c-0.08-0.08-0.24-0.16-0.17-0.3c0.06-0.1,0.21-0.05,0.32-0.05
			c2.16,0,4.32,0.02,6.48-0.01c2.75-0.04,5.5-0.11,8.24-0.16c1.34-0.02,2.69-0.06,4.03-0.03c1.84,0.04,3.69,0.09,5.52,0.34
			c0.23,0.03,0.38,0.09,0.38,0.35c0,0.14,0.04,0.27,0.04,0.41c0.06,1.8,0.11,3.61,0.17,5.41c0,0.11,0.03,0.22,0.05,0.33
			C186,23.54,186,23.74,186,23.94z"/>
		<path class="st0" d="M167.23,69.08c-0.61,0.63-1.33,1.04-2.12,1.35c-2.26,0.9-4.54,0.79-6.82,0.11c-2.97-0.88-5.51-2.52-7.88-4.46
			c-1.36-1.11-2.54-2.43-3.87-3.57c-1.58-1.35-3.25-2.57-5.05-3.6c-0.23-0.13-0.45-0.17-0.72-0.11c-2.17,0.48-4.38,0.61-6.59,0.46
			c-5.59-0.39-10.55-2.35-14.74-6.11c-3.38-3.03-5.69-6.72-6.67-11.16c-1.34-6.06-0.21-11.68,3.41-16.72
			c3.75-5.22,8.92-8.23,15.19-9.42c1.95-0.37,3.92-0.48,5.88-0.35c6.51,0.44,12.1,2.91,16.56,7.73c2.88,3.12,4.71,6.8,5.33,11.02
			c0.9,6.13-0.71,11.6-4.59,16.41c-1.68,2.08-3.71,3.77-6,5.15c-0.2,0.12-0.28,0.18-0.08,0.4c2.27,2.46,4.52,4.95,6.8,7.4
			c1.86,2,3.98,3.64,6.53,4.67c1.32,0.53,2.69,0.82,4.1,0.88C166.36,69.18,166.8,69.11,167.23,69.08z M135.51,55.5
			c0.66-0.01,1.31-0.01,1.96-0.11c0.22-0.03,0.45-0.06,0.67-0.1c4.16-0.78,7.48-2.93,9.98-6.29c3.26-4.38,4.37-9.33,3.53-14.69
			c-0.7-4.47-2.72-8.27-6.21-11.21c-3.41-2.87-7.36-4.09-11.79-3.55c-3.47,0.42-6.47,1.94-8.91,4.41
			c-4.54,4.6-6.16,10.19-5.29,16.52c0.5,3.63,1.98,6.86,4.43,9.6C126.97,53.54,130.82,55.42,135.51,55.5z"/>
		<path class="st0" d="M108.18,23.14c-0.21-0.27-0.39-0.52-0.59-0.76c-1.57-1.88-3.64-2.84-6-3.24c-2.78-0.47-5.53-0.26-8.23,0.52
			c-1.52,0.44-2.85,1.2-3.78,2.52c-1.28,1.82-1.54,4.35,0.25,6.43c1.32,1.54,2.94,2.69,4.64,3.75c1.85,1.15,3.82,2.07,5.75,3.05
			c2.08,1.05,4.06,2.25,5.85,3.75c1.87,1.57,3.33,3.43,3.82,5.88c0.65,3.24-0.07,6.2-2.13,8.77c-2.63,3.3-6.14,5.13-10.26,5.85
			c-1.65,0.29-3.32,0.36-4.99,0.27c-2.83-0.15-5.59-0.71-8.3-1.52c-0.9-0.27-1.79-0.58-2.69-0.86c-0.27-0.08-0.38-0.22-0.38-0.51
			c0.01-2.17,0-4.34,0.01-6.51c0-0.1-0.06-0.24,0.08-0.3c0.08-0.03,0.12,0.07,0.16,0.13c0.73,1.06,1.74,1.76,2.9,2.27
			c1.02,0.45,2.02,0.95,3.03,1.42c1.9,0.89,3.91,1.3,6.01,1.36c2.63,0.08,5.18-0.29,7.61-1.31c1.38-0.58,2.52-1.52,3.24-2.82
			c0.76-1.37,1.27-2.89,0.74-4.48c-0.56-1.69-1.58-3.06-3.18-3.96c-1.45-0.81-2.97-1.47-4.47-2.18c-3.44-1.62-6.79-3.38-9.77-5.77
			c-1.26-1.01-2.39-2.14-3.31-3.48c-1.84-2.66-1.91-5.48-0.69-8.37c1.02-2.41,2.9-4.02,5.16-5.23c1.86-0.99,3.87-1.52,5.96-1.75
			c2.13-0.24,4.26-0.17,6.39-0.08c1.24,0.05,2.48,0.1,3.72,0.16c1.05,0.05,2.11,0.1,3.16,0.08c0.21,0,0.33,0.05,0.33,0.29
			c-0.01,2.17-0.01,4.34-0.02,6.51C108.24,23.05,108.23,23.06,108.18,23.14z"/>
		<path class="st0" d="M69.14,30.19c-3.32-0.55-6.56-1.09-9.81-1.62c-4.69-0.77-9.38-1.49-14.06-2.31c-1.35-0.24-2.67-0.08-4,0
			c-1.18,0.08-2.35,0.16-3.53,0.25c-1.62,0.12-3.25,0.24-4.87,0.36c-1.2,0.09-2.4,0.16-3.6,0.25c-1.56,0.11-3.12,0.24-4.69,0.35
			c-1.16,0.09-2.33,0.16-3.49,0.25c-0.52,0.04-1.05,0.06-1.57,0.11c-0.25,0.02-0.3-0.06-0.2-0.28c0.11-0.24,0.25-0.47,0.32-0.72
			c0.18-0.69,0.67-0.85,1.31-0.89c1.93-0.1,3.85-0.25,5.78-0.38c2.45-0.17,4.9-0.35,7.35-0.53c1.71-0.12,3.42-0.25,5.14-0.37
			c1.4-0.1,2.8-0.2,4.2-0.3c0.32-0.02,0.46-0.13,0.46-0.49c-0.02-1.76-0.01-3.51-0.01-5.27c0-0.57,0-0.58,0.53-0.4
			c6.83,2.27,13.67,4.54,20.5,6.8c0.7,0.23,1.41,0.46,2.11,0.69c0.16,0.05,0.3,0.11,0.39,0.27C68.1,27.31,68.67,28.7,69.14,30.19z"
			/>
	</g>
</g>
</svg>
