<?xml version="1.0" encoding="utf-8"?>
<!-- Generator: Adobe Illustrator 27.6.1, SVG Export Plug-In . SVG Version: 6.00 Build 0)  -->
<svg version="1.1" id="Layer_1" xmlns="http://www.w3.org/2000/svg" xmlns:xlink="http://www.w3.org/1999/xlink" x="0px" y="0px"
	 viewBox="0 0 237 237.45" style="enable-background:new 0 0 237 237.45;" xml:space="preserve">
<style type="text/css">
	.st0{fill:#2E328F;stroke:#000000;stroke-width:1.4006;stroke-miterlimit:10;}
	.st1{fill:#FFFFFF;}
	.st2{fill:#3FC6F1;}
</style>
<circle class="st0" cx="118.61" cy="118.32" r="113"/>
<g>
	<path class="st1" d="M160.11,59.72l-2.57-0.03c-9.49,0-15.17,3.64-18.48,7.29c-6.73-5.48-15.08-8.48-23.74-8.48
		c-20.8,0-37.73,16.93-37.73,37.73s16.93,37.73,37.73,37.73s37.73-16.93,37.73-37.73c0-5.12-1.03-10.09-3.06-14.79
		c5.35-2.49,10.69-7.91,10.19-19.7L160.11,59.72z M115.33,82.16c7.76,0,14.07,6.31,14.07,14.07s-6.31,14.07-14.07,14.07
		s-14.07-6.31-14.07-14.07S107.57,82.16,115.33,82.16z"/>
	<path class="st1" d="M130.76,137.86c-0.64,9.75-7.31,17.44-15.43,17.44c-8.19,0-14.9-7.83-15.44-17.7L77,134.2v2.13
		c0,23.05,17.2,41.81,38.33,41.81c21.13,0,38.32-18.76,38.32-41.81v-1.88L130.76,137.86z"/>
</g>
<g>
	<path class="st2" d="M139.22,31.52c-3.31-0.77-5.31-4-4.54-7.29s3.98-5.3,7.29-4.53c1.77,0.41,3.24,1.48,4.08,2.94l-1.05,0.67
		c-0.65-1.2-1.89-2.12-3.3-2.44c-2.62-0.61-5.11,0.98-5.74,3.66c-0.63,2.68,0.9,5.22,3.52,5.83c2.32,0.54,4.5-0.69,5.22-2.89
		l-4.11-0.96l0.26-1.11l5.39,1.26l-0.12,0.51C145.37,30.35,142.37,32.25,139.22,31.52z"/>
	<path class="st2" d="M147.41,33.69l-1.18-0.39l3.71-11.16l1.27,0.12L147.41,33.69z"/>
	<path class="st2" d="M156.13,27.81c2.2,0.91,3.22,3.41,2.28,5.67c-0.95,2.28-3.43,3.32-5.64,2.41c-2.22-0.92-3.24-3.42-2.29-5.7
		C151.42,27.93,153.91,26.89,156.13,27.81z M157.28,33.01c0.7-1.69,0.01-3.52-1.58-4.18c-1.58-0.66-3.39,0.14-4.09,1.83
		c-0.7,1.69-0.01,3.54,1.58,4.2C154.78,35.52,156.58,34.7,157.28,33.01z"/>
	<path class="st2" d="M162.03,30.65l1.1,0.57l-0.55,1.06c0.85-0.54,1.81-0.61,2.72-0.14c0.28,0.15,0.46,0.28,0.65,0.47l-0.53,1.01
		c-0.22-0.23-0.45-0.41-0.71-0.54c-0.92-0.48-1.91-0.31-2.81,0.49l-2.66,5.12l-1.1-0.57L162.03,30.65z"/>
	<path class="st2" d="M164.19,41.42l-1.07-0.63l4.25-7.27l1.07,0.63L164.19,41.42z M168.42,31.3c0.24-0.41,0.76-0.53,1.15-0.3
		c0.41,0.24,0.54,0.74,0.3,1.15c-0.23,0.39-0.74,0.54-1.15,0.3C168.33,32.22,168.19,31.69,168.42,31.3z"/>
	<path class="st2" d="M170.63,35.4l1.01,0.69l-0.51,0.75c0.99-0.16,1.96,0.08,2.84,0.68c1.97,1.35,2.42,3.96,1.04,5.97
		c-1.39,2.02-3.99,2.55-5.97,1.19c-0.82-0.56-1.4-1.38-1.67-2.33l-2.43,3.54l-1.03-0.7L170.63,35.4z M170.45,37.86l-2.36,3.44
		c0.08,0.93,0.62,1.83,1.48,2.42c1.47,1.01,3.37,0.62,4.42-0.91c1.05-1.53,0.72-3.46-0.74-4.46
		C172.38,37.76,171.35,37.58,170.45,37.86z"/>
	<path class="st2" d="M176.67,50.57c-1.85-1.58-2.07-4.26-0.46-6.13c1.57-1.84,4.21-2.11,5.97-0.61c1.7,1.45,1.79,4.04,0.22,5.88
		L182.14,50l-5.25-4.48c-0.94,1.39-0.74,3.17,0.53,4.25c0.66,0.57,1.51,0.92,2.26,0.92l0.05,1.13
		C178.56,51.74,177.59,51.35,176.67,50.57z M177.56,44.79l4.28,3.65c0.8-1.28,0.66-2.9-0.4-3.81
		C180.33,43.69,178.74,43.77,177.56,44.79z"/>
	<path class="st2" d="M186.41,49.31l-1.28-1.29l0.75-0.75l1.28,1.29l1.51-1.51l1.09,0.64l-1.74,1.73l1.79,1.8l-0.75,0.75l-1.79-1.8
		l-3.65,3.64c-0.64,0.64-0.63,1.15,0.02,1.81c0.33,0.33,0.61,0.54,1.02,0.72l-0.77,0.77c-0.42-0.2-0.85-0.55-1.2-0.89
		c-1.03-1.04-1.1-2.11-0.16-3.04L186.41,49.31z"/>
	<path class="st2" d="M187.46,54.73c1.85-1.56,4.49-1.37,6.03,0.45c0.62,0.73,0.94,1.67,0.95,2.67l0.64-0.54l0.79,0.94l-6.59,5.56
		c-1.64,1.39-3.39,1.17-4.9-0.62c-0.76-0.9-1.27-2-1.46-3.08l1.09-0.22c0.24,1.12,0.59,1.9,1.15,2.57c1.03,1.22,2.16,1.36,3.29,0.41
		l0.86-0.73c-0.98-0.17-1.83-0.66-2.47-1.41C185.36,58.94,185.6,56.3,187.46,54.73z M187.77,60.1c0.69,0.82,1.61,1.26,2.54,1.22
		l3.16-2.67c0.18-0.9-0.1-1.89-0.78-2.7c-1.13-1.34-3.05-1.45-4.44-0.28C186.87,56.84,186.65,58.78,187.77,60.1z"/>
	<path class="st2" d="M199.85,63.55c1.33,1.98,0.81,4.63-1.23,6c-2.05,1.38-4.7,0.88-6.03-1.1c-1.34-1.99-0.82-4.64,1.23-6.02
		C195.85,61.06,198.5,61.56,199.85,63.55z M197.93,68.53c1.52-1.03,1.95-2.94,0.99-4.36c-0.96-1.42-2.91-1.75-4.42-0.73
		c-1.52,1.03-1.96,2.95-1,4.38C194.47,69.25,196.42,69.56,197.93,68.53z"/>
	<path class="st2" d="M205.02,66.97l1.93,3.39l-0.53,0.3l-0.79-1.4l-3.45,1.96l-0.34-0.6l3.45-1.96l-0.79-1.4L205.02,66.97z"/>
	<path class="st2" d="M206.79,71.87l-3.33,1.68l-0.29-0.57l4.08-2.06l0.41,0.82l-1.96,2.6l3.25-0.04l0.41,0.82l-4.08,2.06
		l-0.29-0.58l3.33-1.68l-3.81,0.01L206.79,71.87z"/>
	<path class="st2" d="M205.21,96.89c-0.82-3.29,1.14-6.55,4.42-7.37c3.28-0.82,6.53,1.13,7.35,4.42c0.44,1.76,0.16,3.56-0.75,4.97
		l-1.08-0.63c0.78-1.13,1.02-2.64,0.67-4.05c-0.65-2.61-3.2-4.1-5.88-3.44c-2.67,0.67-4.23,3.18-3.58,5.79
		c0.58,2.32,2.67,3.68,4.95,3.32l-1.02-4.09l1.11-0.28l1.34,5.36l-0.51,0.13C209.05,101.82,205.99,100.02,205.21,96.89z"/>
	<path class="st2" d="M207.02,105.15l-0.19-1.23l11.62-1.8l0.47,1.19L207.02,105.15z"/>
	<path class="st2" d="M216.25,110.26c0.19,2.38-1.56,4.43-4.01,4.63c-2.46,0.2-4.53-1.54-4.72-3.92c-0.2-2.4,1.56-4.45,4.02-4.65
		C213.99,106.12,216.05,107.86,216.25,110.26z M212.14,113.66c1.83-0.15,3.14-1.61,3-3.31c-0.14-1.71-1.67-2.95-3.5-2.8
		c-1.83,0.15-3.16,1.61-3.02,3.33C208.76,112.59,210.31,113.81,212.14,113.66z"/>
	<path class="st2" d="M216.43,116.83l-0.02,1.24l-1.19-0.02c0.87,0.52,1.36,1.35,1.34,2.37c0,0.32-0.04,0.54-0.13,0.79l-1.14-0.02
		c0.11-0.3,0.16-0.59,0.17-0.87c0.02-1.04-0.57-1.84-1.69-2.3l-5.76-0.1l0.02-1.24L216.43,116.83z"/>
	<path class="st2" d="M207.83,123.64l0.06-1.24l8.4,0.44l-0.06,1.24L207.83,123.64z M218.76,122.75c0.47,0.02,0.82,0.43,0.79,0.88
		c-0.02,0.47-0.41,0.82-0.88,0.8c-0.45-0.02-0.82-0.41-0.8-0.88C217.9,123.09,218.31,122.73,218.76,122.75z"/>
	<path class="st2" d="M216.13,126.59l-0.15,1.22l-0.9-0.11c0.59,0.8,0.83,1.78,0.7,2.83c-0.29,2.37-2.41,3.97-4.82,3.67
		c-2.43-0.3-4.09-2.37-3.79-4.75c0.12-0.98,0.59-1.87,1.3-2.55l-4.25-0.53l0.15-1.23L216.13,126.59z M213.86,127.56l-4.13-0.51
		c-0.79,0.49-1.34,1.39-1.47,2.42c-0.22,1.77,1,3.27,2.83,3.5c1.83,0.23,3.4-0.95,3.62-2.7
		C214.84,129.22,214.52,128.23,213.86,127.56z"/>
	<path class="st2" d="M205.44,138.93c0.55-2.37,2.84-3.79,5.24-3.23c2.36,0.55,3.81,2.77,3.28,5.03c-0.51,2.18-2.77,3.44-5.13,2.89
		l-0.38-0.09l1.57-6.73c-1.66-0.2-3.16,0.8-3.53,2.42c-0.2,0.85-0.12,1.77,0.22,2.44l-0.98,0.57
		C205.27,141.15,205.16,140.11,205.44,138.93z M210.99,137.07l-1.28,5.48c1.51,0.13,2.88-0.74,3.2-2.1
		C213.24,139.03,212.44,137.65,210.99,137.07z"/>
	<path class="st2" d="M211.02,147.02l0.56-1.73l1.01,0.32l-0.56,1.73l2.03,0.65l-0.07,1.27l-2.34-0.75l-0.78,2.42l-1.01-0.32
		l0.78-2.42l-4.91-1.58c-0.86-0.28-1.31-0.03-1.6,0.85c-0.14,0.45-0.2,0.78-0.17,1.24l-1.04-0.34c-0.01-0.46,0.1-1.01,0.24-1.48
		c0.45-1.39,1.37-1.94,2.63-1.54L211.02,147.02z"/>
	<path class="st2" d="M206.7,150.41c2.23,0.93,3.28,3.37,2.36,5.57c-0.37,0.88-1.05,1.6-1.94,2.07l0.78,0.32l-0.47,1.13l-7.96-3.32
		c-1.99-0.83-2.59-2.48-1.69-4.64c0.45-1.09,1.2-2.05,2.08-2.7l0.69,0.87c-0.89,0.72-1.42,1.39-1.76,2.2
		c-0.61,1.47-0.22,2.55,1.14,3.12l1.04,0.43c-0.3-0.94-0.25-1.93,0.13-2.84C201.99,150.47,204.45,149.47,206.7,150.41z
		 M202.06,153.14c-0.41,0.99-0.38,2.01,0.08,2.82l3.82,1.59c0.89-0.25,1.64-0.96,2.05-1.93c0.67-1.61-0.1-3.38-1.78-4.08
		C204.55,150.85,202.73,151.54,202.06,153.14z"/>
	<path class="st2" d="M204.49,165.48c-1.15,2.09-3.74,2.83-5.89,1.65c-2.16-1.19-2.93-3.78-1.78-5.87c1.16-2.11,3.75-2.85,5.92-1.66
		C204.89,160.79,205.65,163.37,204.49,165.48z M199.19,166.05c1.61,0.88,3.5,0.39,4.33-1.11c0.83-1.5,0.23-3.38-1.37-4.27
		s-3.52-0.4-4.35,1.12C196.97,163.3,197.59,165.17,199.19,166.05z"/>
	<path class="st2" d="M203.83,171.61l-2.13,3.27l-0.51-0.33l0.88-1.35l-3.32-2.17l0.37-0.57l3.32,2.17l0.88-1.35L203.83,171.61z"/>
	<path class="st2" d="M200.26,175.44l-3.01-2.19l0.38-0.52l3.69,2.69l-0.54,0.74l-3.21-0.56l1.52,2.88l-0.54,0.74l-3.69-2.69
		l0.38-0.52l3.01,2.2l-1.75-3.38L200.26,175.44z"/>
	<path class="st2" d="M180.99,182.06c2.42-2.38,6.22-2.34,8.59,0.07c2.37,2.41,2.34,6.2-0.08,8.58c-1.29,1.27-2.99,1.95-4.66,1.87
		l0-1.25c1.37,0.1,2.8-0.46,3.83-1.47c1.92-1.88,1.91-4.84-0.02-6.81c-1.93-1.97-4.89-2.03-6.81-0.14c-1.7,1.67-1.82,4.17-0.35,5.95
		l3.01-2.96l0.8,0.82l-3.94,3.87l-0.37-0.37C178.69,187.88,178.69,184.32,180.99,182.06z"/>
	<path class="st2" d="M174.8,187.82l0.96-0.79l7.47,9.1l-0.78,1.01L174.8,187.82z"/>
	<path class="st2" d="M175.11,198.35c-1.95,1.38-4.6,0.91-6.02-1.09c-1.43-2.02-0.98-4.68,0.97-6.05c1.96-1.39,4.62-0.92,6.04,1.1
		C177.52,194.31,177.07,196.97,175.11,198.35z M170.09,196.55c1.06,1.5,2.98,1.89,4.38,0.9s1.69-2.94,0.63-4.44s-2.99-1.9-4.4-0.9
		C169.3,193.1,169.03,195.06,170.09,196.55z"/>
	<path class="st2" d="M169.6,201.8l-1.07,0.63l-0.6-1.03c0.01,1.01-0.45,1.86-1.33,2.38c-0.28,0.16-0.48,0.24-0.74,0.3l-0.58-0.98
		c0.31-0.07,0.58-0.17,0.83-0.31c0.9-0.53,1.27-1.45,1.08-2.64l-2.92-4.97l1.07-0.63L169.6,201.8z"/>
	<path class="st2" d="M159.29,197.92l1.1-0.57l3.89,7.46l-1.1,0.57L159.29,197.92z M165.61,206.88c0.22,0.42,0.05,0.92-0.36,1.13
		c-0.42,0.22-0.92,0.06-1.13-0.36c-0.21-0.4-0.06-0.92,0.36-1.13C164.88,206.32,165.4,206.48,165.61,206.88z"/>
	<path class="st2" d="M160.95,206.58l-1.13,0.49l-0.36-0.83c-0.39,0.92-1.11,1.62-2.09,2.04c-2.19,0.95-4.64-0.06-5.61-2.3
		c-0.97-2.25-0.03-4.73,2.18-5.68c0.91-0.39,1.91-0.44,2.86-0.17l-1.7-3.93l1.14-0.49L160.95,206.58z M158.96,205.12l-1.65-3.83
		c-0.83-0.43-1.88-0.45-2.84-0.04c-1.64,0.71-2.32,2.52-1.58,4.22c0.73,1.7,2.54,2.45,4.16,1.75
		C158.02,206.8,158.71,206.03,158.96,205.12z"/>
	<path class="st2" d="M144.92,203.6c2.33-0.72,4.71,0.52,5.44,2.88c0.72,2.31-0.46,4.69-2.67,5.38c-2.14,0.67-4.37-0.64-5.09-2.96
		l-0.11-0.37l6.6-2.06c-0.67-1.53-2.29-2.32-3.88-1.82c-0.83,0.26-1.58,0.79-1.98,1.43l-0.98-0.56
		C142.92,204.57,143.76,203.96,144.92,203.6z M149.34,207.43l-5.38,1.68c0.65,1.36,2.1,2.11,3.43,1.69
		C148.79,210.37,149.57,208.98,149.34,207.43z"/>
	<path class="st2" d="M140.78,212.5l1.77-0.4l0.23,1.03l-1.77,0.4l0.47,2.08l-1.13,0.58l-0.54-2.39l-2.47,0.55l-0.23-1.03l2.47-0.55
		l-1.13-5.03c-0.2-0.88-0.64-1.15-1.54-0.95c-0.46,0.1-0.78,0.23-1.15,0.48l-0.24-1.07c0.39-0.24,0.92-0.43,1.4-0.54
		c1.43-0.32,2.37,0.19,2.66,1.49L140.78,212.5z"/>
	<path class="st2" d="M135.63,210.5c0.33,2.4-1.24,4.53-3.61,4.85c-0.95,0.13-1.91-0.09-2.77-0.62l0.11,0.83l-1.22,0.17l-1.17-8.54
		c-0.29-2.13,0.83-3.49,3.14-3.81c1.17-0.16,2.37,0,3.38,0.42l-0.4,1.04c-1.07-0.4-1.92-0.52-2.79-0.4
		c-1.58,0.22-2.31,1.1-2.11,2.56l0.15,1.12c0.66-0.74,1.53-1.19,2.51-1.33C133.19,206.47,135.29,208.08,135.63,210.5z
		 M130.92,207.89c-1.07,0.15-1.92,0.69-2.39,1.5l0.56,4.1c0.66,0.64,1.65,0.93,2.7,0.78c1.73-0.24,2.86-1.8,2.61-3.6
		C134.16,208.87,132.64,207.65,130.92,207.89z"/>
	<path class="st2" d="M121.52,216.24c-2.39,0.07-4.34-1.79-4.41-4.24c-0.07-2.47,1.77-4.44,4.16-4.51c2.4-0.07,4.36,1.79,4.43,4.26
		C125.77,214.19,123.93,216.16,121.52,216.24z M118.34,211.96c0.05,1.83,1.44,3.22,3.15,3.17c1.71-0.05,3.03-1.52,2.98-3.35
		c-0.05-1.83-1.44-3.24-3.17-3.19C119.59,208.64,118.28,210.13,118.34,211.96z"/>
	<path class="st2" d="M115.92,218.77l-3.89-0.18l0.03-0.61l1.6,0.07l0.18-3.96l0.68,0.03l-0.18,3.96l1.6,0.07L115.92,218.77z"/>
	<path class="st2" d="M110.81,217.66l0.35-3.7l0.64,0.06l-0.43,4.55l-0.91-0.09l-1.15-3.04l-1.7,2.77l-0.91-0.09l0.43-4.55
		l0.64,0.06l-0.35,3.71l2.02-3.22L110.81,217.66z"/>
	<path class="st2" d="M98.24,205.17c3.31,0.76,5.32,3.99,4.56,7.28c-0.76,3.29-3.97,5.31-7.27,4.54c-1.77-0.41-3.25-1.47-4.08-2.93
		l1.05-0.67c0.65,1.2,1.89,2.11,3.3,2.44c2.62,0.61,5.11-0.99,5.73-3.68c0.62-2.68-0.92-5.21-3.54-5.82
		c-2.32-0.54-4.49,0.7-5.21,2.9l4.11,0.95l-0.26,1.11l-5.39-1.24l0.12-0.51C92.11,206.36,95.1,204.44,98.24,205.17z"/>
	<path class="st2" d="M90.07,203.04l1.18,0.39l-3.68,11.17l-1.27-0.12L90.07,203.04z"/>
	<path class="st2" d="M81.34,208.93c-2.21-0.91-3.23-3.4-2.3-5.67c0.94-2.28,3.42-3.33,5.63-2.43c2.22,0.91,3.25,3.41,2.31,5.69
		C86.05,208.8,83.56,209.85,81.34,208.93z M80.17,203.73c-0.7,1.69,0,3.53,1.59,4.18c1.59,0.65,3.39-0.15,4.08-1.84
		c0.7-1.69,0-3.54-1.6-4.2C82.66,201.21,80.87,202.04,80.17,203.73z"/>
	<path class="st2" d="M75.46,206.12l-1.11-0.57l0.55-1.06c-0.85,0.55-1.81,0.62-2.72,0.14c-0.28-0.15-0.46-0.28-0.65-0.47l0.52-1.02
		c0.22,0.23,0.45,0.4,0.71,0.54c0.93,0.48,1.91,0.3,2.81-0.5l2.65-5.12l1.11,0.57L75.46,206.12z"/>
	<path class="st2" d="M69.04,205.47c-0.24,0.41-0.76,0.53-1.15,0.3c-0.41-0.24-0.54-0.74-0.3-1.15c0.23-0.39,0.74-0.54,1.15-0.3
		C69.13,204.55,69.27,205.08,69.04,205.47z M73.24,195.33l1.08,0.62l-4.23,7.28l-1.08-0.63L73.24,195.33z"/>
	<path class="st2" d="M66.82,201.37l-1.01-0.69l0.51-0.75c-0.99,0.16-1.96-0.08-2.84-0.67c-1.97-1.34-2.43-3.96-1.06-5.97
		c1.38-2.03,3.98-2.56,5.97-1.2c0.82,0.56,1.4,1.38,1.67,2.32l2.41-3.54l1.03,0.7L66.82,201.37z M66.99,198.91l2.35-3.44
		c-0.08-0.93-0.63-1.83-1.49-2.42c-1.47-1-3.37-0.61-4.41,0.92c-1.04,1.53-0.71,3.46,0.75,4.46
		C65.06,199.02,66.09,199.19,66.99,198.91z"/>
	<path class="st2" d="M60.73,186.22c1.86,1.58,2.08,4.26,0.48,6.14c-1.57,1.85-4.2,2.12-5.97,0.62c-1.7-1.45-1.8-4.04-0.23-5.89
		l0.25-0.29l5.27,4.47c0.94-1.39,0.73-3.17-0.54-4.25c-0.67-0.57-1.52-0.91-2.27-0.91l-0.06-1.13
		C58.83,185.05,59.81,185.43,60.73,186.22z M59.86,192l-4.3-3.64c-0.8,1.28-0.66,2.91,0.41,3.81
		C57.09,193.11,58.68,193.03,59.86,192z"/>
	<path class="st2" d="M51,187.5l1.29,1.28l-0.75,0.75l-1.29-1.28l-1.51,1.51l-1.09-0.64l1.73-1.74l-1.8-1.79l0.75-0.75l1.8,1.79
		l3.64-3.65c0.64-0.64,0.63-1.15-0.03-1.81c-0.33-0.33-0.61-0.53-1.02-0.71l0.77-0.77c0.42,0.2,0.86,0.55,1.2,0.89
		c1.04,1.03,1.11,2.1,0.17,3.04L51,187.5z"/>
	<path class="st2" d="M49.93,182.09c-1.85,1.57-4.49,1.39-6.04-0.44c-0.62-0.73-0.95-1.66-0.96-2.67l-0.64,0.54l-0.79-0.94
		l6.58-5.58c1.64-1.39,3.39-1.18,4.9,0.61c0.76,0.9,1.28,2,1.47,3.08l-1.09,0.22c-0.24-1.12-0.6-1.9-1.16-2.56
		c-1.03-1.22-2.17-1.36-3.3-0.4l-0.86,0.73c0.98,0.16,1.83,0.65,2.47,1.41C52.02,177.87,51.79,180.51,49.93,182.09z M49.61,176.72
		c-0.7-0.82-1.62-1.25-2.55-1.21l-3.15,2.68c-0.18,0.9,0.11,1.89,0.79,2.7c1.13,1.33,3.05,1.44,4.44,0.27
		C50.52,179.98,50.73,178.04,49.61,176.72z"/>
	<path class="st2" d="M37.53,173.3c-1.34-1.97-0.83-4.62,1.2-6c2.04-1.39,4.69-0.9,6.03,1.08c1.35,1.99,0.83,4.63-1.21,6.02
		C41.53,175.78,38.88,175.29,37.53,173.3z M39.43,168.32c-1.51,1.03-1.94,2.94-0.98,4.36c0.96,1.42,2.91,1.74,4.42,0.71
		c1.51-1.03,1.95-2.95,0.98-4.38C42.89,167.59,40.94,167.29,39.43,168.32z"/>
	<path class="st2" d="M32.35,169.9l-1.94-3.38l0.53-0.3l0.8,1.39l3.44-1.97l0.34,0.59l-3.44,1.97l0.8,1.39L32.35,169.9z"/>
	<path class="st2" d="M30.57,165l3.31-1.69l0.29,0.57l-4.07,2.08l-0.42-0.81l1.94-2.61l-3.25,0.06l-0.42-0.81l4.07-2.08l0.29,0.58
		l-3.32,1.7l3.8-0.03L30.57,165z"/>
	<path class="st2" d="M33.74,145.79c1.05,3.23-0.67,6.62-3.88,7.67c-3.21,1.05-6.6-0.66-7.65-3.89c-0.56-1.73-0.41-3.54,0.4-5.01
		l1.12,0.56c-0.69,1.18-0.83,2.71-0.38,4.09c0.83,2.56,3.49,3.87,6.11,3.01c2.62-0.86,3.99-3.48,3.16-6.04
		c-0.74-2.27-2.92-3.49-5.18-2.96l1.31,4.01l-1.09,0.35l-1.72-5.26l0.5-0.16C29.55,141.14,32.73,142.72,33.74,145.79z"/>
	<path class="st2" d="M31.34,137.66l0.28,1.21l-11.47,2.62l-0.56-1.15L31.34,137.66z"/>
	<path class="st2" d="M21.78,133.22c-0.36-2.36,1.24-4.52,3.67-4.9c2.44-0.37,4.62,1.21,4.98,3.57c0.36,2.37-1.24,4.54-3.68,4.91
		C24.33,137.18,22.15,135.6,21.78,133.22z M25.64,129.54c-1.81,0.28-3.02,1.82-2.76,3.52c0.26,1.69,1.88,2.82,3.69,2.55
		c1.81-0.28,3.04-1.82,2.77-3.53C29.08,130.37,27.45,129.26,25.64,129.54z"/>
	<path class="st2" d="M21.16,126.74l-0.08-1.24l1.19-0.08c-0.91-0.45-1.46-1.23-1.53-2.26c-0.02-0.32,0-0.54,0.06-0.8l1.14-0.08
		c-0.08,0.31-0.11,0.6-0.09,0.88c0.07,1.04,0.72,1.79,1.88,2.15l5.75-0.38l0.08,1.24L21.16,126.74z"/>
	<path class="st2" d="M18.4,120.94c-0.47,0.01-0.85-0.37-0.85-0.82c-0.01-0.47,0.35-0.85,0.82-0.85c0.45-0.01,0.85,0.35,0.85,0.82
		C19.23,120.54,18.85,120.93,18.4,120.94z M29.24,119.28l0.02,1.24l-8.42,0.15l-0.02-1.24L29.24,119.28z"/>
	<path class="st2" d="M20.76,116.91l0.06-1.22l0.91,0.05c-0.65-0.76-0.95-1.72-0.89-2.77c0.13-2.38,2.12-4.13,4.55-4
		c2.45,0.13,4.25,2.08,4.12,4.48c-0.05,0.99-0.46,1.91-1.12,2.63l4.28,0.23l-0.07,1.24L20.76,116.91z M22.95,115.79l4.16,0.22
		c0.75-0.55,1.24-1.48,1.3-2.52c0.1-1.78-1.23-3.2-3.07-3.29c-1.85-0.1-3.33,1.19-3.42,2.95C21.86,114.2,22.25,115.16,22.95,115.79z
		"/>
	<path class="st2" d="M30.55,103.87c-0.38,2.41-2.56,3.98-5,3.6c-2.39-0.38-4-2.49-3.63-4.79c0.35-2.21,2.52-3.63,4.91-3.25
		l0.38,0.06l-1.09,6.83c1.67,0.08,3.09-1.02,3.35-2.67c0.14-0.86-0.01-1.77-0.4-2.41l0.94-0.63
		C30.57,101.65,30.75,102.68,30.55,103.87z M25.15,106.13l0.89-5.56c-1.51-0.02-2.82,0.95-3.04,2.32
		C22.77,104.33,23.66,105.65,25.15,106.13z"/>
	<path class="st2" d="M24.41,96.21l-0.43,1.76l-1.03-0.25l0.43-1.76l-2.07-0.51l-0.02-1.27l2.38,0.58l0.6-2.47l1.03,0.25l-0.6,2.47
		l5.01,1.23c0.88,0.22,1.31-0.06,1.53-0.96c0.11-0.46,0.14-0.8,0.08-1.24l1.06,0.26c0.04,0.46-0.02,1.02-0.14,1.49
		c-0.35,1.42-1.22,2.04-2.52,1.72L24.41,96.21z"/>
	<path class="st2" d="M28.5,92.49c-2.29-0.77-3.5-3.13-2.74-5.39c0.31-0.91,0.93-1.67,1.79-2.2l-0.8-0.27l0.39-1.16l8.17,2.75
		c2.04,0.69,2.76,2.29,2.01,4.51c-0.38,1.11-1.05,2.13-1.88,2.84l-0.75-0.82c0.83-0.78,1.32-1.49,1.6-2.32
		c0.51-1.51,0.05-2.56-1.36-3.03l-1.07-0.36c0.36,0.92,0.39,1.9,0.07,2.84C33.19,92.1,30.81,93.27,28.5,92.49z M32.93,89.44
		c0.34-1.02,0.24-2.03-0.28-2.81l-3.92-1.32c-0.87,0.31-1.57,1.07-1.9,2.07c-0.56,1.66,0.34,3.36,2.06,3.94
		C30.61,91.91,32.38,91.08,32.93,89.44z"/>
	<path class="st2" d="M29.62,77.32c1-2.17,3.53-3.09,5.76-2.06c2.24,1.03,3.19,3.56,2.19,5.73c-1.01,2.18-3.54,3.1-5.78,2.07
		C29.56,82.03,28.62,79.5,29.62,77.32z M34.87,76.37c-1.66-0.77-3.52-0.14-4.24,1.41c-0.72,1.56,0.01,3.39,1.67,4.16
		s3.54,0.15,4.26-1.42C37.28,78.96,36.53,77.14,34.87,76.37z"/>
	<path class="st2" d="M29.87,71.12l1.9-3.41l0.53,0.3l-0.78,1.4l3.46,1.93l-0.33,0.6l-3.46-1.93l-0.78,1.4L29.87,71.12z"/>
	<path class="st2" d="M33.15,67.08l3.16,1.97l-0.34,0.54l-3.87-2.42l0.48-0.78l3.24,0.33l-1.72-2.76l0.48-0.77l3.87,2.42l-0.34,0.55
		l-3.16-1.98l1.98,3.25L33.15,67.08z"/>
	<path class="st2" d="M51.24,59.87c-2.22,2.57-6.01,2.85-8.57,0.64c-2.56-2.21-2.84-5.99-0.63-8.56c1.19-1.37,2.82-2.18,4.49-2.25
		l0.1,1.24c-1.37,0.02-2.75,0.69-3.69,1.78c-1.76,2.03-1.51,4.98,0.58,6.78c2.09,1.8,5.04,1.62,6.8-0.41
		c1.56-1.81,1.47-4.3-0.14-5.96l-2.76,3.19l-0.86-0.75l3.61-4.18l0.39,0.34C53.05,53.89,53.35,57.43,51.24,59.87z"/>
	<path class="st2" d="M56.97,53.61l-0.9,0.86l-8.17-8.47l0.7-1.07L56.97,53.61z"/>
	<path class="st2" d="M55.79,43.15c1.83-1.53,4.52-1.28,6.09,0.6c1.59,1.89,1.36,4.58-0.47,6.12c-1.84,1.54-4.53,1.29-6.12-0.6
		C53.72,47.38,53.95,44.69,55.79,43.15z M60.94,44.53c-1.18-1.4-3.12-1.64-4.44-0.54c-1.31,1.1-1.44,3.07-0.26,4.48
		c1.18,1.4,3.14,1.65,4.46,0.54C62.02,47.91,62.12,45.94,60.94,44.53z"/>
	<path class="st2" d="M60.99,39.27l1.02-0.72l0.69,0.98c-0.09-1.01,0.3-1.89,1.14-2.48c0.26-0.18,0.46-0.28,0.71-0.36l0.66,0.94
		c-0.31,0.09-0.57,0.21-0.8,0.38c-0.85,0.6-1.15,1.55-0.86,2.72l3.31,4.72l-1.02,0.71L60.99,39.27z"/>
	<path class="st2" d="M64.56,33.87c-0.25-0.4-0.12-0.92,0.26-1.16c0.4-0.25,0.91-0.13,1.16,0.26c0.24,0.38,0.13,0.91-0.26,1.16
		C65.34,34.37,64.81,34.25,64.56,33.87z M71.59,42.3l-1.05,0.66l-4.49-7.13l1.05-0.66L71.59,42.3z"/>
	<path class="st2" d="M69.21,33.82l1.08-0.58l0.43,0.8c0.31-0.95,0.98-1.7,1.91-2.2c2.11-1.12,4.63-0.32,5.78,1.83
		c1.15,2.17,0.42,4.71-1.7,5.84c-0.88,0.47-1.87,0.6-2.83,0.41l2.02,3.78l-1.1,0.59L69.21,33.82z M71.31,35.12l1.96,3.68
		c0.86,0.36,1.91,0.3,2.83-0.19c1.57-0.84,2.1-2.7,1.23-4.33c-0.87-1.63-2.73-2.24-4.29-1.41C72.11,33.36,71.48,34.19,71.31,35.12z"
		/>
	<path class="st2" d="M85.45,35.46c-2.26,0.91-4.73-0.13-5.66-2.42c-0.91-2.24,0.07-4.71,2.22-5.58c2.07-0.84,4.41,0.28,5.32,2.52
		l0.14,0.36l-6.4,2.59c0.8,1.47,2.47,2.12,4.01,1.49c0.81-0.33,1.51-0.92,1.86-1.59l1.03,0.47C87.37,34.32,86.57,35.01,85.45,35.46z
		 M80.73,32l5.22-2.11c-0.76-1.3-2.27-1.93-3.56-1.41C81.04,29.03,80.37,30.48,80.73,32z"/>
	<path class="st2" d="M88.86,26.24l-1.73,0.54l-0.32-1.01l1.73-0.54l-0.64-2.04l1.08-0.67l0.73,2.34l2.42-0.75l0.32,1.01l-2.42,0.75
		l1.54,4.93c0.27,0.87,0.73,1.09,1.61,0.82c0.45-0.14,0.76-0.29,1.11-0.57l0.32,1.04c-0.37,0.27-0.88,0.5-1.35,0.65
		c-1.4,0.43-2.38,0-2.77-1.27L88.86,26.24z"/>
	<path class="st2" d="M94.14,27.82c-0.52-2.36,0.87-4.62,3.2-5.13c0.94-0.21,1.91-0.06,2.81,0.39l-0.18-0.82l1.2-0.26l1.86,8.42
		c0.47,2.1-0.54,3.55-2.82,4.05c-1.15,0.25-2.37,0.2-3.41-0.14l0.31-1.07c1.1,0.31,1.96,0.36,2.81,0.17
		c1.56-0.35,2.21-1.28,1.89-2.73l-0.24-1.1c-0.6,0.79-1.43,1.32-2.4,1.53C96.89,31.64,94.67,30.2,94.14,27.82z M99.04,30.05
		c1.05-0.23,1.86-0.84,2.26-1.69l-0.89-4.04c-0.71-0.58-1.72-0.79-2.76-0.56c-1.71,0.38-2.7,2.03-2.31,3.8
		C95.73,29.33,97.35,30.42,99.04,30.05z"/>
	<path class="st2" d="M107.73,20.95c2.37-0.26,4.47,1.43,4.75,3.87c0.27,2.46-1.4,4.57-3.78,4.84c-2.39,0.27-4.49-1.43-4.76-3.89
		C103.66,23.33,105.34,21.21,107.73,20.95z M111.25,24.96c-0.2-1.82-1.7-3.09-3.4-2.9c-1.7,0.19-2.9,1.76-2.7,3.58
		c0.2,1.82,1.7,3.11,3.42,2.92C110.28,28.36,111.46,26.78,111.25,24.96z"/>
	<path class="st2" d="M113.1,17.98l3.89-0.14l0.02,0.61l-1.6,0.06l0.14,3.96l-0.68,0.02l-0.14-3.96l-1.6,0.06L113.1,17.98z"/>
	<path class="st2" d="M118.3,18.67l-0.06,3.73l-0.64-0.01l0.07-4.58l0.92,0.02l1.39,2.95l1.48-2.9l0.92,0.02l-0.08,4.58l-0.65-0.01
		l0.06-3.73l-1.76,3.38L118.3,18.67z"/>
</g>
</svg>
