<?xml version="1.0" encoding="utf-8"?>
<!-- Generator: Adobe Illustrator 27.6.1, SVG Export Plug-In . SVG Version: 6.00 Build 0)  -->
<svg version="1.1" id="Layer_1" xmlns="http://www.w3.org/2000/svg" xmlns:xlink="http://www.w3.org/1999/xlink" x="0px" y="0px"
	 viewBox="0 0 99.21 99.21" style="enable-background:new 0 0 99.21 99.21;" xml:space="preserve">
<style type="text/css">
	.st0{fill:#fff;}
</style>
<g>
	<g>
		<rect x="15.46" y="53.37" class="st0" width="5.16" height="3.63"/>
		<rect x="15.6" y="53.51" class="st0" width="4.88" height="3.35"/>
		<rect x="15.6" y="53.51" class="st0" width="4.88" height="3.35"/>
		<rect x="15.74" y="53.66" class="st0" width="4.6" height="3.06"/>
	</g>
	<g>
		<path class="st0" d="M63.53,57v-3.63h9.26V57H63.53z M46.14,57v-3.63h9.26V57H46.14z M28.75,57v-3.63h9.26V57H28.75z"/>
		<path class="st0" d="M63.67,56.86v-3.35h8.98v3.35H63.67z M46.28,56.86v-3.35h8.98v3.35H46.28z M28.89,56.86v-3.35h8.98v3.35
			H28.89z"/>
		<path class="st0" d="M63.67,56.86v-3.35h8.98v3.35H63.67z M46.28,56.86v-3.35h8.98v3.35H46.28z M28.89,56.86v-3.35h8.98v3.35
			H28.89z"/>
		<path class="st0" d="M72.51,56.72h-8.7v-3.06h8.7V56.72z M55.12,56.72h-8.7v-3.06h8.7V56.72z M37.73,56.72h-8.7v-3.06h8.7V56.72z"
			/>
	</g>
	<g>
		<rect x="80.92" y="53.37" class="st0" width="5.16" height="3.63"/>
		<rect x="81.06" y="53.51" class="st0" width="4.88" height="3.35"/>
		<rect x="81.06" y="53.51" class="st0" width="4.88" height="3.35"/>
		<rect x="81.21" y="53.66" class="st0" width="4.6" height="3.06"/>
	</g>
</g>
<g>
	<polygon class="st0" points="90.51,72.24 90.8,72.24 90.83,72.38 90.83,72.73 90.54,72.74 	"/>
	<polygon class="st0" points="90.68,72.73 90.68,72.38 90.66,72.38 	"/>
	<path class="st0" d="M52.26,91.64c-5.05,0-10.3-0.33-15.61-0.97c-14.47-1.76-24.9-5.2-25.34-5.34l-1.14-0.38V36.65h73.83
		c-6.12-4.23-17.81-11-29.79-11c-2.18,0-4.31,0.23-6.32,0.68c-4.1,0.93-8.27,1.4-12.38,1.4c-13.78,0-22.85-5.26-23.22-5.48
		l-0.82-0.49V5.23l2.37,1.07c0.1,0.05,10.58,4.76,20.17,4.76c0,0,0,0,0,0c1.48,0,2.87-0.11,4.15-0.34
		c3.74-0.66,8.93-1.05,13.87-1.05c11.02,0,30.68,1.88,38.55,14.47l0.23,0.37l0.02,0.51l-0.18,11.63l0.07,0.14v36.06h-3.35V39.99
		H13.52v42.5c4.66,1.4,20.74,5.77,38.96,5.77c0,0,0,0,0,0c12.42,0,23.28-2.04,32.28-6.07l0.13-0.06l1.37,3.05l-0.13,0.06
		C76.66,89.49,65.27,91.64,52.26,91.64z M54.18,22.31c6.98,0,14.51,2.02,22.4,6c4.07,2.06,7.78,4.33,11.02,6.77l-0.09-9.56
		c-5-7.6-15.53-10.59-23.47-11.74c-3.71-0.54-7.7-0.81-11.84-0.81c-4.79,0-9.7,0.38-13.47,1.05c-1.47,0.26-3.07,0.39-4.75,0.39
		c-7.46,0-15.13-2.52-19.16-4.08v9.46c2.26,1.12,10.08,4.56,20.86,4.56c0,0,0,0,0,0c3.83,0,7.69-0.43,11.48-1.29
		C49.38,22.56,51.74,22.31,54.18,22.31z"/>
	<path class="st0" d="M90.45,24.21C80.08,7.62,48.44,9.05,38.18,10.86C27.76,12.7,13.92,6.5,13.78,6.44l-2.17-0.98v16.23l0.75,0.44
		c0.6,0.36,15.03,8.69,35.5,4.07c14.4-3.25,29.79,5.84,36.59,10.6H10.32v48.05l1.05,0.35c0.44,0.15,10.85,3.58,25.31,5.34
		c4.6,0.56,9.92,0.97,15.59,0.97c10.83,0,22.94-1.5,33.8-6.36l-1.25-2.8c-27.8,12.43-64.77,2.28-71.44,0.27V39.85h74.13V72.7h3.06
		V36.79H90.5l0.18-11.77v-0.44L90.45,24.21z M54.18,22.45c-2.42,0-4.76,0.25-6.99,0.75c-16.7,3.77-29.37-1.75-32.51-3.32v-9.76
		c4.51,1.76,15.15,5.32,24.03,3.75c5.61-0.99,15.62-1.65,25.36-0.24c8,1.16,18.54,4.16,23.59,11.88l0.09,9.85
		c-2.21-1.68-5.85-4.21-11.23-6.93C68.67,24.47,61.07,22.45,54.18,22.45z"/>
</g>
</svg>
