<?xml version="1.0" encoding="utf-8"?>
<!-- Generator: Adobe Illustrator 27.6.1, SVG Export Plug-In . SVG Version: 6.00 Build 0)  -->
<svg version="1.1" id="Layer_1" xmlns="http://www.w3.org/2000/svg" xmlns:xlink="http://www.w3.org/1999/xlink" x="0px" y="0px"
	 viewBox="0 0 99.21 99.21" style="enable-background:new 0 0 99.21 99.21;" xml:space="preserve">
<style type="text/css">
	.st0{fill:#606161;}
</style>
<g>
	<g>
		<path class="st0" d="M52.23,97.68H45.4c-9.53,0-18.38-4.65-24.26-12.75c-0.23-0.32-0.46-0.65-0.68-0.97
			c-6.91-10.28-7.53-24.25-1.56-35.59l19.72-37.42l2.74,1.61L21.64,49.97c-5.38,10.24-4.85,22.83,1.37,32.07
			c0.2,0.3,0.4,0.59,0.61,0.88c5.28,7.28,13.22,11.45,21.77,11.45h3.7V66.22h3.13V97.68z"/>
	</g>
	<g>
		<path class="st0" d="M55.6,97.68h-6.83V64.49l1.64,0.08c0.51,0.03,12.17,0.35,15.99-12.82c-7.68-1.53-13.65,7.45-13.71,7.54
			l-2.04,3.12l-0.78-3.7c-0.03-0.14-3.01-13.92-9.99-18.38c-1.75-1.12-3.57-1.53-5.54-1.25c1.03,10.18,2.85,19.94,10.09,21.94
			l-0.79,3.2c-9.54-2.63-11.44-14.43-12.56-26.29l-0.13-1.39l1.28-0.37c3.29-0.94,6.41-0.49,9.27,1.34
			c5.92,3.78,9.21,12.6,10.6,17.35c3.02-3.38,9.17-8.6,16.72-5.84l1.34,0.49l-0.33,1.46c-2.05,9.09-7.26,13.21-11.26,15.07
			c-2.66,1.23-5.13,1.65-6.67,1.78v26.56h3.7c8.55,0,16.49-4.17,21.77-11.45c0.21-0.29,0.41-0.58,0.61-0.88
			c6.22-9.24,6.76-21.83,1.37-32.07L55.01,3.94l2.73-1.62l24.35,46.03c5.97,11.35,5.36,25.32-1.55,35.6
			c-0.22,0.33-0.45,0.65-0.68,0.98C73.97,93.03,65.13,97.68,55.6,97.68z"/>
	</g>
</g>
</svg>
