<?xml version="1.0" encoding="utf-8"?>
<!-- Generator: Adobe Illustrator 27.6.1, SVG Export Plug-In . SVG Version: 6.00 Build 0)  -->
<svg version="1.1" id="Layer_1" xmlns="http://www.w3.org/2000/svg" xmlns:xlink="http://www.w3.org/1999/xlink" x="0px" y="0px"
	 viewBox="0 0 43 43" style="enable-background:new 0 0 43 43;" xml:space="preserve">
<style type="text/css">
	.st0{fill:#F25929;}
</style>
<g>
	<path class="st0" d="M42.47,21.39c0,2.8,0.01,5.61,0,8.41c-0.02,7.14-5.3,12.44-12.43,12.46c-5.66,0.01-11.32,0.02-16.98,0
		C5.97,42.24,0.68,36.94,0.66,29.85c-0.02-5.66-0.02-11.33,0-16.99C0.68,5.77,5.97,0.46,13.05,0.44c5.66-0.02,11.32-0.02,16.98,0
		c7.13,0.02,12.41,5.32,12.43,12.46C42.48,15.73,42.47,18.56,42.47,21.39z M21.57,3.71c-2.88,0-5.77-0.02-8.65,0
		c-5.11,0.03-8.97,3.9-8.99,9.02c-0.02,5.74-0.02,11.49,0,17.23c0.02,5.16,3.89,9.02,9.05,9.03c5.71,0.02,11.43,0.02,17.14,0
		c5.21-0.02,9.06-3.88,9.07-9.1c0.01-5.69,0.01-11.38,0-17.07c-0.01-5.26-3.87-9.1-9.14-9.12C27.23,3.7,24.4,3.71,21.57,3.71z"/>
	<path class="st0" d="M32.83,21.34c0.01,6.2-5.06,11.27-11.25,11.28c-6.19,0.01-11.27-5.06-11.28-11.26
		c-0.01-6.2,5.06-11.27,11.25-11.28C27.74,10.07,32.82,15.14,32.83,21.34z M29.56,21.43c0.03-4.41-3.53-8.05-7.93-8.08
		c-4.41-0.03-8.04,3.53-8.08,7.93c-0.03,4.41,3.53,8.05,7.93,8.08C25.9,29.39,29.53,25.82,29.56,21.43z"/>
	<path class="st0" d="M34.62,9.94c-0.01,0.9-0.79,1.64-1.69,1.6c-0.87-0.03-1.58-0.78-1.56-1.65c0.01-0.9,0.79-1.64,1.69-1.6
		C33.93,8.32,34.63,9.06,34.62,9.94z"/>
</g>
</svg>
