<?xml version="1.0" encoding="utf-8"?>
<!-- Generator: Adobe Illustrator 27.6.1, SVG Export Plug-In . SVG Version: 6.00 Build 0)  -->
<svg version="1.1" id="Layer_1" xmlns="http://www.w3.org/2000/svg" xmlns:xlink="http://www.w3.org/1999/xlink" x="0px" y="0px"
	 viewBox="0 0 165.85 153.42" style="enable-background:new 0 0 165.85 153.42;" xml:space="preserve">
<style type="text/css">
	.st0{fill:#2D328D;}
	.st1{fill:#FFFFFF;}
</style>
<g>
	<path class="st0" d="M136.96,0.73H28.79c-15.42,0-27.91,12.56-27.91,28.05v58.61c0,15.06,11.81,27.34,26.63,28.02v37.32
		l36.85-37.29h72.61c15.42,0,27.91-12.56,27.91-28.05V28.78C164.88,13.29,152.38,0.73,136.96,0.73z"/>
	<g>
		<path class="st1" d="M32.17,56.53l0.1,5.73H27.9l0.1-5.73l-5.16,3.21l-2.36-3.7l5.55-3.26l-5.55-3.31l2.41-3.65l5.11,3.21
			l-0.1-5.73h4.37l-0.1,5.78l5.11-3.26l2.41,3.65l-5.55,3.31l5.55,3.26l-2.46,3.7L32.17,56.53z"/>
		<path class="st1" d="M47.85,68.29h-4.72v-4.84h6.09l1.67-5.73h-5.31v-4.84h6.69l2.7-9.58h6.09l-2.7,9.58h7.42l2.7-9.58h6
			l-2.7,9.58h4.77v4.84h-6.14l-1.67,5.73h5.36v4.84h-6.73l-2.7,9.58h-6l2.7-9.58h-7.42l-2.7,9.58h-6.09L47.85,68.29z M62.75,63.45
			l1.67-5.73H57l-1.67,5.73H62.75z"/>
		<path class="st1" d="M88.75,43.29h5.75l9.04,17.29h-5.55l-6.34-12.25l-6.39,12.25h-5.55L88.75,43.29z"/>
		<path class="st1" d="M106.3,51.89c0-5.29,3.15-8.89,7.86-8.89c4.67,0,7.81,3.61,7.81,8.89c0,5.38-3.1,8.94-7.81,8.94
			C109.4,60.83,106.3,57.27,106.3,51.89z M117.95,51.89c0-3.21-1.47-5.29-3.78-5.29c-2.36,0-3.79,2.07-3.83,5.29
			c0.05,3.31,1.43,5.33,3.83,5.33C116.52,57.22,117.95,55.2,117.95,51.89z M112.25,77.87l19.46-34.58h5.06l-19.51,34.58H112.25z
			 M127.43,69.17c0-5.28,3.15-8.89,7.86-8.89c4.67,0,7.82,3.61,7.82,8.89c0,5.38-3.1,8.94-7.82,8.94
			C130.53,78.11,127.43,74.56,127.43,69.17z M139.08,69.17c0-3.21-1.47-5.28-3.79-5.28c-2.36,0-3.78,2.07-3.83,5.28
			c0.05,3.31,1.43,5.33,3.83,5.33C137.66,74.51,139.08,72.48,139.08,69.17z"/>
	</g>
</g>
</svg>
