<?xml version="1.0" encoding="utf-8"?>
<!-- Generator: Adobe Illustrator 27.6.1, SVG Export Plug-In . SVG Version: 6.00 Build 0)  -->
<svg version="1.1" id="Layer_1" xmlns="http://www.w3.org/2000/svg" xmlns:xlink="http://www.w3.org/1999/xlink" x="0px" y="0px"
	 viewBox="0 0 179.42 136.94" style="enable-background:new 0 0 179.42 136.94;" xml:space="preserve">
<style type="text/css">
	.st0{fill:#F05B2A;}
	.st1{fill:#2C3494;}
</style>
<g>
	<g>
		<g>
			<path class="st0" d="M158.39,4.24c-1.38,5.63-5.81,10.06-11.44,11.44c-0.46,0.11-0.46,0.79,0,0.9
				c5.63,1.38,10.06,5.81,11.44,11.44c0.11,0.46,0.79,0.46,0.9,0c1.38-5.63,5.81-10.06,11.44-11.44c0.46-0.11,0.46-0.79,0-0.9
				c-5.63-1.38-10.06-5.81-11.44-11.44C159.17,3.78,158.5,3.78,158.39,4.24z"/>
		</g>
	</g>
	<g>
		<g>
			<g>
				<path class="st1" d="M135.95,29.04c-1.82,0-3.61,0.35-5.32,1.05V28.1l-10.35,3.04v35.01l10.35-2.72v-18.9
					c0.61-3.16,2.83-5.44,5.32-5.44c1.65,0,3.21,0.99,4.27,2.71l0.49,0.78l8.55-5.29l-0.48-0.78
					C145.88,31.84,141.08,29.04,135.95,29.04z"/>
				<path class="st1" d="M97.59,28.82c-10.34,0-18.76,8.42-18.76,18.76c0,10.34,8.42,18.76,18.76,18.76s18.76-8.42,18.76-18.76
					C116.35,37.23,107.94,28.82,97.59,28.82z M97.59,56.47c-4.91,0-8.9-3.99-8.9-8.9s3.99-8.9,8.9-8.9c4.91,0,8.9,3.99,8.9,8.9
					S102.5,56.47,97.59,56.47z"/>
				<polygon class="st1" points="63.42,66.15 73.74,63.28 73.74,17.44 63.42,20.31 				"/>
				<polygon class="st1" points="154.13,66.11 163.91,63.57 163.91,37.89 154.13,40.43 				"/>
			</g>
			<path class="st1" d="M56.85,36.17v-0.68l-24.92,2.58l1.06,10.28l13.25-1.37c-2.3,5.29-7.55,8.79-13.36,8.79
				c-8.04,0-14.57-6.54-14.57-14.57c0-8.04,6.54-14.57,14.57-14.57c4.49,0,8.82,2.14,11.57,5.72l0.23,0.29l10.86-1.9l-0.37-0.74
				c-4.21-8.36-12.96-13.76-22.29-13.76c-13.76,0-24.96,11.2-24.96,24.96c0,13.76,11.2,24.96,24.96,24.96
				c11.3,0,21.21-7.63,24.11-18.56l0.17-0.4l-0.07-0.04c0.02-0.11,0.12-0.56,0.12-0.56C57.87,42.89,56.88,36.44,56.85,36.17z"/>
			<g>
				<path class="st1" d="M23.43,71.04H3.28v45.2l10.98-2.67v-13.19h9.17c7.52,0,13.64-6.57,13.64-14.64S30.95,71.04,23.43,71.04z
					 M23.43,91.28h-9.17V80.2h9.17c2.5,0,4.54,2.49,4.54,5.54C27.97,88.8,25.93,91.28,23.43,91.28z"/>
				<polygon class="st1" points="98.38,92.14 98.38,81.82 90.38,81.82 90.38,70.94 80.06,73.57 80.06,81.82 72.49,81.82 
					72.49,92.14 80.06,92.14 80.06,115.55 90.38,115.55 90.38,92.14 				"/>
				<path class="st1" d="M137.71,79.18l-1.17-0.02c-4.34,0-6.94,1.66-8.45,3.33c-3.08-2.51-6.9-3.88-10.86-3.88
					c-9.52,0-17.27,7.74-17.27,17.26s7.75,17.26,17.27,17.26s17.26-7.74,17.26-17.26c0-2.34-0.47-4.61-1.4-6.77
					c2.45-1.14,4.89-3.62,4.66-9.01L137.71,79.18z M117.22,89.45c3.55,0,6.44,2.89,6.44,6.44s-2.89,6.44-6.44,6.44
					s-6.44-2.89-6.44-6.44S113.67,89.45,117.22,89.45z"/>
				<path class="st1" d="M124.28,114.94c-0.29,4.46-3.34,7.98-7.06,7.98c-3.75,0-6.82-3.58-7.07-8.1l-10.47-1.56v0.98
					c0,10.55,7.87,19.13,17.54,19.13c9.67,0,17.54-8.58,17.54-19.13v-0.86L124.28,114.94z"/>
				<path class="st1" d="M156.95,79.13c-10.34,0-18.76,8.42-18.76,18.76c0,10.34,8.42,18.76,18.76,18.76s18.76-8.42,18.76-18.76
					C175.71,87.55,167.29,79.13,156.95,79.13z M156.95,106.79c-4.91,0-8.9-3.99-8.9-8.9c0-4.91,3.99-8.9,8.9-8.9
					c4.91,0,8.9,3.99,8.9,8.9C165.84,102.79,161.85,106.79,156.95,106.79z"/>
				<path class="st1" d="M61.48,103.15l-0.1,0.03c-0.18,0.27-0.38,0.54-0.6,0.8h-0.02c-0.72,0.86-1.62,1.56-2.64,2.06
					c-0.07,0.03-0.14,0.07-0.22,0.1c-0.14,0.07-0.29,0.12-0.44,0.18c-0.16,0.06-0.32,0.12-0.49,0.17c-0.05,0.01-0.09,0.03-0.14,0.04
					c-2.66,0.76-5.63,0.12-7.77-1.89l22.09-9.14h0.17c-0.88-4.51-3.54-8.39-7.21-10.88l0.04-0.04c-3.37-2.28-7.39-3.21-11.29-2.82
					c-0.08,0.01-0.17,0.02-0.25,0.03c-0.44,0.05-0.87,0.12-1.3,0.2c-0.18,0.03-0.35,0.08-0.53,0.12c-0.34,0.08-0.67,0.16-1,0.26
					c-0.2,0.06-0.39,0.12-0.58,0.18c-0.31,0.1-0.62,0.22-0.92,0.34c-0.19,0.08-0.38,0.15-0.57,0.23c-0.3,0.13-0.59,0.28-0.89,0.43
					c-0.18,0.09-0.36,0.18-0.54,0.28c-0.28,0.15-0.54,0.32-0.81,0.49c-0.18,0.12-0.37,0.22-0.55,0.35
					c-0.19,0.13-0.36,0.27-0.55,0.41c-4.18,3.12-6.9,8.08-6.9,13.69c0,9.42,7.66,17.08,17.08,17.08c1.69,0,3.31-0.26,4.85-0.72
					c0.04-0.01,0.08-0.02,0.11-0.03c0.44-0.13,0.86-0.28,1.29-0.45c0.11-0.04,0.21-0.08,0.32-0.12c0.33-0.14,0.66-0.29,0.98-0.45
					c0.49-0.24,0.97-0.5,1.44-0.79c0.03-0.02,0.06-0.03,0.09-0.05c0.37-0.23,0.73-0.48,1.08-0.74c0,0,0,0,0,0
					c0.69-0.5,1.35-1.05,1.97-1.67c1.21-1.21,2.19-2.56,2.95-3.99L61.48,103.15z M48.89,93.02c0.29-0.29,0.59-0.54,0.91-0.78
					c0.01-0.01,0.02-0.02,0.04-0.03c0.31-0.23,0.63-0.43,0.97-0.61c0.03-0.02,0.07-0.03,0.11-0.05c0.27-0.14,0.55-0.26,0.83-0.36
					c0.1-0.04,0.19-0.07,0.29-0.11c0.29-0.1,0.57-0.18,0.87-0.24c0.16-0.03,0.32-0.06,0.49-0.08c0.16-0.03,0.33-0.05,0.49-0.06
					c0.21-0.02,0.41-0.03,0.62-0.03c0.06,0,0.11,0,0.17,0c0.38,0,0.76,0.03,1.12,0.08c0,0,0.01,0,0.01,0
					c1.48,0.22,2.82,0.86,3.92,1.78l-13.15,5.42C46.73,96.15,47.51,94.39,48.89,93.02z"/>
			</g>
		</g>
	</g>
</g>
</svg>
